<mxfile host="65bd71144e" scale="2" border="0">
    <diagram id="cCpi6_I7B1_-0tRCALjw" name="第 1 页">
        <mxGraphModel dx="790" dy="539" grid="1" gridSize="10" guides="1" tooltips="1" connect="1" arrows="1" fold="1" page="1" pageScale="1" pageWidth="827" pageHeight="1169" math="0" shadow="0">
            <root>
                <mxCell id="0"/>
                <mxCell id="1" parent="0"/>
                <mxCell id="2" value="" style="shape=image;verticalLabelPosition=bottom;labelBackgroundColor=#ffffff;verticalAlign=top;aspect=fixed;imageAspect=0;image=data:image/png,iVBORw0KGgoAAAANSUhEUgAAASwAAAEsCAMAAABOo35HAAAAAXNSR0IB2cksfwAAAAlwSFlzAAALEwAACxMBAJqcGAAAAJZQTFRFAAAAQUE/Tk5KU1NTFRUUSEhFOzs5HBwaW1taMjIwDw8OKyspJSUkCQkJZmZkcXJx9fz+sri8ytDVi42M3+ft8vPzgIKClpmb4eLho6epj4+MZ2Zku7u5pKShzs/OgoJ/m5uZgoKBgYF+fn17UFBOeXp4YWFebW1qXFxZXVxZ1dvhS0xL2d3gMjIxOzs6S0tJq62vuL7EbT7NggAAADJ0Uk5TAP/////////////+///9/v/8/P/+Bf/+DPo7oyEpF39dx1Sp6fB0WPLPirdF2N6RYpxrTt6iAAAqsUlEQVR4nO1diWLbuK4NKS6iSEu1Hct2nD1pmq237f//3ANAUpLlJU4ittM+496ZadLElo8A8GDVyclRjnKUoxzlKEc5ylGOcpSjHOUoRznKUY5ylKMc5ShHOcp2uby9urq6vbic/ekL+c/L7OevuqyqMs/y8ubu9ux8ccRsl3z7Llw9zbvy+LS6uj5f/Okr++/JQ1EIY7K8L6BmX+/ANP9fYLY4Pzs7Ryc022tU3wpRaCM3sEIpM/hfWd3c/bz8XVf9R+TsblrXVVV9vflq7dPd3S6jOtcCFGtTr4LILMvr8enpl9N/F67zVV7V8/lyOYV/lvP5dArA3Vy3eC0uw59fxA6t8liJohiNdDUZz8tvf+izpJbzuZQSfE5VMlnV07kXULWbO/Tbs583/s8Xi7P7DVcFupRzqYxzjCmrC5CRzZix/yZar2PGDErmRlpyQK2eTiNgVV49VuMvX76cTur8cQMpLo0GZUIRRlkxQqyKkTLW2rM//cESyOspp89mOXz4vCxL/A8a5ZhkmclsPpnMqy06xZUTiI4HC77A/5JuVdaal3+Pfi2+1JY5EAX+HYwQlKnMeLkcTyaTU5B5xjPkn32oOGcuYkP4FA6cf/yOKY0yt3/6sw0uz2MrESuHTh3UynOmOQIFfrreUCiPlFTa6xNA45UL/u8a1RqNaqbU6k9/tqHlm7PGam2ykpDKgoC3n27FiQ49xiJUiI12huWgjkxxhbpFYNmcMfaP8YfZd6eVzUinsq4AxdwBFZif6GAFXCIr5+O5KegLjWAhhBzA+sdc/DdQgQ2kvKVFcMp12Dgcf1ZEqIDMI65lpjWqqBM24miBjvxb7GFxU1c9lVrXKt7x7Ihaxg04KRBvgAyMF6xSMbDEqqZchHd7GRC3jP9DYC2ubzasb027WtDC1/Q3XALjBHIlbFaDX/MODpCaYggwDnxjCRRNuu+rf+NAPL+9Qy3YjtQGZlne82gQL+ccvDqihAIsFsnGaRTgHZPxspZPZ7d/e+7m8mqPTm2FrPsVAEXQnE6mZUVAAVTjUyT5E9IqVDDktMzMUcMwPL+7+jszEZdofflepPbhCPgQUgDOly+TqiQDnOCfx/OpvwVcSnDzuWVLUjD84dNl+Xh3/qc/+jtlcfs+neprWBcpUCUIGMuyXqJWjSEg4sBEDYVOTsPZSGxtupyMp6U0hmXl1V8UAO316AdAtYEUMPyyBKODL5Z1Dn6fQgFNwixwCaOkzCV+21oFfOzuT0NwoLzXT+1H6kuIhTgzU7DAybhkJsKEInwI5fx3LWqbYjwvr/80DAfI4vrNs8+npviWvwEHhy4dfU+D1GQ5rctMgtEZu5wsy0zZFiqgYc7glwAW/lvlObMGwMryr/91Ur9426MH4fiRrVKyixmmt4gWtDq1BE8ekELJvAF6mATGQgX30AGxF7acA4cAi2SYYHz8L/OId/spcNLOqYgWIjXvInU6Wc7rLlKNANINWMYQVsaAjlXw6zUzCsAC1aqu/zQiu+RtndoL44b1eZeeQXyzhhR94aZ1FtASBYM/gFIxIXUOfm5cqQhWefOfPBEPt74dOAbquXb4ET3oIWW8kpXjmjlEqii0IcyAPKhCVwBWDmAxD1Z18aeB2ZDPIrXl8ANH5ZHahEphwUItSwSL8qQao+3CFBUmt8xkzsllcQLr6k9jsy4eqTfjvh1S9annmku3m0ih5ODip+jgKcVs6d/aaoY5+tG0sUJMaHz9D8U9b+vUfhg3keq5dGY6SHmolAI/ZnhMxwvtIQOghDLazrOoWAjWf8bFe6Q+qFJZQxNOd7p0xVRfqbyUDGMcUehiVGjvuRzilo0ny4p5rDi9Q/WfcPGf9lN9QtV36YCUwXQofNWBitG/JABIVAvTp4JORdQvkS/HdeOxMp/c+eMu/pMsYYNQrbl00qWAFOAEBLRBikRhMdoitxIO6/eBnZJmAaNQrWKRHf5ZF9+3PrguA3y5B8c+IKttSGHBJiLFDNEpg2mFQsPx1yBFUKkAlibm4NEi9yVLHrx7A9afdPFrOhUyvxDforlInvch26JvPerpkarbw4+QwljYwB2QhptiZMuIVMCLatoeJHTwWkSwDHYGAFYRLLLDP6Rae6wPLk5Khp9S7UGs7B9+W1268S5dgVECdlYYztQ6VvgT4Ku8SnXMkEyWkWIFsP6QavWR2pIy4BwA25ZK8Be+Fal1l26DoyKwGASAAkyQGbkJFgU7Gr17jHqQmmobFasF67ezB8q65D3O9J7D8E2kOi49EgWecSsswIMIoEi4Fz2wglpF0RYVi8AKTut3q9bievXY1xfqUWjKfADce5CKh1/Ppa8hBQLYABSAj9KoLl76YLkGJxRvhV3N+r1e6+yH9dcB95foSyyFZrG+Fwp+fTQbBdw4/MhRYbnU0/Oe+UWiUDHOjaDKvPBg8QhWZgJY4KQiVpQrtZtgIVq/qXhx8R24sgvhGV2O7DcmZI2ClZv0qkc923iGmeio6PBzZh0pydVc8hLAylDBjLesABb9jgfL2qhVNvx6ACvrqNZvytR8k1XOHKZsASr4H1hFFydEZ6323kOqr1P+8Nvp0puIBrSOky932gBYXNt1sBBoTVgZG+zPxd9e81lRta5/A1YPj0wHkkfFAKZ3NMSWm3a4Qah2xTN2XakYRH5BgIs4hp/btWAFp4VgeW0SWgcDbMFat0P08ekN8cwpO4ILAuYk6Yby7VD1XFagnsseUmsu3W5HCj7rNNCE4NC5hFvlghny1sMbcufwe4K8BFENOirZhtNCtJKXxS6/w8U74IbxxNqNFHdUfYo6tfXwW0tRoaPaRKqhUx4nEMz0bQeLtAl+s3FWKoZDXbAatD5R6Jldr1ZPTzd31+fnt1fXP7cPXP1g/v2wk8Wonb37oFTMH5joORTfhhTFM6qTzHOtS+/kXvpQccHEaMRasAJalaHiIP2uNmu/rdaPw8YSv3600DO7ekKvB8dEVTFnsfni6w22of88v7xcLGYgi8ufV19L6ibG992pUQBT4QM0Z0aEl9Zs3j/88n7VAdGybygVCMM0lQfLNGAhWiFt40YjgyqNCrUGluyAFZz8B8nW+U0Wkq6Zhc8oKdzEzrCqJyXJdgeF6hQ6YIWgdgM+IpKI1EeN91UdyLsrXbyBFBqhiGCxiq+jRb8ssBtQ96LsvmYFAvGhxNZs8Yu0hQOVwbZ74sBai2hI1sgOWluR4ti93/R5gmppzMTB0eUCWk7nhNSaS19PpyvMvfTAWkdqDazu9+GHlPdRwBsU072cxPpx2KL1EbK1uOY53cBM4biC8+9OISdAwxXLa2y1niy3Q4VI2U5LLKYqvUp5owqIaTvdVnVoc8QmE2IDqXWodoGFV9xBx9lNsDjfQKv8QOvD7CfP6UUzOdISi23xhREtcGQQyc2x92m7KwedEtSGPioasGxB0RAm6xidmlkGsZ6WW5Bq0+lGknbsQQrBIp+luO2DBX8VfstHjtvMsCMerfeTrdfHzOex82JU5sALAp1Zb3/dgRQP1ke9+7HbOtAcS80aqFoYFjEJZ/pOpHxE8xZUAaxiEyw8WiMTYxKYK/1XUji+DSzvod9NtmY3KsMrNZUr8gqUAK+XY8M1ala2qx0doQI+XQR9KqhC4Hv4iezEm2zAFWMMqQtJ3Gs3VMywXZ6qC5ZxWjBu1fpP5Dn9Cv4m+ACIMvyf4VYWOib/tqD1Th//8MQyuuaSu6yGIAxuMJkfXnS2V7WUDWMzqFhaYKEO+GCso6Dfk3hoZCVNMo1cCde+CykVufZupYpgwcGZb4DV8abcWMmcwUvAkQtttikWD27m5j1k6xZDKLr0ysqphCA1hOWeI1BoEUjchpJRrUl4uESXJbGmPgDubjqejKdYMbaYVtBdqHpnX1DH3UiBsBEpPrds7durq+vrn9fXV1d3d3c3X7/ChRuTISX0KQmfJAwvHt/i/T7+Oxy1dLjDba9Ll2NNMqOmgDKyKmShqGUbmkWFX408AUsTVV1iFtyyLgK8XJ6ejk8n8xxOO2zlt24DqcYTS5//Bd/GtgJFYrxK2TVIn9Yd9WxxcfvtYbVaXZ9d3T3l/qDCG98kDFu03pHZumAak2UAV+aqGpjj6bKU0cM31DRAhn8RyC+lqXwNBQyCEqOlCXpmKIWFV0PHRDU+BcaO3WRlBeed3hH7eY/MMQ+jtNunXLwHFrzZvjBvtgC5vL77SgyvDcejIR7u459LQbkyAadaXZ2e1spnYlv3QZ0nHe6O9weTo+V8XGI9gMl6XoN3ZcgVkCLAuZTXuR+epBMJcPQ1d5YrH9NsRQreCk0eqJ5w+i2smGmggrc6KG65vAK4uIoEw8c/qFqHBtSXE1domoWRNp9+mVM+CHsGKLJrWE8PsbKs55RsWQrD1RQ8EgR6+AtlPa1xiL4Em/QEltxWhs18FuuITOWl3UCqOf3wSKAuhTfBMiwiBVdzaMf2xU1ZcmYauN7p438tC6rhFs64+ksFJoUBKRGJmKQNetBChjMy4xAXj3NbLmtgHqhXFFJWfuKhBj6O0w9cC7RKTr7KSWaymptNpeIxk3cgWMzEnhi4oMO722dX4EA20bo+EKy8CB1N2p7WBeavqY4btMogpwmQNedcRZMfpz7TUllyRMxpSl81ZlvX0jv+rEQSh/6Iiu9a1JVRG2EyHMjsHWBB1MkDUtXNu5jSLbJD0/oYfriPny1dAMuJetI0NhWYvnaNIXq7DJDhMHNW4RFHeU5JkILb1mBlTQcCIZbnboQvTEE4TYlgFqzIaqP65ocZAzSsCJbdD5YFBu+hqu8u3hkL32ZdtN7j488rERvAgOYWzZ81BNZ41jJLGmM6ShZqcTS9RlxTwQ9IYAwAJe/WYiASoI7FCseQ5tN6usR6V5WzHHDp0XSLySh1KFgZvJNXqusP1EqvOEaz8Wa9w8dfy2Z23RYNbmCNJZxqcDU5RVZoTzp4MhfKTM76wiZmcp3UAotjWZMTRjjK3FW6cNEsx5ifqTKMOI3tRTT0G4AAqqQHS+yBChkMvOLXq/OPVbMQLdbUsz1ah/j4Kxvx8esjQpehA0+TcyCZzGIrDyLqACcqqpqoX1QUoCKKU5i9sqEnjzgnBOVTlsNveF/OJXk2ykLwvDQ9mo5IwS9xVgJYqMDW7kQKPifHU+T6w83/iydkc6pVreyw1smViwCVVotWsbAWA6d/ZuCilYOb7RjxAAkuy1L/gPdeVCJwTAgEUnYiZK7G2bSpk3KiI6E6JWkdShcB5cGyFEjCqzimsu1IAYWDuBXISZZ/YkT14h6jBLVuiG/7+JUOxqfBbRgdXZaBu1/mdZ1bjN0RLAMERXKi8RbOBAc3t8RhK0XBCzoxwVxTprbcTosqluJtTnM0odBMEzTwah1hPn1uPFhqV44AYy4sE1V4Kbz8xFjJLcVUXUM8xMc/he6cwhJTtI1qVVkGJKmEYDRjjheCV7zMJR5qQMJB0colztTSbANVN7VxJqSPqSEK/J0LXcVW0sEqS7Rqav8BvZfrYHnV4gTWDqjQ/HC1D8YH9K3PTD+vthjimz5+FSapRDjDjGfzwlnyC5XEjIRhhc0rzDqAYWJiDX4I4u3JsjTW+o07OHnVDGUpLd2kqrT1iqbQC1kIjrBpOA6FZF07Y+SxPNHaZ35Iv1E81J+pkW64rUMKYys/zeg0tWqiKw7DQp4fSKw6sxysMKs4GWaF0R44OjXHIVLlWzwpUywDGwMi6mxdTeCE9K8Nbp6GjU7HLVhZzntg4T3ZClY0v5LKjKoFK/tMi5V3W13+8HYX0ipYCqaafI+0T4bbhlPB3+BoB/OrreocIuWcFnYoAIvhuUfUylDhzqMllFjWlQplHQXUQ+dA+k+XuTKhYxF9fEeoUYES/5uZ8mh+ONEbsoNeK+WnJgfJbZl1H/9GKHAdaZGDXypsyMCpQNxd00IHBwAeQhQil6XA/TjudDJlIdsCQFHDbfgFcP9L4xs8tchELXQ2+fJlMuWh/YeCuq4dKrsVKzI/9OkV2Z+KbQsBrM9tuCC31UXrzVaRc/iYZEcal250S5Mq1Cwb4yIeynGsBpM4xWiOmkWKRUcDMYkwRFpUNo9AAw9gcODq8ZfGCj1Ya6olzbbqC8fcIfD0u3BJAaz4Ow+fAovc1hp/KPP91HR2H4ITrUg9+tJTMq0l2Jelos3ydELjQ95nec/nqLMaN/HEFlhhito3wk7m3gplTBdspVJr5gc+HXn6yeypvR4EK8D1yYVP6LZ4TNuRIWbZ3d6YYBVywNaoDaSaC2w8GXXT4U+Di68n45wUy9pm4J3AwopwFUIB0Cws9sC3R8tKRo/lwcq3gaRkx/zK6u5i4bWguZjhwNpwWxAyZnud/K3vnwAgdoK1bpYsUgw2nkPwHnTKiaJpFNYCzC1GA7RlTmdcVdOsGXTw80bbVEuNWOPTy5vb5rw7v++AlckhzBDkat1tYRyf7WNvzT3T7A20gpIFxMB9l1ljf875LFiwvTYWKHxJoxyP5yVrBh1i2m4DK1m4YH5lL0y+uN/QrM/ve+q7Laxk5fuOxG+hRUCrHljAuCu+S8nIi7V6FcEKEr5swHLlnFZ2tHGMB2tDtYB6BvPbCJOvZQQLhxDohz8/20Vuq80EUni/r1fk8t5fhek5LcUxO1yyrUKOnTLQDVijDli6USxfVHR5XUoVTsIuWusuPctU3/xamd171VfYnOlfZYC+/47banoWrvf+vG8P6IOVUSp9B1ojX3TYAIvCctHmL4LjklnDGtbAynn3a1wmBua3I/X5pPwyP3xnepnHIXqzA9tSbXk325t/WFGFVqq+ZmGGczrNtmqW097Vr4NVbGhWzGJQIpT1wGpVy0OHK6R3Z6lWyvdU6AjWIKsiz3l0Wyo2B+b7gs7Fg3cBfUQqX6XpfRecLzYPKR98bDfDsqdafjIrXk00ujzQhzggUt1c7TOsq7Brs8BXGgys2VM0RF86oAvb6wxftqGlcq9a606erLPmTHqwjE8rA89qwIIox8WRrOi4KCnNumBFiLKoVF/fqjycKxsWH9JsmBpo+eGKzCqgFTpa9uYzLq/86t0eWrh7alrnvW/WAcE+WCMPFkXPce4PIfPftGoDLI/Wm+YXBTy8XyGJSsoLq4bZwHMVPLY3xNDLsv/ouLiDy+6DBbpV132w8micrdPCVjWvWTSRpXGitLudKU5mbQEr+PSDynYvmW+Uw7y+dBUbZkDivOux476gt/KKi4vbvtMylF3umWHw+2UAy/gMXwsWfBZj25xpELsNLI/W14sD88Nnik5Dhmoq2fRpmEElcFreEH0+w8sBecX7DbQcLuLtGyep1lSqaIfrYOGQgC82tk1rVHjcBdbBcw5n3gNKjcEnZ0Pt1FwZbL/zhhjnQZ7e/rWXjYBH9Wk9qRaiVXPWBcvvrA9gKTgcOxXE0GC0BayA1oHk8rvnbBlEWvBqq6Em4M4NDTg4Co4DWAdQuIcDokM8D6lVJmvskDTLFUX07hYLsTYmb5rmop6D76B1WDL9dhQIrjTix8PZcNOC9zTc5rClurHDtz3DBXx69zZYRmI/0TpYfh5ShOFW2hzXRSnq6DrRatC6PuQzecUqGDfFoPulZ/dEmpTpgvW2ss/ulRRNttTkVbY1kFbU1x6Pw1CFdmEeg2b8rAKwWBerZo5tO1oHhMSXRaxvavWpUsWG3BsLtNF4OzxYs04ejLKugaTCvWigQhvUHrUpfPxWtZpTD78L2PmDQTWJnw2wuhNab0+FzF48WIYJc4j/fYe8KL9ixLVgHRJ2zl7aD8ccriEAX85zme9K1XTAWlMjZ3XfnqPT6qba27GQt6pQs5sQbio34tmns35r8gBkl+guXiE/9DSE0/l/rY+3Ge55BvqJJTUKp2UvIgp26Mc0ZSsAltG6f1q0HVG8hxca4hte6FsMyUF3tRt2E/cFPQoDonTTgHVY2HnbcgXlcvB30ylWU7ABCcl77revd8GKa+U6TdPAh3ErmtyAdgtYkcrvX0ox+x7DTFmakRt2gcVCGh90oh2Shz90jXwHLeOyvK6n+JQRxXDTLM2IA8eq1sBioSStbJtxZAWcxWEc5S2wwsTRXv4QFasoalkUQz8h5l6FZ2HgJRJYh6ruQ7toiaY04Uyk4nyObVFYaJ1WWcwIqsYUlRFNpy4lh7TRJhrlG2AFtK53X1OjWEUxBUI3rMsCD8/CgFYD1sFh56qjWzTURUccJrFUKSFYnFZSwhe4BTuqFv4oRLiW+XFlqk9raxVbUy4P1iZWIV2zJ0F52+Zca1GIofeq/cBHrRSU/AlO6+BuJjgSTSchH0rSmj5tySWcj5lB1VIj0zQfoCr5p29k1GqLTV0jHSgboWU851sHqzkcSbV28wdULJ8ey3hR/G/oVR/fFLb0Ya9wAOsdMfriRTnfHNNyJP9HbEigTqSa5h+taUe2z779+A609PsPWo2NiGnsifOAYN+XNo1iBYxiOeVNQzwXDViVK0ZDW+HJuW/9xMVk2Gmn5XtysIsHUQSObtaLPqGDTxLvMiyCJf3L02P1XkITaZZz44wf38QwW0eXJfvSGOIuIv+j8IlX7KGDFxp8u+FCZj5PiZORMivY+27H2Q/VOOdQim6VDFvTPHSewkuedWayHgI7RbTvX7AnDszSD20QWs2JuQ5XtrtleGabXp7cwFn4OWS2yYr5yFaC55CZ5O8NPRfnt1erR76O2Bpv8n0kNMj51LnZ521IqB5OFhffHu5u7m5Kb3vU8SebscINtLYS+du276kE/Uqwz/3cp8AlUWlwWR/qVt2KmOpixXDi6+uaYby0YLXfX1zQc59vb69o62Rbd+ughamtbSb2EqtGBT6fKMVj+L77l69wTAQo+Ge2rmxBDJ2VjVj1QpWHmMK6f9j6uejZKBtwBdXa0te5iKvDCgEeq0jw0KGL8Ab4TJX/rVafVl1EjJYSBMSiTfLNtPDs7GH1xNTqdqcyz85u/HNMOnBFQ9wk8lfJFetH6NDANVNDHbVX1NzoEdPCBKy2d0Qv9pv97BZjzA20tk4s/6/1WEUSjzULRTvFnX6zrnOwrDi2ylK9SBVwbjCOkwQfq3VePNEytjW0/MRyL0q+jC2ERQ5s7ccAH6Mv30LPATAcng+2gGyGaDVdpCqMC30w+rhc5R20WItWr1NxVXQUa3iOdTL7pfwbWFmYfJBmEy+LJ0Qr9gDSkaeY/qAbma2ynMsOWtFtXa/9VLDCAhVrePIOlJJTsyLOVlllhlzWdo1Rim3LNhQwyg/a+TpaHbfVNYXraISuLKvvCTaxfsfmDFqsyDIx6N2YPSJapkHLJ9nvP2joYNZZD62NiPolglXqiiV4tOOtn8ZB1ZqrgRMa6LWw781Pncf830e3yV4+Bb+n1tG6bn4ikqzCZaOP2vs+mf2veQQUqyE4HPQBRteUNVBh0idUu9j9R9/j/L4dKu2MlbZE/qpRLOCkCWjDdXxelhZ1NnTcuXj0OXbfttzMPHz4Y5zdY6uTWnPynYi6ce+WF6MEtGF2H9t8RLEEZjKwnfveL9nbuPNxv3jGu41hjSEGw/6pW8VKQBtOfraNUW4JbzHwmtdzRzufWLPHAtXrM08Cv+U0TrHu5GMM9dJRrAS04eSpwUqU5fCxFBiG37zW2TfH2P0n3mXLkRjXyy1s4FilLgauf5EsVAMWWKEYvBICdugfHGgwC9h8xk+cIkQgWN9t5XeLxr0XNkujWFetYqkpRNKD349b36kL1GFUjMwAYGFcsEYgQpL5bhbce1FUovieINswa62wAJJVDNL+vCaXUivsk3O4QXIQsE7OEa1YUwtuC3sVA3svlEySxjp5NQ1YFhQrxQny5LAHVmvlHw7xaZ91QiM0LYEIaOHWrVaxEiTeT07uWiucqjQZjRVEBb6NovXwn+0BOuMercYQaUAry6JipeCjELs1YJl5GsU6uWbtWEissH7a2pFAcNNxW1jWkLmk1Hiam96xwiKVYp0spI6dAREt9Xnme4WW16Ll09cSn1fBMuOSPAitsUJh5kXh0jx34Cl06LR2OMSwAxGI5sAIYGWVFtV0noI2dKxQzM3w3SZBfrBRzw7VAHeFEovraNHCYsmqxySK9dO2HKsoUqTKUG6ZblVrAOYQ5DIMwzdd4HQqltVIpLnpN61ilcsUqTKSS9aOZ/m0wzANsZT+MT7ebFOnpU7jTWa8VaxqkqLC5uVe+fEselIEK9TnD0OS2ROhxdhaK1eeJTmm2oSDmLviM0XoN+RH5sEqqDNppIeqTK6IX0W0YivXcNWpNYlWKFidiDZ4ueChYZXmKMDPDxSLnBM4fvRPNUu09u+l+Ki8skaxbJJUWZTZ9/A0AQGGyIy5H+gkATuUDVrtxrGBZuXW5VejWNOkinXyI5BSS3OSbCjFCqPtYRtfu+09S2CHsyqCtbSFTfgcrPPY24ubS5X6aNlw2yvzmLRGv9W0nibIODybjmIl4qMkP/yzPTTcfeEezoZkcy+FT2WYNdVK4LRuWsUSqfgoygy3EiAlZUboQYfZTk7O/BIbYcPeAC/DPwDtNZAsIaeDl3TW5IGGJEcCsBLywxXD7XLuHzVj/IxeOrB+udZj/W/Yj7Am537aYWSVKNi7mqAPeXFGSevQKxfBGjzdO/v6exTLj8Dj4J8dOTnQIopGZvcWk9Zh9VkysBr3vjTDjyB0pBnPwtXTQg3N5l5U4Z+b1XVag4M1j4o1T5PcD3LWrEwB0jAaDX5bHrozR1G1hjaUxr2DYqWLoFvFwod1QYA4OPX1g5KY0WjB+tw+0i3yKyrWclr+DsUqRiXmaQYP1hf3IQ0raAbXy8A8aFZGxZp/Sfl85HburyhBsb4Pf+o+hTTsqN3dPWCfJ8kvGz2WnidUrIsWK2zVSNEEtAqrjEbtgsBhZ+1PZvXv8VgvrRXm4FtSNKVfMVfExU/BDgc+DJ9ViArTHoWX7XY6kQNgCSjKbMkM3osRzf55sIaNc2fL38OxHlorVLiALwH3fQZG6mv2Bc3gcqUGTjoE3kCKlZC8d8a6i1xAwJMgWh8LJsMSPFx3wrlwfFjiG3nDUhUJzqdGzrqKBV4lQRrotRQmC5M0uKFFcvfx7t4d7+DBUsu0eayXrmKBB06QX/xlhWBhUkfjhpbB/XvIN4g5S9JLGOXSJVesWQ1Yxf372NWEYA1qhZE3mGXazPuDn4DHf0rw7inyi88cUAqDkpzskA3s3kO+QUz58OshuvI97CEtCtx4keIonI3j0KoQBne0sIeHYT/RLOQb7DjJYHoj583cn0DFSsF9n6sGKyE5E2bw3Myr9IpV50kJaViuAFiNMgihU7TizSZGxBFfy5W22eDaGwipG6fp6I2yiMsVCp2PkkSFJ881jtD4CS3G8BG2Q9+R19wrVlXppLwhLlcA2gD3/3sC2rCYMOHCoKSWruDZ49CkMdYpxrxUCXlDZ6w7zyqXIk4AxcpiNc8ZJzgb2mXNKv+Ujbx2iVpzvFzEiaOi1DZP4d0XE6lMeC6nsE6B2Q9tKTGRNXaFTtdj1G7tKKwcjZK80/NU5BEr5EFu8N6W2dS/PJYpfod7Rz6aZPDvZHHKWGzy9PmTwaufMZG1VCIpe28GSg0bpWmCfp7rTDRgsakefJQmJrIw0ilSNmT9r6tYKbz766lk7SSNqDH1MDBrjLxhytOSrOvo3jHnl2Q+63Tu8gYrGv4TZuDDPfAGOxZprfClo1hJwoTniTTtoKSwc3izga1wUQelLeG1E1rhedwXIE0a7z6bzHVHsUSVD2+Fwb27iUtrhas2gk7Tq3o9ZiLrgLWEuzPwWRjcu6iWRVIrvIy8IbNpFOvkrhaywxuySgw+r/xc+rN2XBqXsjm5q1hpWgqf1KjsuPc53J2hm2KXVhc4Yz9m0g1cte3KIvKG3KWhDScnX5XlrWKxanj3/jr1y/3rnEmbsAIWR+Bxf1Wi4tGTLdttFMXUFsIO7d7x/HAim2BHQLpO7oaQljpZdnFlqq5i4VrgYcPPxRgZr9HLKUs0hOAlENLCgVdJlba+zmXXYxXCPA7rGymvaDSfZGk6xYM0ilWV84FvdyuLaWOFQlaFEAeu+j/49SdSwx0Q8zFLM4MQJCqWzfg0GT3pbKPAgbZCDTy7+jy1aIRsUsvhe+M6gpEOPq2wKkYsGT15bUIdkZWoWMPe/MUE3bsR9WmeoDeulZ8+KY67FdLwUZK7rmJBVDX0UTg16LHceMKG743ryIvHCncrDL1cqpXOHHxezsdmYNe4mGQan5TOJmOVZF4jCITQmOQtGEuzZshLOwev53pcD/1Gz3OnhdNFeTpPCtZLSM1UyZZEoNzEFGlR8uLDuyl3CXgs9LuFmE4qlZA5hNxMwVVKj/UqW8USw7fjPS+tP8/HpyVLCFZQLFGn9FjNBK4uKjl8meIVjkI60OUkKVhBsUZ5UsVqJ3DdfPj9mrMJKhYeUtnkNE9ohquOYqVLAcURLa9YQ0dUP0mx8FPkAaw0Dj4k/UZlUsVqJ3DdvBh8idViPA9LFkXUrJth3yFIUCxdJ62zNe69qNnw+xyv55mgJrxCcPBZSnL5NQWDj4pVqaRdcs2CBQuKNfjSgLsKO2Gpr56NCSxepgCrUaw0j28Jsoj55GKqEiwKfWRN17CZT0o0wzxBAnNhgmKxpKWj0NlC29HE/4ZOCMxwtVsQV9YsFVhXQbGmKjPpktazWnQUa/D3md0b7Q9DsEV8+DFmHYYHK5Qp4Ci0ecJh/mfWKlaKpQFPBp+sS29Bz19kTCbIKgfFEtOisAkJ6bJJzYC9JEhhrvxDEcJD0mkJyfA8KyhWUWYJHr7YymuoQ9PavRT9hBeStbvY8eF4PEFu/DYo1lwn2j7rpeEN85wPncby8iQZax+TziT/2FPT9klcAV2W4LbSufc4oiXYfDwZfg00ysW9jM+SR7BSKNZFiKcwyZtweKpZCTM34+2P0fq83PLOI4dlitLOKiqWTtlysvgqgmJNR8OPnkQ5e4qPg2PyMQFW5z5dpuGIEsPvbmikXQmTdO3e4naV0Q6z7C7Fm6wCx8qx8SsZyYqt1kKm3ecIcnl2e/Vt0LVo7Usbr1hLk7T9MvTiYe9a2uG/pHIXPBZEIAmtcDbvKFbK4b+k4glpoccZRArpVh+ESEeQYqWcDkkpsxs4AkUxKueKuXSNX80yCl6nIe+/RV5zr1iVVMwOsbx8x9v4gQqBR2HSqdKkMjFUk8yX+NztdI1fv3zfIq3dS7nmJKm8TjWOwOtxiY8TT1azf/WPPkHFSpDH+l3yjA/ZMKN8TA90T3ai/wrFbtxAm3LNSVJ5xXDQaj2uEawEWUUvizhoj3mslOPKSeUU57FskU0oQkgWsP2yrWIlbDlJK684CWIKsZyQFaZyJrhHhcDC55KkjXTSyQwVS7vCTOAsZB9+ju+b8uxLR0LNjUk5HJJUXrGvGnhPflrTVtVExHo2jYrFs/JvjXRmE4ntOYWeTnJ6ikQib/IcHwq+LEzCOltaeV0SVoVZjv2jXNIkSWfLoFhTWSTdxp5SFqe5r99mE4gLAawUxdsTXLvnwXLLxBO4KeV57AgsUZ8uaSF7opbxZRhEwLHxhG0USeXyNNcElpsDWOjg02hWjHQ0gJZ0AjelYKeq3267RLBA0oAVI52y+nutEBsKQ3PO+HROYGUpnO8iEFI9Rhb/l5KsX0snemAlGWMMvKEoEbTvCd7gN8j5MoutTGCGAawU+9fmUbHU8GPjv0uuqma1Jjj4dGA9+6WtRY55M/GXxtAr1fTI6Xpc+yduDB8bzsY6lEOqtD0nSeWGNWAJXnFDDH54sF59IqvIxgxi6L811FkZXLjnAdPWKOoPGN4MbyxujCzEsmJKp4o9k8uVahoKtXPUKMeGPw0XU03rNc1USeaS5RZTy7lsGwqpozBJVvmZ2LsW8xrN/K+tgM2e2oZC6pQDlzX4TNBijFk/U8iJTDvanVpueWgoVOExnzIbnF4/V5gDcmKOM6Uy4U6Y5LLCZ5qx0FCoUnTJLcZSjGhaOQfFkn8pIyW5fOJtQyF499XgCYHnKcTQzokpjcGnSlr/Hrm8y5oGTHBYg3v3xSQjj6Umc5bgSU2/W85WGafnovKnFJHO1Apcn1ydVizpNorfJee3V3eru6uzBJmsyzEnxXLL00wm3UbxD8ivqSmE1mCFE5ZmLuTfkcsx1tlcUeRYwT2CtVdiclHUk1oleuLxvyKXuLjDpxb95o4jWLvl19x5sNjktMLI8wjWTvmJq4b88+uOYL0htF/BZxZLAMsglzs6+B1yPQ6KRWCVR7D2yGw6jXU2MkNKWqdZ3fH3y3XFY4Yf15x4sJKs7vgHZJU3dTYhxxMPVpLVHf+APLW7KISaj3P0Wbz8Wzu6E8sN0+3mjrz0OwOOYG2XJ+N0LLTR5g7Jpfz7UzRpZKWsbetslupsx9Nwh1yz7uYO2q9wZPC7ZPbYr7NxPnzt6F+RK9mpszEqSh4J/C6ZPXHW3dwh+cCLuf8pOV+vs8mBF3P/Y3LxxFu4kqzu+Jdkdvvky2zgr1ZHG3xLZmdXN4/549Pd2ZGOHiSzxeyI1FGOcpSjHOUoRznKUY5ylKMc5ShHOcpRjnKUoxzln5X/AyozUj8LLI4TAAAAAElFTkSuQmCC;opacity=50;flipH=1;" parent="1" vertex="1">
                    <mxGeometry x="240" y="70" width="300" height="300" as="geometry"/>
                </mxCell>
                <mxCell id="4" value="" style="endArrow=classic;html=1;strokeColor=#FF0000;strokeWidth=4;startArrow=oval;startFill=1;" parent="1" edge="1">
                    <mxGeometry width="50" height="50" relative="1" as="geometry">
                        <mxPoint x="408" y="141" as="sourcePoint"/>
                        <mxPoint x="575" y="209" as="targetPoint"/>
                    </mxGeometry>
                </mxCell>
                <mxCell id="5" value="" style="endArrow=classic;html=1;strokeColor=#0000FF;strokeWidth=4;startArrow=oval;startFill=1;" parent="1" edge="1">
                    <mxGeometry width="50" height="50" relative="1" as="geometry">
                        <mxPoint x="408" y="141" as="sourcePoint"/>
                        <mxPoint x="485" y="109" as="targetPoint"/>
                    </mxGeometry>
                </mxCell>
                <mxCell id="7" value="" style="shape=image;verticalLabelPosition=bottom;labelBackgroundColor=#ffffff;verticalAlign=top;aspect=fixed;imageAspect=0;image=data:image/png,UklGRogcAABXRUJQVlA4THscAAAv/8F/EFUKgrZts/HH/d3dDyAiFLhto3Q7pkHvE9WvpUQSC8XSuWfOTJaYn2LNfULtrEBwweI0VxnucaDmFfoXdEecERQDnRQwC9KJtKzozD+I+6m7R/hfTMQVN53gGzwRqgRK/zqW9m3bliJJtm1VETXzCE/mXMzM9DSf8/8/ijxtDhEdIouHWoSBtG3iX/O/UqAAAHUSrbtHjW4cs2eLhGyYu6O7wXnY8XS2A2sGzcWsuyMMUhh1N8EiT85rGjyLGqw7/pfEtpEkSUjovRWK2ltzdPVPgiTJcRuB/3/2XghiusbYSyhEBIGkTf9q51nOGwiJbRtJEhb8Ltz23ts91/OHQ/1wyPq1c3Wvszy2mr3O8n/+cR9bzV5neWw1e53lsdXsdZbHVrPXWf7fP87cNHudZW6avc4yN81eZ7nbf+7B/3p8/D/v8P/97w5BQsUB72IF7CfhcNh1k3iTdMe723m3o2HDZgXehQNUkP+5BXTjf8e9ST4cOgi7MqpoZ5ApVIBvnAb86bxxFR+KQdqpovjo0uHQTdJL3NeY76D/8whInGEThwAxUqawvnWLvcVvdS3IGaIWEXw4sMD+Zw4QMEngGi1MY33sFou8FiwfaOEa8e9b8XeP+08XX+XwIvRwAjE96B67xUZdS2PuDXd1COHBWNSO1qMSeMM65HXVzdRjt9gM18IMEgQEgdqb8w4hEIQAydjch1ilLGjpQQQP6n9OukNw7KaMP7E+dotVzFLNn135He8PRv5PRneIN3xq0Tx2i1XO0hiQIoC9Bm4DtYGFg4jhx26xhCxMIyYO0vZzoJFDJ8bHbrGcLBjoIBvqxvN19ocsJJgeu8XSsmClh6Ofx9hyfi/KXVRX3xgfu8UyszTGrvUm++vom817qJvErrkxPHaLnflaMNBALKh9Bn9Ezfxjt9j5rwU5YlZsMaCJQwrQgAnxi8MQfHC72x3CRITssVssk2tBiZjVG9sdgiSNgcdusXyupRm4yfyr4fe0O4TIUT4C5siPV9LMdgUHap4cTHgiQgH4EHldCxpK8djL9oA1VGIBzJUfDzYkbNpH2MPLx26xDK+FbnbvIXAYBEyXtw4D8PYPgugGzJdfOfTe7dg72IwE8CFos3S9L8Jz46JpVlILuAB+OkhZv2fd4XssngGsAsDrSSN++9Udfp19dwsj4DL46WCmFPJedYf/8Zib7GYecB384rDIUeA5cZm8xO391YAL4a3DMDt2iU/y6aobcCX8ykHyyn+H+N2Rj241xnVxNWBjONz4g5G3h7vtzWgDrowfTzMFZ284ULp7DbA6LkAAKqFvDPCazw24Pn48zJK+K8CgvgHXxy9/TNx2pDsESjpLC+StOpGjwLajO8SVbsAV8uZBistmdIdEs7hargvFrdQsfsVnAI5SwIfoL0tX/X20bWgPWM/4mrmuZrq1ZQ8AjgDzqrkAsSCsDQB3XgGumx8PfXgvH3goTr/+m0Qy4bMfwQcuI+IWD2imhxFkAOdzgJxdawcY+QDn/9n/a1r+ZNDPcn5txYvQm6yjyzykm/dYzuMAG5eAnpubDSrtGfzi/7AXEHgRxjd8Ty/qczhAAmXZ3SGrmErh9/7f0hVQvInkYlffTM7vgIlmxaK7Q5LRpYAhrj7P9SYSET0Y53bQGG5yVtwdgqQMMAcMcwWOEM7Tjm5mB13p3zz2tNxY2PEmCwx1BYYIihiZ1wEvoS8WfBhNA8P94Qm/q2tUkzpgkoClQhCLeeAIf38y4r2Y7jHqKR2wwJaFQiz6RHCQPzDwqEQ9oQOMJC8TzgJkguP8gSeBRkzz/RMUp9cICL4HTAXX/tkMPv9M54UHIBcIBNqSwdWdwkbc6Cbzwq8H8vK6Q+x5lw2u7/TLnA4ne6NzeWl+/yLG4rpDnPg7HazQ6W8OBQfJVF56I5/mubTuEHcm8sEinbKaSswz1UiN97k4WfBiOiEs0ykMhCjm8cIH/JbVHrCc2Yx4FOoZMpdQTuOFGViLgrXIUsJSPUNEgHIWL8jZuCTYijInLNbz55yObjW6SbygZOuKQJsUluv5s9y7CoxzeEHDluXAauRZYcGecaUSYAovKFl3Fm7Me2MxLYaSPRPCH1N4QdawltId4stMXlizZ2CkMzeDl2b+tRUL6Q5x431iWHVWCAgxTuCl+fhxfsvoDnFmMjOsOytM3kzgpRnvnM7ATYAd/6aGhWf9k0EPeRMEavwDfQlA4l1uWHrWT3h1kvFeGIK4AEDyS3JYfFZ4fB7uhQ4Q6VPcyw6rzwqNquFe+D59OJce1u+eWJZGe+FU8hCPLT1M+KWbl4O9AJCcOgRhyA8Dui+gHMU01hUGtiTeHeLDQoJY2JuHdYyNdcXia8y0u0PsmMgQI1Tdw3ePxrpqxr7MKenuECRvUsQ5JbMcjjfmoa66V1N/VPLMyinPEVNc10shzAx1RVHK7QHJSfKI8Szs6R7qivSEYSW6JDFHFQhEI12hZ026QGUqS4zxs0MGpoGuGIeSLMBoSxOjVLEV2UBXSIDl2h1SkCdmqcKX8YGuuDirl0n1shdbngxhqqDTM87VB3Yn2h3iiSJRTFN1h+uejXPFEm5pdofA6ckU49TzPx7TlY1zxct/e3SW3SGXUsU55bMcnRvn6nB+Si8z6mUd5lQx0bM4CDDKVWN5V1CKgGcsV4xUBR/bKFfNxA0xQYofk8VMVSRhGeUKcYIQnS2GqoKHYZQr4tIDV+TZYqoq9mAa5IpFnJMDWMJfPjJWFTFYBrniV6CpUeTli7mqSMU2yBW5qXWHOKPIF4NVHfYN+iL7KHHJrDukKWGclHMy2iBX1CXWHRKfMUa7ri5/kCui5nIwlcoDrZnLGLM9i+Ixrvjy9eyyag+6n1LmEa6A0TDGVSdOijtuA6SM4arA0jfEVQO8FJESvztyM5kzJvvx4pwh/pqxF5iMwrOjW0ljvFMwkQ/xR35CfCQg7W8XKV8VwRhH+EOP5zwO6lTZNWfNAKCKjCH+eJJOd/hSRNpIoIryIf4+JNMd/tNje3+njQjqL4br3ozwxztguXSHh0N5I4Ln9VluzecR/siexUGVRwnZyPJGBtf10jZMA/wxDzkRrq40cYTwLI6M8MfNRHiPhTlxpFBFzQB/GBufNHjyLHPEUBAYH+Cvq0+Dhg2QOWKogo0p3l8DvG9DEhSdqSOHKs4P8NdJkoAtuSOAN5vdAf6ajTl0h3TnjiCqcGUp3h+dKXSHbEseSVQRO8AfwRl0h7xJHlFUdTXx/uieYN7x2tiRPbJ4fpVjMxfvj7DztwcMZM+DxXXdpMb7o/f0sCd9hHE9aYn3R8TZyyNepY80CmcU4f6QnhzW5Y80qjgY74815+4OeZI/4ihgvAn3R9XoeQdrwwNL/gw4qmBiivaH+eO8z9wdUrwA5FFFYbi/o8ITd4eQUC0AgRQkZqP9Nepvsj9vd4hgBQikiv3h/g6nx8479gvL8HEFSKSAMRTtj08gT0qRtgQkUkVYuD9STkoxuAREUs+uKdoffSeFlWtAJtdHAhpjtD+Wn5KifA3I5Lq676L9UXJKwCJfA0J5dgx0wf5YAnNCirRFIJQqCqP9kXTG7pDXi0AqhR3qYH90n7A7JABgEUilihvB/gDwO193SOEqEEtBQRHsD9G4edc98/dmYRWIpYr8YH/M/cVwZ2sPbpKWwYNLQUUT7O9e/NnSk655GcilipJgf13DyfguemNYBjL5ZdQT66/RfTfqucKzm6x1IJgqHgc7JfFc3WHXug4kUy82BjuladS8q25nqDGug4HM8+pexjrFCPlM3eEhdyGI5rqLDHZK6pm6Q9oXgpWVeETTjMQ6RXKi7vBAxbQQRPMsTsQ6xQxtzLxropK7EmRT0DHGOiXzNBSdK0E2VTyOdUrbaQCPcSUIpwiPdYoB3EkoeEtBOAWUiVin7DwJxbdLQThVnI11SulJKCaXgnQKJ8yhThk7CQSsBelU0Rzr9CPLztEdcmwtiKdIjnV6OHKO7pBf1oJ4CjzaUKdd6ym6Q7Do14J4qrqGUKeNdsTXIxygg92LQT7Pm6RYp3DP0B5QthgefK7fi9JoQp1SeIb0hL8Wg3yuq3sS6pS3JwAS1sUgoCeRoU6xQJg/PCNiNQiowKANdcr2+btDClaDgKpoDXXKxfjZ4nXQtRoGQsXBUKd0Tt8dAkezGiRUeIU6RQV89u6wWbscJFTFWKhTVs7eHR6OLQcRFSWhTjkQPlu4jq52OYio2BnqlJrJuZqPy0FEBQZdpFP+n5zPc10PIqqiM9TpFzlPzXW3ez3IqLgQ6vSliKm5DqfXgxP4b4j2cHJqnvy0HmRUvxepMUU67X6cmuLdepDR8+reRjrl7dTdIQgM60FIV1cS6RQ98Jm7Q1gLQkjXTXyoUwJm7g5JXBBCenaOoU6JC54tWAfXFoSQqpiKdEoBkInbAyQL4kGpaIh0StPM6QnTC0JKxeVIp0xMDEisC0JKRXSkU8zA5w3P8F4RUip8Q53iPm93SPiKkFIBQxPplJDY2WJ1kLMiBkpV9Ec6JWPe7pArK0JMxd1Ipwjn7Q6pXhFiKg5HOuWnebtDelaEmApupNPmdexssTr4siLEVPhGOm0+TAtobCtCTPUeqrEFOm2sfz7CpFTjvyTEVM/mU6TTVwGTUncRS0JOV/c60imhk/K8SV4Scrq6qkinxEzKdTi8JOR0dQWRTtk/KddBuCTk9CQz0innZu0Ou7IlIaciNNIpRbN2h1QvCTkVgZFO+XnW7pCOJSGnwiHSKa2hs4WOztslIacCARDolIHQ2UJHZ3pJPDhVIQ90ysSkFOolIahiPNApikkBBbAkBFX0BzoFADlneAZtTQiqkEQ6hTxndwhjTQiq+DHSKQ6Rs0WOjseaGH6ticch0HObszvEf00IqrgZ6fRVwJzdIcvXhKCKgkinr62asztk7ZoQVHE+0un71kfOFjk6m9eEoOogiHT6rqApKULWhKCeh2ORTu/CpqTgrglBXbfyIp3CmZJi75oQ1HWTE+mU3VNSN3FrQlDXrZRIp0RNyfNefORab6W8scIE1zr36dNAlg9Tct1FRo5OeqKcnlzsnrM7vNsVOTr7EuX05IIzZ3d4Fx45OgcT5fTkYtuc3WFrc+TonEiU05OLjZHu35yLtZGjczZRTk8uVke6f3MulkeOzuVEuT25CJySwi9ydK4lij258JmSwiNydAoTxZ5cuE1JwYgcnfuJYk8uHObsDqFFjs6zRLk9uSBHun9zLpAAgaPTkyinJwCfhJj08w6iChyd0UQ5LbmQz/p5B5kKHB1ZopyWXM34rJ93kN8CR8f2efA8OS1pwG4gdB+vzkV75OiZvhNnLbm61kkpqiJHf7U8T6olV1c5KUVx5OgvwvKkWnJ1xZNSR5ciR7/JzJNqycXZSXkeDkWOfnQ5T6olgPAn5bpJihydB5vfHRI9KddL3MjR6d787pCQWT/v4GuBkaMzvfndIT6zft7Bd9DYAkfHAmLru0OsoKb9usN8jtSB59Z3h3yIdf/uXPSEvh7ere8OeRnr/t25qIrUQd7Wd4f8NC3FlUgdfL/13SHCaSlyInXQu/XdIRnTUmyP1IEa6M53hwTP+3WH8Q7VUTvfHeIe6/7duUBgidRB5MZ3h5iBT/x9BzIdqYOLG98dMjHz9x1Ic+hD0dj47pDGmb/vQK5G6mgmN747JD94Hy/PRUKojs9y3/fu8CZ+Yup9K0J13MTte3f4UYET8/ynxzb6SB0Ubnt32Oj+4zETc129d5E6GNj27rD7bWqu7udIHZjB7Xp32D2cmicnQnUQsuvd4eHE1BScUB2c2/XukLC5X3cIDqE6aN/17hC7yV93CB8idaAFs+fdIdOzv+4QHoXqgLvn3SFV4e5fn4tDoToo2vPukG/C3b8+F2tCdTCy590hKyangKMK1YH3jneH48AmpwppqA7ydrw7pL28Qhiqo2vZ8e6Q8/WfdwjcUB2N5k9G3PDukLD3u39/LohYQ3Xci9nv7hAzuIDnHdz8Gaqje7zf3SGDZ3jdwV15qA7UYLe7O+TOGV538B0vVgcx290dEj5gHwvm+oORG12oDp7udneIFvQJuJ50hOpAB2Gzu0NaTkFxNFYHCZvdHXLgFBT+sTpo3OzuEO9TUMVkqA7MOG11d8joSSgqYnVwaqu7Q4pPQrE3VgeTQHe6O7y35yzPHQY8hlgdhG50d9jo/2Dk0zx3GDpidVCz0d1h13ae5w5DdqyOxvhFzvvcHd5kj3G/Zi4omGJ1HE5uc3fYGAc9f7BFUWmLVdQb/c2hdrk77FpORJEerIg9u9wd3ko7EfV19MYQq4juTe4OG8Mt0qkePMuHYEVs2OPukPpzPXeYm4xgRTza4+6Q+FHuV8317WjoYxVhwWOHu0N04E/23AFpCFZE4Q53hzw523MHJDZYEWrIG9wdEnm25w4IivlgRVza3+6QOZDD9rEuKreDFaGEtr3dITdOR+EPEKyIq7vbHQLgdzqqeBWsCM1nuWxud0jXCSlSw5+O5eZ2hySekALDUrCixvBpnlvbHbII5oRUURatqCvf2u6QolNSrIhWhBGvne0OYZ30uUM3g9GKqN/Y7pDesz536JvMcEWE7mt3SPJZnzv0Xw3ffIhWxJ/Ad7U75BPIoe7XTng4E64I/q52hxwf637thLdIKKMVsQBlT7tDVJCHEvbqWF7c2dPuENGJKdyxRCvCBHNHu0PMuJ6YKh6Fa6P/28E2tDvk51NTsOO1HQ5taHfI6tHul0/Ii3BtjeqTvLezO+SXs7/vIOwa8Kz8t7M7hHP69x2E/nhtxG9md0jP+d93ELjx2pBht5fd4R1n/D4KTMireG1UbWV32OtKgHopdIA2knayO3wRlgDPq+uK14YCj33sDruOFLhebBugjdfAt7E7fNfW+Yh5FTI5u4vdYdecBAUbIF4bFjbuYXfYAO9bnwRVNA7Qxtg9/BZ2h11dHu87HH6YBmjrHu1gd9gYXvkn8r7DcWeEtsPxDewOuxuZvO9wEJkdoK2x3G3fvu6wmbtFmsR9lQnZN0Ilc7jsXndIxjTui8QHxtAIlfSB2rvukN+BpUIVWwFGqKR867pDAIKSoYr6ISrJ2LnukJp0qI/yawwjVGImfN+6Q/S4p8PzOtwYohI5zG3rDrk4kftCE/7JiM3IEJW8x3HTukNGwaT0vgMTAjBE5ej5/wGaGTaCknrfgbk3RmXX+k+P3bHukIqs3ndgKMyMUdmVbVh3yCdIU+2jVnxiBqns8verO+TrtKiicZBKTu9Wd8iTxCgYyMeoBCBvr7pDlLm987jsH6QSgJyt6g7JTo0CinSQXizEbFR3SCfQ1KjChcVBejGxZ5u6QxZgJEfVTewovZiI3aXukK/mc19w1u7hKL1Yydqj7pDvJnRfcNbfHbUZHaUX4HB8h7pDhsFN6L7irA0b0yi9DXA4vT/dIWbWz+i+5KycH6e3u7U93SGnpnRfclbgvBqnl2Jge9Md0gUsSapwRz5OL43gdqY7RIZLmlTBxTpO7wiO+9IdYmNnolRxaaBepmFuS3fImVQpoDQMVI6csE3pDmkGOqv7srNCYWKgckxkbEl3yCikad3XnbVZ0WhHKkf8p8PvR3eIBta87gvPepM6VHnX+2keu9EdAhA/sfvKs3alQ5U3C3cRm9Edcmtq94UP6S+G4+VQ5Zg5shXdIV0gUuZZ0Bkbq5waCPvQHTICNWmq8GJ+rHLes3UXukNk+KZNFevRjVWOBSHwLegO0bM5caqIxTZ4DfTjvQHdITaiU6cKweg1oCJ1/d0hJ5Knih+Gr6Gr+SrHxXeHVMx/b5RXwGkZvoZm/iZ76d0h7SDm/6WhvKobYvP7+DXQguu6u0MGIZzgd4b66vlFjN6/49eAFgGwRXeH/A39BJwA1/VZbs34BGugB+aSu0NGcTwDJ8H17LnyfoI1YEaM3Xq7Qz7isQyq8OXLDGtgiaPAF9sdMkfAQqj6wNwUq2GYnUvtDpHBWgpVrEI+x2q61o8ErLM7RAl7MVSxBc0cq2mM3bed8yK7QzRsPg03RhXrWZpkNZgQw1hhd4iCLefBHFWsYWGW1aClFMfldYcsseFEGKSqYTUz06wGFUKoa+sO+ULgmTBJPT/Ov5ma6PdlxPgvrDvkf3xPxY1yXZ/k04xPtC5sSF7atqrukFHcFsb17Bz5a6p1db03Sf8wzIq6Q/7DeWlUQWdornUxwnHsltMdMghtcVRBQDLZujBRCwfoUrpDOiEtjyrgVEy3Lj4iwn0d3SF3QayNH984hW26dWGmmWQIS+gOsXECyBqpIhr9hCvE0LXeZH8fLf3uEAMJ57wPIlWxmYUpV9houydEgkm9O2SejSf9ZSBT1Sv/3uikK0SPFAHMtLtDJvA76+8CoZ7Xlzl1r+ZdIWOUsANMxt0hXVDPykl1XX/zWIpnXis6OrlA6O+OnGt3CMBtEKflxHpWkYh27rU21t5wd++Q1Xik2R2iIb5WTBXLGZ9/rUxRz2Wi8QGWX3fIKIGLpgoyLSf5Wc0AdzkEF9/3UIl1hzRBWjZVQLmI7TyrbmzNx+51V9UVkEEIgTiCyKY7xMpZoCvmrcNOlk64auSM04eEnyhCxDUER+cOR27l3eTeJMZDBhfIybnpqnDjxWO/0PeZhS5cT4/xqn5zqMOJxrRuMCMEdn6cE5flnc3N6KphhLUZ7FyEQ3++hKV0zVAJPoedUxw6kcjWCzK+ArITVOGMdLXQCWMzqAJKOosrBQX853ZQVThRuU6Q4AJkO/jFC5rl4xphhhggu0LV17Pryhvb+gBADCktIOp4EdIMrw4mCAOSDEXjer7AkI9+ZaDjIuh0qB+g1IErlQDLAgmeQPKhcPzssIH+NcEQQZURReONf4Rgdj00M/CB50TBeOuAR4hhLTSmrvwWCcgO8Sun8enqG2AdPLu6V/5AMgUky3truvoGWATd83c2/nDITIGpqFlJ7Qronr+z5YdD7Rs/fYQi0uxpel/i/HCo5Hiy+dkhiBeZQ9/djoBdkpx3CFYRETzPGn6FE7HLRLpDuIpYhRhjvmCmlvVAUsTvAVb0aW6HK408V1BTihuQJLnfQFb0XfTDCT7kCTMIoQDJFNCKQJJCX5KvApJkEED2lJ8OyxCxkB0oELOqamOpKtDEIQVIDIbggwOyrbx58EPIx5xgFhG+VVtMVf3FcPfiuoZGn05RxFMiQQLJHtrafi8SPCrR5kFjQEI6RCCVNOcHzLWB+0AtxgxojF3rISu2KcipOySvDQqZtKE/+aOe6dpucoKf9kmW3SFsFrBwEDF0VphCfJP4XfQfDpX/3goLu0ObW3ldfaM6G+iQIoAZu6MFtQdA1yvApZC3WM4CFn7jDhzQQGpBNFAlOIIQIGFpdtDQgwge5B93tB4aqRIYLNIR89+sMEMtR2EDO+d0p4csX2f/IvRWXldOD9qZaEy94a766By8nz1BrQXSSRbg+BNHAU1MYh6ejzBBI/k3Ca9Y//TYx/bRRZa+vHGgwiYOAeLe82aqsYaDnCFqEcGHgzeI4ftIujvsKcufj/DaMkKIZj/nKeJnWulnHMXjoGjGu4GuravqSjjPfqIJwQfkOvcxVW+DlYOACq3xfuX/2qp3Nn24i4DDTuI+FBzCYD8JxLugQZ3vzfJIvDvc6yyfo6ylO9zrLHPT7HWWuWn2OsvcNHud5b9/7tdnmjV3h3ud5WsxzYee8w4//p93+PH/vMMDAA==;" parent="1" vertex="1">
                    <mxGeometry x="386" y="119" width="42" height="42" as="geometry"/>
                </mxCell>
                <mxCell id="13" value="" style="group" parent="1" vertex="1" connectable="0">
                    <mxGeometry x="377" y="59" width="60" height="40" as="geometry"/>
                </mxCell>
                <mxCell id="9" value="" style="curved=1;endArrow=classic;html=1;strokeColor=#00FF00;strokeWidth=4;edgeStyle=orthogonalEdgeStyle;" parent="13" edge="1">
                    <mxGeometry width="50" height="50" relative="1" as="geometry">
                        <mxPoint x="26.66666666666667" y="40" as="sourcePoint"/>
                        <mxPoint x="60" y="6.666666666666668" as="targetPoint"/>
                    </mxGeometry>
                </mxCell>
                <mxCell id="10" value="" style="curved=1;endArrow=none;html=1;strokeColor=#00FF00;strokeWidth=4;edgeStyle=orthogonalEdgeStyle;endFill=0;" parent="13" edge="1">
                    <mxGeometry width="50" height="50" relative="1" as="geometry">
                        <mxPoint x="33.33333333333333" as="sourcePoint"/>
                        <mxPoint y="20" as="targetPoint"/>
                    </mxGeometry>
                </mxCell>
                <mxCell id="12" value="" style="curved=1;endArrow=none;html=1;strokeColor=#00FF00;strokeWidth=4;edgeStyle=orthogonalEdgeStyle;endFill=0;" parent="13" edge="1">
                    <mxGeometry width="50" height="50" relative="1" as="geometry">
                        <mxPoint x="33.33333333333333" y="40" as="sourcePoint"/>
                        <mxPoint y="20" as="targetPoint"/>
                    </mxGeometry>
                </mxCell>
                <mxCell id="18" value="" style="shape=image;verticalLabelPosition=bottom;labelBackgroundColor=#ffffff;verticalAlign=top;aspect=fixed;imageAspect=0;image=data:image/png,iVBORw0KGgoAAAANSUhEUgAAAggAAAIICAYAAAAL/BZjAAAAAXNSR0IArs4c6QAAIABJREFUeF7sfQmYXEd17rk9M5JGu2V5G2m8Sd6xDRgcTAADLxC2EBuzPAhrWAKEBB6YhPAIS4BAAoGATULYNxOzGALEOBAM3p7DYuPdsiXZ8qLFMt61WtJMv++vvn/rzFHVrds9I1kzfdqer9Xdd6v/Vp3zn/+cqluIvxwBR8ARcAQcAUfAETAIFI6II+AIOAKOgCPgCDgCFgEnCN4nHAFHwBFwBBwBR2AXBJwgeKdwBBwBR8ARcAQcAScI3gccAUfAEXAEHAFHII+AKwh5jHwLR8ARcAQcAUeg5xBwgtBzt9wb7Ag4Ao6AI+AI5BFwgpDHyLdwBBwBR8ARcAR6DgEnCD13y73BjoAj4Ag4Ao5AHgEnCHmMfAtHwBFwBBwBR6DnEHCC0HO33BvsCDgCjoAj4AjkEXCCkMfIt3AEHAFHwBFwBHoOAScIPXfLvcGOgCPgCDgCjkAeAScIeYx8C0fAEXAEHAFHoOcQcILQc7fcG+wIOAKOgCPgCOQRcIKQx8i3cAQcAUfAEXAEeg4BJwg9d8u9wY6AI+AIOAKOQB4BJwh5jHwLR8ARcAQcAUeg5xBwgtBzt9wb7Ag4Ao6AI+AI5BFwgpDHyLdwBBwBR8ARcAR6DgEnCD13y73BjoAj4Ag4Ao5AHgEnCHmMfAtHwBFwBBwBR6DnEHCC0HO33BvsCDgCjoAj4AjkEXCCkMfIt3AEHAFHwBFwBHoOAScIPXfLvcGOgCPgCDgCjkAeAScIeYx8C0fAEXAEHAFHoOcQcILQc7fcG+wIOAKOgCPgCOQRcIKQx8i3cAQcAUfAEXAEeg4BJwg9d8u9wY6AI+AIOAKOQB4BJwh5jHwLR8ARcAQcAUeg5xBwgtBzt9wb7Ag4Ao6AI+AI5BFwgpDHyLdwBBwBR8ARcAR6DgEnCD13y73BjoAj4Ag4Ao5AHgEnCHmMfAtHwBFwBBwBR6DnEHCC0HO33BvsCDgCjoAj4AjkEXCCkMfIt3AEHAFHwBFwBHoOAScIPXfLvcGOgCPgCDgCjkAeAScIeYx8C0fAEXAEHAFHoOcQcILQc7fcG+wIOAKOgCPgCOQRcIKQx8i3cAQcAUfAEXAEeg4BJwg9d8u9wY6AI+AIOAKOQB4BJwh5jHwLR8ARcAQcAUeg5xBwgtBzt9wb7Ag4Ao6AI+AI5BFwgpDHyLdwBBwBR8ARcAR6DgEnCD13y73BjoAj4Ag4Ao5AHgEnCHmMfAtHwBFwBBwBR6DnEHCC0HO33BvsCDgCjoAj4AjkEXCCkMfIt3AEHAFHwBFwBHoOAScIPXfLvcGOgCPgCDgCjkAeAScIeYx8C0fAEXAEHAFHoOcQcILQc7fcG+wIOAKOgCPgCOQRcIKQx8i3cAQcAUfAEXAEeg4BJwg9d8u9wY6AI+AIOAKOQB4BJwh5jHwLR8ARcAQcAUeg5xBwgtBzt9wb7Ag4Ao6AI+AI5BFwgpDHyLdwBBwBR8ARcAR6DgEnCD13y73BjoAj4Ag4Ao5AHgEnCHmMfAtHwBFwBBwBR6DnEHCC0HO33BvsCDgCjoAj4AjkEXCCkMfIt3AEHAFHwBFwBHoOAScIPXfLvcGOgCPgCDgCjkAeAScIeYx8C0fAEXAEHAFHoOcQcILQc7fcG+wIOAKOgCPgCOQRcIKQx8i3cAQcAUfAEXAEeg4BJwg9d8u9wY6AI+AIOAKOQB4BJwh5jHwLR8ARcAQcAUeg5xBwgtBzt9wb7Ag4Ao6AI+AI5BFwgpDHyLdwBBwBR8ARcAR6DgEnCD13y73BjoAj4Ag4Ao5AHgEnCHmMfAtHwBFwBBwBR6DnEHCC0HO33BvsCDgCjoAj4AjkEXCCkMfIt3AEHAFHwBFwBHoOAScIPXfLvcGOgCPgCDgCjkAeAScIeYx8C0fAEXAEHAFHoOcQcILQc7fcG+wIOAKOgCPgCOQRcIKQx8i3cAQcAUfAEXAEeg4BJwg9d8u9wY6AI+AIOAKOQB4BJwh5jHwLR8ARcAQcAUeg5xBwgtBzt9wb7Ag4Ao6AI+AI5BFwgpDHyLdwBBwBR8ARcAR6DgEnCD13y73BjoAj4Ag4Ao5AHgEnCHmMfAtHwBFwBBwBR6DnEHCC0HO33BvsCDgCjoAj4AjkEXCCkMfIt3AEHAFHwBFwBHoOAScIPXfLvcGOgCPgCDgCjkAeAScIeYx8C0fAEXAEHAFHoOcQcILQc7fcG+wIOAKOgCPgCOQRcIKQx8i3cAQcAUfAEXAEeg4BJwg9d8u9wY6AI+AIOAKOQB4BJwh5jHwLR8ARcAQcAUeg5xBwgtBzt9wb7Ag4Ao6AI+AI5BFwgpDHyLdwBBwBR8ARcAR6DgEnCD13y73BjoAj4Ag4Ao5AHgEnCHmMfAtHwBFwBBwBR6DnEHCC0HO33BvsCDgCjoAj4AjkEXCCkMfIt3AEHAFHwBFwBHoOAScIPXfLvcGOgCPgCDgCjkAeAScIeYx8C0fAEXAEHAFHoOcQcILQc7fcG+wIOAKOgCPgCOQRcIKQx8i3cAQcAUfAEXAEeg4BJwg9d8u9wY6AI+AIOAKOQB4BJwh5jHyLiUdguojsIyL7iciQiCwUkVEReUhENorI/SJyb/m+RUSaE38JfkRHYK9AADZ4UETmi8i+IrJARGaLyBwR6SvHwVoRubscDw/vFVftF9ETCDhB6Inb/Ig0cqaILBaRY0ujd4iIPF5EnlYUxQxcUVFUd79mM/CC0Waz+SsRuVBElonItSJyk4jseERa5Sd1BLpHoF9EjhKRE0TkGBF5elEUp4hIo+ZYkGazuVVELhKR34jI7SJyn4jcICJrRGRT95fmezoCuyLgBMF7xXgRmCUih5aGb5GIPFlETheRfho9vOf+7EWMjo7CGI75w3d4NZvNHc1m8+Mi8rWSNIy3Db6/I7A7EQAZeEVRFGcWRTGAEzUajV3GBL6LvWJjgWOjHA9hnIjIiIh8X0QuKQnDchG5rVTldmf7/NhTFAEnCFP0xu6mZkEGfZSIHCwiTxGRV4lIUAPwsoSARhDvfX19wSjifWBgoP3H77AvjR4MIv527Ngh27dvD38jIyPhM97xG97L7c8RkQ+IyIrd1GY/rCPQLQJHishHiqJ4Afq3HgP4N/6mTZsm/f39YTxgLGjigP7Nvo4xwPGAvs8/kgdFntvjSF00VAeQaRCHO0Tk+jJd0W27fL8eQcAJQo/c6C6biZAG6gBSA+8pycGYQ5EU0LDR8MHowfjxb3BwUPA3Y8YMmTlzZvvfMIzYRhMEGD8YxIcffjj8bd68WTZt2iQbN24M7/i8detW2bZtmyYKZ4nIh8pcbZfN9d0cgQlBADU1/7coireRGKCfs+/PmjVLZs+eHf44JqZPnx5IAsYN1TaSZIwB9Hf8bdmypf3H7zAO8AcCwX20+kaVwbTsxnK8/FpEVpU1QBPSeD/I1EHACcLUuZcT1RL0iWEROVVEPlkWTu1ybBABGDIYNJIBGju8wwiCCOBPGz/sh5eWTak+kFyAbDCq4vYgDTCCIAn33HOPrF+/Xn73u9/Jgw8+GEgEFQUReb2IQFVAcaO/HIE9iQCKb18qIl8mMQD5nTt3rhxwwAHhb99995U5c+YEUswxRGWADl4rZBwbVBfwGdtxH/R9kAYQZ02eSaC5HdWIMhVhMUEdw9vL2gYoDF4UvCd7zV58LicIe/HN2cOXhgpqFEydLSIoKBzzYiqAZADRECMiEgEYPUZBWh7VBo3pAqYR4Nh1fQJlWJwH/8Y7CAbOQdKBz9gfRGHVqlWyevXqQBRwbBKPkuD8vzIvu4eh9NP1GAJgvU8QkcvQlzFWMA7mzZsnixYtksMPPzwQA/RnKmIgunDs+MzxwfQZxwbGEMcGxx9TdCTQTE1o4o1jgkyTOFB1IGngGNR1DOp+3SkibxGRy0Xknh67j95cg4AThN7uEoh4UED1z6VD3YUUWAcNJ01FgEVVrA9gvQDzpVrujBUp2kItRkv6InTEg2OQLMDg7rfffoGkQElYuXKlrFmzJigMOH+5H2Y7PKvMu3pU1Nt9fXe0nmrbBZitQ0UNqYPFixfL0qVLZeHChSE1gD567733hvQYHDj7ta7bifV7G/krAhzIMJUKjFOMJ6b0QBxIsHFcKnA6ZQfFgQSFNQwGpMtE5C/LQmDUMfirxxBwgtBjNxy1hCJygIi8oSzuiyoFcMTMlSJ6hwGCsSIJYJSiox/t4HWBIuVR/c5ISxMHSxB0HpVRFd9xLFzX0NBQiNJwvXfddZcsX748pB9giGEUy9f7RORjnnbovc6+G1uMtQveISIfxDngjJFaO/DAAwMxOOigg0IUD3Vr3bp1Qf5H302NBTvNkQRCEwT+246FWKEir4kpQJJ6FkXiOjB2MU42bNjQJi5Mc0RwQzv/VUTu8hTEbuxVe9mhnSDsZTdkN14OZhs8upwGdaA+j86XwsghAoLzhdGDwUAEBEMCqRJGT1dMU0WIGb6q78ZDELQUi3MwYjv44INDRHXHHXfIihUrQgoC16tUCKRQUJTVmi/pL0egcwRQuHtS2Y9Cf4PThaIFYnDIIa3s3J133hn6IZwvxouewWDHBUmyvpROCUKMNHCcUmkgAQdZgPKGAADvIBEYUxjjUODwrguADURYsOk0EblKRFxV6Lz/TKo9nCBMqtvV1cXOFZH3ltFO+wA0SqyuZn6fxgKkAFEPSIHO7eu8qHbyjwRB0EQBBnj+/Ply2GGHBUUBRg5ph9tvvz3UJyg1AXUJzy1XbfS0Q1ddqid3gq3E6oY/Kqf4BqePAsRDDz00kAOQa6S5brvtNrn//vtDnyP5fqQIglYgqDTougaMfxYV4x3XifGu6xeoKkQKHDFz6G9F5MGe7BE90GgnCFPzJiPKQSiDFQixnPEYYsD515xuiAgIg5/5SRYz6XynPYY2MiQKnZCEiVAQ9JoIJAAwePvvv38w2AsWLJD77rtPbrrppiDzol0q1/puEcFiS9unZhfwVk0gAljcCFX+H8Ux0c8ReSO9deSRRwb1APUFIKSoNUD0jZdd90CvB2LTbeNNMaQUhBhBsLhwLMIOsPAY7/gebdHqIchChChgFgSmQmNRJlfnJrDjPdKHcoLwSN+BiT0/iMFflNMT2/eWzlwXHEJmxPfMQ8J5UilIFCztoj7sLQqCXjSGciqiIRSKHXHEEaE+AXIvDDgMuTFynxIRkAV/5sPE9sXJfjQ+IwGLcJ1JeR5jCMQT/QopLZBq9Cv0L0TdcJ50/pOFIMQCCCoLGEf4N9rFdRjwzjFkyAIUOWCFomcnCpN9BJQFa1OgGT3fhGnleuyHI8AhGnrKFSICSohwolx8hbnGHCmYDAqCjqJoqJF2WLJkSTDmaCtqE5B2QPpEpR3QPFQ0tqsae75HOQAYR3h2QnjB6WP9guHh4UAOMJ7Qj2655RZ54IEH2ukErQxMRoKgbzvbwpoFvKNNGDecOsnVTQ1RADnAegp4DouvRzKJx5IrCJP35uHenYjlU4uiQG50TITP+dIwZIgAqBZwdcKKauUsInrmQW62Qur3VIqBRY+4iNQsBp1a4KIydg45yQKOA8OGqnLKwZwWydkOOA+mTOJ7Ta5yQFhZ2G6f+z11/G73m6jz59qd+j2xCE9Hh+v2GHX2q7MN+x0WNUL/wL1AKg6fkbZCP4EKhdkySFthPOEVS7N1QxB0cSKvRS8qZlMJVTMb9OwGO12yo5tSEiQqkJwRgWOCdFepj81mc4OI/C8RucJnP3SK+iO/vROER/4edHoFiGz+rCgKrPE+j8aJTls/6wD/5iDGQDYLCXV63jHOM1WDUKceQe+r10JgW3giW8mtF1ciMcgRBJIMYIEIEAVlUBRg5K699lq5/vrrQ1EjokDOT9cOOvdv/m7fO3HWlhDECEKdbSx+4yU7dRxqbJuq/fRvdfateyyLN+97rC9Vfcff0FeAOWpYjj32WHn0ox8dxg8VqIceeqitGtj+3GmKIXbfLDlOkeWqKY8TSRB0X+JCUBhDXCad6yzohdBIcMp7+FCz2cRy7Z/x9EPXpneP7+gEYY9D3vUJsajRF4qiOK3RaMy2jpiLonBFNSgEJAWMrrs+s9kxpiDEiIH9Tn+2CgKVA+1otVHUkVInCoJ2FDg21BQsXgOScMUVVwSp+NnPfnaYlgajr6dF6mthm7Uxz/0ec9AxQlFFCFLEIEdIYtdZRVpi12Cdc86hp5y5jYrpOOo46lhEXXVdqe1z3/OauNgQCAKKEL/zne8EJ/j4xz9ebr311l2mztqx0EmKQY8Be2/0VOKYgmCVg5iSwL5vicJE2QEWXfJ5KlAY8CJZsCm/8jo2NptNzAT5U58mOVF3YvcdxwnC7sN2oo48vyiKHxZFcXKj0ZiuK6E1KcD3GIBwcIiEJ0otiDVCG8WYGkAjGSMEWjHQ6Qd9TDo3qyDQCHZLENgWYgiMnvzkJwf5GGspcH18nj+mHlQ5eE0ibFSYc/SxKDJGAnJKQuyaUx0xRgqqOm1OUYgRAUsGqj534vhTJIPXrx2s3jZGFPTvdGroG6jeByn4zW9+014ozNStjFkm3M7iqUoxWIIcI0vWwbP/azJQ9Z0mFnq7iTJMmgBTVeBKjviMc6aWkR4dHX242Wxe0Ww2ny8imAXhr70QAScIe+FNKS9puCiKHzUajUc1Go0+PpuApIBLq8LQ6Ae3cEB2UnTYKQQpghBTBfR3mjikto05RWsox0sQ2F7MYSeOWDcfa0GwXiNGWDRx4HVq5SO1j3b+MYKRIhM5MqLvWx0yESMh2sjbftCJvK+3zRGFKiedIgl6nypFgr/pKbrsP3wnIYgdE/uBHKCIFetnYLxhTQMQb2Bsr68bBSFGDnhsff28TqsgWFJQ9Zm/4Vipacudjv8qwqkf3oYUBIkCU4EsauTMIwgOjUbjhvnz55+2fv16PFXSX3sRAk4Q9qKbUc4qWVoUxbcbjcaJ/f39BQccHBfXV4fRwoAjGaBiYAv1dlfTdKRMB5lSA+ooBnob62R1ZGVlVLsOQiofm3J0WC8BhYmWuFgCZImBdQoxwpQjBXWcf51trIOvUj1SRCRFHLqN6GNkgc4u9x4jD7mo3zp+7QwtOdBkUxMFfQ4tyWMbFCZiGe/Yq1OCEOtrFi97zSklQBMDS6JjxEDjtDtsA4kP20g1gQ+Wwu/abrFeAd/39fU158yZc+1RRx31ygsvvPA6L2jcHXeo82M6Qegcs92xB+7DEUVRfLOvr++xIAbM6/EJiSAFnGKkC4K0YrAnCYJ2mpxCyRkTNsWAbUkkYKR0JEbjqB95GyMJ2mjy0c7jIQgw+nwCZMoRayIUIwE2EsypDinSkFMV9O91t42dK0YQYsfWjjPm0Ot+V8ex22PFnGVqmypVwTrVFFHQ36fazeWIUaNiX50QhNIRttMSvB+6HdhGPy8hpgzxGnQaRY8JTmHGVES9XsGeJgi0WXzCq24XrkWnH2AfgPP8+fObQ0ND15500kmv/+AHP+gzH3aHt+ngmE4QOgBrN2wK/A8piuIrfX19Tx4YGGhgEEGaY4UwBxmZN5+USPbNJynqqn5G0rvhesMgRgEXjSaig5TTquOkrNOC4eA8axgQHRHrKEmrBXahJFscZSNhXDPagJkLVU57qhEES2CYIycGuSmm1slqxx0jDVOFIKAdIJR3343HEIx91SUIuj4hpvJgjRIuXmbPkVNkqrDXdgPPWcCfraOYKDthFQTarhRRYKDAoAFEAuMSRcT7779/c/Hixb8+8cQT33zGGWfguQ++LPpE3agOjuMEoQOwJnjTuUVRfLGvr++0gYGBfi5GAsdLaY4DCAOaxIA5PJ3L45oGE60g4PyYA84CPp2fTzlW6/BjEZA2kHZ7/RmREAyafmlZlUSgU4KAokQ8yIkRWC8oCEzjkBTomhYWbdLZkQjYWg/2OeKuZeypThCA1z777LMLSahDEDS+umYF+GGswylqhW0iCULsvlCtQxEmai24NPR47VuOILDPMeXA9KmuW4C9wUqVIAkgZfPmzRsZHBy8cMmSJa/7wz/8w9VOFMZ7lzrb3wlCZ3hNxNaNRqPxkUaj8caBgYG5IAaIHvCnJXqcSOfrLDHYXQQB1wNCoOc415W1q8hALGoimFWEAcSIkT631w6MikNqoSQrq6IQES8YR3t+K7dPdgXBkgLWsdh3RnhaQaAiRYWKj/mGM+EUWm4Tk+m7JQx7Y4qB14RCVjhUYKH7DvtJahZDLOWG/THGUChrVbLdTRBsagb3mM9h4WOpuzF0nRAEFluzLwILkAOQJRAxPN8Cf8AH+D388MObH3rooa+9+MUvfutxxx3XetiFv3Y7Ak4QdjvEO22JiDyvr6/v7IGBgYM5IDAoQAy4jCkGmTXOlgzQaDNyHo+CQJUA16GvAVfdLTHgfpQO9bGqjpsiDHBKqCTXx2X0qlWEOkWKeoW8qUwQaKy5cBZTV+hr+Dv66KPl5JNPDo8nRsQGw6yX0qV6g1UD8ZyBX//617Js2bKwah7/4Ci5boROa3WTWiCh2JsJAjBFYasuWMwpCPjdpnLQVtwPOEJLjm06TBOtOv+22OeIWuxecXXETtWFTgmCJgl8/DRIGPoj1AMSBGwHQo+C4rVr166977773v6DH/zg264m7H7n5QRhz2Dc12g0Pt/X1/eqGTNmFHDGfLwyc/mcDkSnr98tQdDFPbYGQTvOVNNwLj7JkVORbERUlyBoEqDPFzN0VkXQkZeN1u21w0DoIjGbaqijIMDg4BhwbDFFY6ooCMSSBpgqFcjA6aefLieddFIwwp2+sKrgVVddJd///vfD+gAgCnrNjW7XHrARLa9Lqz+xbaq+m8giRd2XMV6BK1NfVQTBKgocU/geDlArNrrN1qnXqUGw9zK2T4wM5Mgcxgof/Z5LRViCwNSKnpqt127R34MwwSaBICC9ACKPdzxLBSoD+hnSgiCrq1ataq5fv/7fBwYGXn3llVfucKLQ6Uiuv70ThPpYdbMl8AU5WNHf338oJTREa/g3py3SIGjlwBKETlIMNjeM42OwMpWBwWjn79chCDEAUsbLRjuxaL3KuNrICvtj1gGIQkwijakH2knAGEGuhBKhyU+KCOlr4zb6uxi5ie2j9606V11CllN19H3l2vl4quWb3vQmOeWUU4JzG+8LffOXv/yl/Ou//mt4YBEch1YQxkMU9mYFgX0aKgILFnMEQTtN3mPsz1UHLanW6Rqbuqlz3zR+KXXCnsMSktRnFg9jDMbIAtuq1StdqKhrEOy/+fRI2EYQeWAEkgAiC7uFcyPVuHr16kBOV61ahWdl3Llu3bolIuIkoU7n6GIbJwhdgFZzF2CL5yY8Ydq0aZdBMQA7xh/Iga7+1/OuY8qBJgdVRYq2eh8DlVMQSQpiDiYW2afaGJMwY9vGHLwlCTHSoFefYw6d2+HckLz5gBwaOp0Lt0SB2+BhTXj4ji1MnCoEwa43gc/oY895znPk937v98LT99AHYHyhJCA66+QF3BC93XbbbUFi5/Euv/xyufrqq9tpMavs1HU+3G4yEAQ+8pkkgdjbmQroy5ZUAneMSftKFX5aAtHJPUuNN0uwOyUM2B52iI9/Zk2GJs1UD2Iqgi6QZZBEgoD6J6ReoLBQRcB3eIGYYAyjD+IR21gefePGjU+75557Li2f7+AzHbrpIBX7OEGYYEDLw5Ec9Pf39583ODj4XEhlIAdgyHzAiXZw+HcqvVCHIHB/vGMAMtdspfscQbBwxFIF2qlWwdcNScDxaGgpQerjwJDCSHDeNx2SJlmWJFAWRk41ZjRTmMSwswZfO+ZHSkHAeRmp0fiSIDCa05Xi6H8gTEg1YKlpKAypF6K1Sy65RK688spAzhA56md86Puga2L471SaIEUcJgNBwLVjLHPKoCUIWjXQfQLRMJ2dJr26v9Ydf52Yrdg4xHex9IIeRzhHTA2y+4EggDCCMOA3XRyrCT/7JkkB+yTrZFggDVtZTnUMRIErnqLfoQ+uWbMmPGa7fDbGz+6+++7nlSoCHjPtJKGTzpHZ1gnCBIKpyAFwxZNLpk2fPv2qOXPmLAUrRkeHekCZVxMEGgkWHFpSwLoDqyAwesa5MfBYU2CdG516HYKQIgUWqioCECMR2ijZ3+2xtGPTRV7YD84Hj9rVKQQbgXEGCLaHM0TUm5JfJzNBIJniglqcJsvo1ZIlGm+mH7A9nlR42mmnyeGHH96+xZBw8aCi6667Lhh+/TRQbqSNP+8LC9xIJDotXpwsBAF9Bg9zgrPShMCSBRJejH3YAP0iqWc/1qRhIs1SiiBomxBTFawyZ1Medh8cTz8LxqoINq1gCQL6MJRWYKUJAggD7BpsH9KMGMtQEUAQ7rzzzjvWrVv3KBHBc7eZanCSMEEdyAnCBAGpDhPqDjCLCYHG4ODgHfPmzeuDcUDnRz5NEwRtwK2CoEmBJQgsymP0yJymdnZVZEATCBqKKmJgnXuMAMSgjDl+bMdz6d9j/8Z3jDh0UReilrVr14bjWCVG13IAd0R6empaipxY7PZ2BUHfe/Qr9K/DDjtMzjzzzGBE8ThrPGgIhZlIy+CPBBMYoM9wdgP2P/XUU+VZz3qW/OQnP5GLLrqoHRVyDQ7grAsfYbQRST/hCU8IagRSF+973/tCdAe1hiv5aZVB3/tYBDtZCALaoZUp7QzZb0gWEBQgp677d4wc1CXmGsM65is2BmN2gsey2+vgRStDWl2w9xK/sd/guLYWwa6BwL6IfgiCALUFmOGPdQg4JsYyUjtId4Eg3HbbbaO/+93vDt6yZQtWPQNJGHEVoU6vqLeNE4R6OHWyFeoOBkRkEGsdDA4OfgRGFCyYMwfo6LQ8TodvFQKumKgJAiMOEo2cWqBl8LqO3TbYGo2Yg0+BVEUSUr/p68Q2NCiaJMABccqZlkZxbXy4DiIRTI+qas9kVRCYRoCjglGFUoLCQRAqvtBvLrjgAvnxj38ccKC81vNKAAAgAElEQVQUzCV4eQzOR8dnqi9c8wCfeQ9Y04Jahuc+97mhxkEX3OG4f/7nfx6KyTZs2NAmCTpKjhEDOr3JRBBwzVARQFTx4kJieryBRC1atKiSHOSIQe73nHGqoyDUIcMkCly4Ta/mWpWKoG0jUbDkgCkGXagIYk+CgL4G8otrRP9FP0b/gspVphne98ADD5yFMgURwSIVSDX4awIQcIIwASCaQ1A9mN1oNC6dOXPmkSAHTC/AwNLJ0WhWFSZyEOrBmFMGcD2Unu3AH4+xiRkaHK/KAMXgtZFUpyRBV+IjOuaqiFQSSLLgMBFtAN+pRhAYsaI/Ia8NI3rWWWeF99gLzv7cc8+VCy+8MFSDsxKd2PB4VIp06gp4c6okyO7Tn/50ednLXhbUh9gLx3/LW94SDDkiPqQotJOYSgQBzg7jG31Q131Q+Tr44IPHTGfU6lbVWBzPOM2Re9oHkvCYPeE2+E2nTWhPqIBwLQyoU5xynUtF6KmOmiyAILA/20JF1G5hW/QlTLdFagcEAX933XXX7ffee+/JIoJlV6kiTLxl78EjOkGY2JvO2oNBpBf6+vpunjVr1iCMKow4F0XCgLPqgS7w0ioCc7n4rmpAcyDrAqGUQ08Zn5Sz1xClyIA9Zmy73HH4e4ow0Ikxl8nt4YiQm6RhgrGidA4HFWuvPsdkVBBgZJmzhYN64xvfKM985jOzvRnTEj/zmc/I8uXLQxoABpd9i/1L44Xz8PkbS5YskTe/+c1jahVSJ/z5z38ezoNppVx9kOeZSgQBfQfODKQIzp8FyOirhx56aJDW2b9y5KAuKai7nR5PdkwxSEmpj9rWMNiw9RX8TNvF+hOMP6pPHJM4nv43PjOtoGcysFARNpMzGaAkoI8DW/Qh9CkQBPRlKAhr1659eP369UeJCOYwb/Fpj1kzUHsDJwi1oaq1IfBEWIX1fF/W399/FotuWH8AY6ujNMq5miBwcRLIaZTutBPT/+bgZcEYyYeW4q1BqfqcIwkpx8821SUBNEApVGMOnFGNjkBoeCDz0hEBM8i6SD/YArAYCZlsBAHXC+OKfC0M6VFHHSWf+MQnxkBZRdjw22c/+1k5//zzQ4QPg85+pg+CPkSD/exnPzuspVDVr2zf+Ku/+iu54YYbAnmzTxbkfbPvky3FQGKOKXnog1QOQA6osOA7jvNYf8w5/NzvVZZJE4DY2NS/a9KQIwja3vAYTE/BfkGhwh8X09JFxPaeAyeuJquVKqQHDzzwwPZ6CAiwcBz0JxQpsw4B0x0feOCBt2/atOmrIoKpSliK2QsVa7ms6o2cIEwAiOoQqD/AJOc5IvKrgYGBQ7g4EggCBwGdqa07gKGGk8s9J4BRCQt/bI0BByANdo4gaAjqGKMqkqAHf44E5H6vSxJ4zTAYSDlAreGzA2zUMhUIAh03+hSirLPPPju8E3vthIgh+wjbD8P9jne8IzhwRHuxNAxVCizL/M///M9j5u9TAbN9TZ8HsrtONZCITDUFARjDsQFDYAmlhYEA8dHFoXaMWBNUZwzmSEGOqKcCDk0MtOPXKUutKNAWUd3jZ6Yg0M9AQmnXMC7tzBa2l4uZcb0YFCeCIOAP/RvjGufB8TDVmQQB7/fcc8+6DRs2PEZENojIVq9DmBjH5gRhYnAM46qcvYD0AlahWY6nNMKI62WVGVXoymAMIkiUXADIyn6MUhg5amKQunwOulhkX2WA9H5VhixHEvS+qW1TzlpfXx2SwMgH+0E6hxyJPCXJwVRLMWj14MQTT5SPfOQjAUobpWl8dR+Cs/rwhz8cnq8Aw60VBPYX9kH0VxhmzFJ473vf2y5IrDoXHQjO/573vCcsz4z+rVUEG0Xy82RUENhHIYWj7ZzOSOWA6uBEEIOqsVtnTNoxx/scszn6NxIA7B9bzEwTBJuSIHHiculw8HaGi7UXwBKzYqAEohAUn0EckI6AvURtEVdVBEFYv379yP3333+EiNxTphl8NsME+DYnCBMAYnkIYInycaQXPlQUxZthyJla4MOQuIIijDSMMxwZozfL6mnU9XxhPXOBlx4zGjlHnzI0KeccM251DFIuZTFeksDCMODCqBaFS4hUpiJBQHthJFG0hQjrk5/8pKAQjhGbbbONAoE3FIeLL744qC001Pjepg9wLJIRFNk+6UlPkre+9a27kBHd13g+RpKQf//P//k/YYEbOAYuyzwVCQKn5mnlLkcOcmpB7ndG/J0oCnYfTQTYDyxxwOeYWqDrEnTaAf1GE0X2LS7XjDQB/jDThQWOsZkQIAlYCfTII48MBbhQZtCHYDdBELAeAv6Qcti0adPnN2/e/NdlmgGzGTzNME7/5gRhnACq3ZFewNoHSC8sK4piAaft6OWOMdBgKBFRWeepjTnz7DgGSYV2yDbSijWjGxXBGqQYCagiETGDVYck2PNo5SP2myYWxIr1FzBCKF6y8+81RjFlIkbQUt/pexUzphoHG5118pvdlgscIZqC8fzc5z4XmsV0VVV6ATjhQUtYAIkzGVg4qFUprW7h2DgnCC6UmRe84AXywhe+sI2tNeoktTriRO0C7gccAp0BiYwlCpNRQUAbQKAQ6fJesyAxVQNTR8WbONO088mstj/xs+6j/M4WJep7y/vLbfQ6ByQT3Ib7kUDg+MAFfQEkFc5e90cGTMQI70gzvOhFLwpEAcdFX0LNB8gBAgL8+8EHH3xo48aNUBGQZsBsBp/uOM5O5ARhnACWu+v0wtNF5D8wKPSSx3D0LNpJOQwOMq6KpweUdpi85BxJqFIJ6hqolEpAw15HRagL8USQBOKEKAOGQzuiqUAQSDohYz/jGc8IET3VAyv7a+ICo4oFjD70oQ+FKnCQVJID9lP0OxTbQb5lRToXmMJ5QRIQJaP48JhjjhmzkqUmo4wcGXFiNgPWYsB5c8WKk5EgoFgUKg7x5v2I1XXUUe7seKlD2nNjLDZOc+SXjt2+x2oQNEHQ91+rDpo4aKzQD9EfQRSgNHFhr9isF2D94he/ONR5YDsSBKgJZf86Y9u2bf/taYZcj6j3uxOEejjltuLiSDNFZKWILCBBgNFlJGsHJA5Klg0DrImBHkD65ClSEDM8dlttJOz2VWSjiiRUAdPNft2QBO5DI8XPSOFA4o5ho8+j74uNqHJGVBeIaofciUoQO38s0mN6ATUBcNQf+9jHZOnSpe0HJTFatQoP9oPDf+c73xkiLci6fBofHT+O+Ud/9Efy8pe/XM4777ygMrC4jCSB9QhYX+LjH/94KMyzETIx0BEm1AOs7sg0g07/THYFARhgxoIer3oNiRiZT43nOt93M6Z0X4qRZBIA2+dsYaK+t5oEpOoP9HNBbF2CPjbbBEKAIAqOHlOXSShj/QX7PO5xjwsqGgsWURS7adOmDVu3bj1UpRlcRch5r4rfnSCMAzylHjC98Hsi8nN8b52VHXxaLbDEIHZJdYhBjiTUMUB1Iu5OIOvGoNUlCTEnrx0T2gIjAwNiX5OVIMAhof4ATvqcc84JzWKeOyZn06ijKPH6669vR2ecsw9VAPL46aefHiIzvrDy4je+8Y2wPYgWozkur4yplVhWOdZf6HDYx3FMEA9NTvS1ail5MikIIFd8fgX7k14QqoocdDJWrYOvUv9SYzM2pnTNCf9tCXFVmkErAjpFpQmDLWiMEQVNrNE29A0WbkPNguPncumxfoN0GwgzFIiyzuUPduzY8T8qzeC1CJ0YbbWtE4QugTMY4sFMUA9W9/X1YQXF9uIoemBycPChSpoY2MvIGRBtVOsaIuxTpSLEjmOj0Sq4cOxctF4X7okgCbweGBkQhVj0ZIkbP8fUAP2djqZi39vjVqkEnSgIXKsejunf/u3fahEEPI3xS1/6UjvPCyPLugIYV9QUnHHGGbvcGpIE5HsR2SGSQx9mPcIrX/nKsKpiTALXTgIHxgJLK1asCIQDxn+yEwQ4PtwD7WT19D20OTeGq8Zt3XFSdzv20aoxUNW/bcRvFQSrItiUgyYKJJCafMQCCeAJpQt9BooCxjHrWGL9B21Dv96+ffvD27dvP7BUEfgAp7pQ+XZOECasD4Bg4W9hX1/f5UVRLIkZezJtLiUKYsAV13JX0olykDNIOk+cMmA5w5ZTBPY2ksD2IHpFdMHXZFQQYGS5OBJqALA2AV76ATo6okcb8dvb3va2UOWtH0+M46DoEGmFl770pcluiKLG7373u8EwQ0kgucDsHBSOfepTnwpqme5bdDRaQUCKAU+GhLEH2ZjMBAHtw0OxWDzMqDdG2uuSd30DOiHl9sbFyJq1SakxoEmEJgu6jkCn1LQawHSCnsmgSYIlCFpl0uqFHpe6ABZEAf0XRAGKIIoauYR3DPfR0dFvjoyMvLksWISC4CpCztlEfncFoQvQyl2A3WB/f/9vRQTLfIaXlei4nCgfw8vpP52cNkcSquoHUr+lHHkVceBvdUhC7Di5/WKYjFdJoPEBDihkQpGcvk/2nvHz3qggwMgiekfUf/zxx4caBBKE1LoEqBXAOgSMvNAuqhBPfepT5Q1veEO2K37ta18LT3jEMRj9M9VwwgknyF//NWaW7XzpCBHXjNe73/1u+e1vf9smCKzL0f3Epiv051gaouo7XY/B4+TeeS3W4dgxhIJEtJ99MxXNpsZSKkVQhxik9q07dux2KfWL48CmGGzUrx1/TDWwUx9JNnQf0ceMtYP3DThDxQJRRdoBigLSChjTNrWj7uFLR0ZGvlM+5THb132DsQg4QeiuRzQajcbHi6J4W4sT7ISRHZ/T0UAMOFVRy5HWoOrPVUpAzOFXEQRrgOs0txMjlDoeMYlFNHWuIYWPPW5MCdBOX6d78D3Wb+eTHnmOlOqTiqi0UdURVYxUaMKhr8sSydRv+nudFsACSR/96EdDE1gUpx0gvodDf/vb3942otiOT37E/iha1EQx5qD4+6c//emwsBIKHEES8AJZwWwKrMUA0qLbiv30LJy//du/lSuuuCJcExSEyUoQoJrwyYKaUFSNWfazOtvo+63HbidjJkXEY9+n+mGsj9uixapCxRxZ0OqDHkO2/Ro7EjE+FArEAEoCllRHASyIg53aXGL+8MjICAoXUYzkSkIHnckJQgdglemEYxqNxlV45oJ1LOjorC/QikGs0+eiaWtM6hKDuuSCxid2HXUJQpUKoY9bJzLK3QZLBFLHjBEGbexgZEAS9BS0yUIQYHT5bA84+H/4h38IsAELbRiJDZwyVpaEU0eRIRdYWrx4cZjuiDSXJRWWmBE7RG7vf//7w7QyzoIAYUHBJHLxXM1RY81oEcfEiopXXnnlpCYIWKgHREiT1DpOv842mqzWHX+WeORsSixAseNFk+JUOoFBkHXyNs2gC7WxbWpWQx2CwH6u15fgv0FYQTyReoCywHoZ9u0Sp+bo6Oj3ms0m8mlel5AzuOXvThDqARXWOSiK4tyiKF5QEoW2ocBAIDGAfMuVD63jSbHj1CWkSEIVWcgZo9i+1rDUNVA2mrft2NtIAgwRnSmmP8ZWsLRRsI2wtAOkobTfpQiHvv+pyC21Db7XKYbjjjtO/umf/qkNuSUIkF6pHmBBGpyPj4XGjAY4OksOYmqPbhtywH/zN3/Tnq4IAw2pHRXkuBY4UEsQeIFIQ1xzzTXtBzdNNgUBePFR2iTGaH+qj6ei/9TYwvc5B181LnP7agJiSSD7XMxRW8JgSQFVImxnaw7wmXUadpYDixp5PH0NMXtIfJhKs0SBj50GUQBJKKc8tldUVfdj8+jo6BNE5HpXE/LOzwlCPYwWF0UB1WBfPRBJBEAKYCj52FLN1GMRbf6UO7eIOXRtfPi7fdfnyB2jW4JgCU/MgD1SJMFem3ZcuE4YFNQkaMOcIgMx0sDj7ckUA87FIsUjjjgiPE6ZL8qvLOzCcxNuuummEO2jjVC0UJSIWgDMHdfkIKUisB/rNqLY8+/+7u/CrBBEbvgNxAPXA+KBVyynjAWdli1b1l7eebIUKQIbtA8PC9J9uVNyUEUMqgKHHFmvSwxiBCFFZFPjIFaPoB19qh7Bfq9Jhk5DaTKi/61tG/7NPq6n95I48CFtIAogyZoocD/UI4yOjn5KRM4scfG0Q8IpOUFIe2ti8+yiKM4rn9IYjAQVAy6hTOksNuBSzD1lFOooAIxgYkQhFrloqS1FFvYUSdDX16lxq8IyFyFpJ89rQGTNR/Tq+2EVgb2JIKDPQdZHodyXv/zlMb2XRhKG83Wve10wkGgjUwuvec1rwvMU2B9ihXwaR42DJgm/+c1vwhLPmJGAeg6qCF/4whfadQdWzn7ta18bUjtcJW9vJwjECIQMq0sSCz2W9DgkbrnxG9uu27FXpV7EzJq+n/p3fRzetxhJ0I4dv1tyYFUEm1bQCgO3tce0/S9m47SKoOsSWKjIGgWQBRBkrtDIx8Gre/jrZrOJlW83u5oQd4ROENK4AJtXFEXxxfIpjcH48dnlMNQkBoyarJOp47Rip9dGxhqhlGKQcvyWMNjt7LmqDF2aS41d6z2nJEw0SbDyrDW4VSoOjAaqoVNRU9X3NJKWUKQis1j/sFFTahv2MfQ/EISFCxfK17/+9egjmL/1rW/J9773vVC0BWxQt3DyySfLG9/4xtBOPePBkgXdZ606ouVgrKtw6aWXhnPgmDgHV2LkfjwWlAasmYApajDYfORvrC+n+qeNIq3jsMfqZhaDVVKANYoSY9FsHXJQhyywr+SUgqqxV+c32yctQYj1c0uM2QfZD+yURqsMpGoS9P76GLGxwOvUUx7xnSYG/Dcfqa2JMr5Df+NSzlC+NFEQkVuazebjReQBJwm79iQnCHFMAjkQkS8VRdHQigFTCdoIWtZdlyikBnbMaFgDGGPWsW2qCELst/EYrFwklPrdfl/H4GmM2Y4qImB/0+2E00IVdMzR700EAdcCNQDOGLMH3vKWt8gzn/nMMXDBOOLhSCjYQnSP7VEjgBkPiIZ19EVDq52pJggkQDrVQOMOZeJd73pXwI0qAnL0WLyJUxt5rJ/97Gdy1llnhUiOqzLGVC39He9pFYmoIg3jJQhwblitUishKSdehwjYsab7byfkoNuxYgkBP8cw1OPAkgHdJywhiK2BQJVBFyjq7bQKoQmobqe9Rk1qNdllykG/a/KAfsqlnEEU8G8QiNHR0VtF5CRM/HGSMNb6OkHYFQ9ggiWTL2k0Gv0gBPizioEeRNqodksOYgM/pQrkVARrcOqqC9Zo1HXUKeNTZRTtb90aPmtIOiUJxAbTpZC35P3j/dXkL0YgbJSdUgRsBGeJR6zfxPbh45dRNIdCRaxzoF9w3JDzIeXjhfw5Hq6EmQaaHFgja52zbr9uo3YKKPRE3QGcPs+FNAOIiH6BSFx77bXtxW1glPcWgmDJEa4LbYRyAKxjjjTmvKrGTicEoGrMpcZI6vhVYwr7sNAvtVS3du5cz0U/ep79QtcYWHVAFydyO64Fw1kuttBRj6EUkeH123QDPlNJ0CkHrSqAKKDPYrzzKZIjIyM/aTabzyvXS/CahBJ4Jwg7RyRXRZzeaDSuHRgYWKprDKxsGsvVaSOfIgoxZ4oBUSc6qUsMxksQYo69E7LQiZKgr3W8JIHHssepQxqwL9dyTykJewNBYJoLaQY4MTwvQbfv/PPPD6kH1h487WlPC89BQPtoMK1xpbO298KSBI4BTRK+/e1vh0WUYJQhyb/sZS+T5z//+WMcK9ILWMkRSg0f96z7WCyK5e+7U0GwKgMvGjUHUF6Iq72G1HitGnfa0XXTz+21dEsk2A8gu+OeQYlatGhRWNNCF1mzj/ABSijohTNFsAQCyGXiqSjYWQqxGQ0phUH3J0u4bTvtPbMEwRYuxtIO3IaKAogCCPWWLVteMjIy8j0nCWOdYie2fypviwcu9U2fPv3Z06dP/wGnK2q5lIN0vOTARoYa1Jxz18YpRxhix00d3xo9bBczhHWjoclGEugkIZljAZa6JGFPKwg4HyIwphle8YpXhGcp8IWpjSi8hOHENlAYYMwZLVoVISbF27bHiAGNPQzwO97xjnYtApwrll/mC7UQX/3qV8OsB6YXbD75kSAIqQLN/fffP+BFgh9TVuoSAWssUwR2Io1qlcoAxwhiAJKGpaJxr9CXrCTPtuNYVAzwDsyQusJaGCAUJApaEbAKgp7mWJVm0CRB9z9io9ul0wq2P9u2lCmEMf1fKwv4N4gCxvxDDz103V133XWyiGxHmYOnG1rPEfBXCwesCTttv/32+8a0adNOt4qBdurWwac+W0VBD7wq0LUh0cYoRwiqpMbUbxhgevDZc8QMZeyaYu2ZSJJAwlIncqqjJMTuDaNWTI3i2gH63sbIwJ4mCLgeOGfOZsCiRygY5Ov1r399yK3iulCU+JjHPGbM0x611MoosY6CoCNF6wTwlMizzz47RKRwGp///OfbuXtczx133NF+SFNq/QNib/vW7lAQUvUJqKGw6ZEcIe6ULNRVDzolE1XHJTlEsShSU0uWLAl9CI4RfyANeqlijjX2Nb3OC4gBXnjwFiJvpLB0+jU21VH3F5IJvlv1gJ9JElLjnUoI+zD7lVUQOKNB93tuw2Ow7cBh69atT1y5cuWVajGlnk43OEFo9UCoByAHwzNmzLh5zNrJZQ+1rDZHEmIOiMpDp4ysDjFgtK+j/qpBFpMsU8aZ12sdSeq6dPseCZKg22HPn/uMa4cxQcU9n16oiZ0lBI8EQcA5IQfzqYqQ9V/ykpeENAKmMuL64Qj+8R//MdwKW7yVqkWw/TJVe2DlY+yHOgNI0Hh98YtfDJEnHvKEdAfzvFWzF/YUQYhJ1MANUjsUF93XNR6WoMaIQ44s1CEHVX03ZjdyxJk5eZADtBEOHfsgVaCdpz6OthskhugLnMGFfgessMTxypUrw+PCQazQJ1m3oOsXdK2B7TuaIOhaBI65mM3UdihWgxAjCZogxNIO/F1EPnP11Vfj4SLbfMVFVxBCP8RTQkVk+tDQ0Dv6+/vfbwdijhxoMqCNQEx1qCIHsUiehlO/239bh6wjADvYuW3KWKVIgDbgqciT+9rrm4wkAUYG0x+psOg+YB2n/i2Gd+o7TTxifShGQnksGFMYeRh8GOhzzjknfH7Vq14VDDVSDUceeWTbCcQWldFSbczh8VyxKI+GnrIxZGfMlEBECoKAYyP9AXKA1IJ+8l4V4d2dCkKKHAA/1HRUkQN9f3JEIDU+qwiCPWZs29Q9StkUkgPI55gWCweP6X58ngYcPWa4xEiu7pvsB7jX6Fs4DvYFZri/UJCwCBe+02vCaJLAf8eKFkkgqCrY8WRtFnHg/dTpM60KWFXBphY0aeAxms3mw5s2bVq6cuXKe8pUw0iVzZ7qv7mCUKoHIjJneHh4WVEU+8YiqboG3HbmnFSmj2sjlroGSxsTXR9Rh9hUGZcYOSE5sHlATSxiDiBFfmKEpSqK4m91orEY0bNkquozIg0oCWhrSjl4JBQEXDMNLeRd/EE2/uxnPyt/8id/EggDJH9gpCu6dT7W3r8UqYvVH9jokHlmTLuE7IwFnFCXgJUTkaoBOeB1pPqUJqC638f6Up3vUmTAkltEwnzQlMXA9sNuVIM6hLyqn8bOmTsm2wHMmVZAH8G9ITmAs8QLDh/FrvjdElltP3TkzxkNIAToayDSN998cyAJWknQpCBFELRqoNUHa8didkrfSzsTQ5MGEqWUkkbiwD6zY8eOd15//fWfFZGHe11F6HWCwNqDGYsWLXphX1/f2KXpymVj65CD1DZVjizn5FLGwUaWejDZf9c5R1W0Yo2xNuQxeS+V37UDvCoaykVTOVlVOxjbtk4/QxYHSeD9jcnue1pBwLUwqmdUB/UAxYoXX3xxmEnwx3/8x+3CrNi0L030tPJjCRPapkmCzTHrwrMLLrhAvvKVr8ipp54q5513XpsYMLWAvvFIEATdJ/W/4RQhu+tXrL+nnFOdPp1y5rmx3S0x4Png9EAOcL9QW4FIH5X6fFy3vc8ozoQiEOvL+M4qRnz2DEkCHikOdQJkC7haQmD7jU1FsI9ZwpAKsHSf1XZIO3tNEjSBsIWMuiah7KMrrr766lNEZKMqWIx1gyn/nRMEkQERmTU8PPz9oihOjRnIOgQhJQfHelDOaad6nT6HHsgpiVBft5VueQ4abXtNsUhdO2ZtSKsGaExZ0A7ctpXXUYck6PZVGfFOSYE9LqJgvZCSxpvyaEwWtfcrRyJjfcjuY49JgwrZF9Eb0w0stqPxs3nXWB1C7F6QINg0A86rV8rDvjgHaiHgiFAoiXSDkm7bU3ljCgCJg+2nddQC7Sy4vZaf+bv+DnhBXrfKlu13MTIa26bKU+TUs069TJX9YFtBynAPhoeHw/3gszOAwZ++4SR57h8fGU5764qH5Z1vw8w+CUQChEn3ZXyPe3/40gXy5r88Ofy2bVtDPv73vwypBhBT1iRgii0wRdpL1yPE6g7slEerHmhiGiMJul/g3zqdoFMHNq2QSjPofop/b9u27fRly5b9t4jg2eY9O6OhlwkC2o7ixOkHHHDA8dOnT/+lHag6Go8Z97oG35KOTgxCHVJgr5PG1r6nnLUebByMNIzWWLDN1pFr42uZu/7NkoNulQS9X85gxohEbJ8qIoE8LoysjqZtdG2x2t0EgcYb54Gz5syGM888U7D+Ae9/nSJFqyJYwmOLybTRZzsvueSSUBgJGRt4cUGkOsrB7iAIMeUA3wEr5t4tUdZj05LkWF+tivRtv6vaNkZEYnYiRaD1trjfwB+KANoKcos6EKYVsO0XznmC7Ltwhsybs0Te81c/l8svWxUOAVzwp8f59On98tZ3HiMHLRqUomjIRf+9Wf7fJesCOSBJACnAFMgbb7wx7A+CmipORF/SylOsxkV/Z4lzyq6l1APaI12UaVUEkgwSjWaz+b1rr732teVzGvB46Jb81WOvXicIKE4cHLA0szcAACAASURBVB4e/oeiKN5oHXmdiM6ShFhn5nGrHBmPY41STB3QUavdz5IA65zxuzbYVUaLDlA7Iu04LDHR59aDUhMGe3492C3+VeTB7pfCNkckqkiBvW8wsojGbF6emOh7lesXdclDnePgWJyKhmgOMu+rX/1qed7znheuVRs/a0T1PbO2z95rGm1LDnCMH//4x6E4EfhwrXtlbMOhNRFNfdb3S5MWGzHGnAS/Yx/j/noMoE0o2GPf1fvo9k8EObBjM+Zb7Hmq/A+uPUdIsD+UG8j9UA+w+BfSC1AU9OvkU/aRv37vCdLX15CRrYfLy1/yVdmyBX5QAj7oQ7z/p/z+/vKiPzkYD1yRe+/ul7M/cWMgB/yDWgByCpLw/e9/P+xPcpKqPSBJsH1Kk26dbkipCNbmWDUzllrQtsmOB6UkjG7cuPGYW2+99c5yRkNPqgi9ShCoHgzMnDlzwcKFC29CkaJ2CBNJDuoQg5Rx5gDiwOFnayhoFGkMbeENB442mjynPZa+3ljO3eakbeScIgq2kIjGmYQlhkEVSai67pix187WkpHYuS1BwGfK5/Z+WJJQx7Fzm076WmpbGlOu/gkDjVoALLuMQjySBG1AdYStHbAlL7atNPr4HpEqiMFFF13UfpQz89yMWOsQg5ijngiCYPs9nBew0n3fkhLbN2JjrcqR635T5dBz5FVfY86GsC+x9gDbw2FjTQ/co9gY+9sPHicnnbxAZs7YX77y+dvlm9+4ot0sFC6i38ya3S/vef+xMmPmgDSbA/LZs+6Qe+7e2iYHXFERZAHbX3HFFaEYEqkKfJdbF0H/rtMMmijYIIl9RfcZbf+0DbQEIbWyYsJu/uN1112HZ5hv6dVixV4mCLASg0NDQ6/u7+//dIwcWCNf9VlHJHowVw3sVPSqnY3NzVnDZg2+zrHFnIKOrmJG2TqgWLSsmb2NJrm9HbxW5tbRJa8pZnRTUROvsw5JqCIZMRJgDbyNXhCRcSElqjmWSO1pgsDzs2iR6QY4RJCExz/+8W01QfcZTeZiJMn2RZ4H+8EZYFEkOCFErHBEXMJX39M9SRDoCNm/NAlCjj1FDupE5tox1SEIqW067bM5cqB/Z+0Big5Ze2DVA17XPgv65F8+/ziZNashc2YdJy8541y5+27U5bXqDoaGhuTF//sQeerT9xMp+uSqK0fle9+5dQw5IEFgDQza9tOf/lT222+/kGaIKQjaptlVGHVtgiYJegzq9lYpCNr+xeyPtpW6bkGNj9tvv/32x23YsAGgYF0ELJrUUwsn9SpBQO0BixPPL4riCTGCYB19KnrrhBzYY9Do6CicA0PPGdbGxjp+3dE5lU0zZ1uAw0FlJXGeQxtVy+StJMjBHltuVTtxOgxdNKevq8pRdWqMYwa1DknQTj3lLPk9pFtgbRUeex95zCqVYCIUBOvIWZMAI43IbunSpWGWw/HHHx8KyGxkbZ2fVRHYV3D/rrvuurAIElbTQzoBxACESc9WSEX/NvqLRYOWBKe20cRD959YNImIFk7M7pNy+tjOOqK6/dDua8eu/mz7ah3ykNof+/JBRFAAMPsGxC2l0OE4L3jRgfKa1x4iA30z5fLLGvJ3H7iwffijjp4nH/3HJ0qj0S8bN02XD3/gxnbNAbDU5EAXLKJvgCBAwdArJqZmMsS+p93R46tqfOo0kk0zxFIKtgYhlprA+bZv3/6/ly1bdn5ZrIi5oU4Q6g6ESbod0wsz9t9//xNmzJhxuSYHuhPWMdwpZlulDqQGOAeDdsKafMSkM1ulrqe0kTjgfByofCALviOZ0MZckxOcG7/xmeo4P/6tiYtWEHhs/XtMUWCxkB6kWtmoG81V9b+c4a0y0tYQ8Xp0W7ANir+ASUxl0cQg1kesA67b7+r0Sasm8GmkIAuYq/6MZzxDHvvYx4aH9EBpsBG+vRY4/zVr1shvf/vbEB1CQgYp0MTAprRyRCD1u773KZIRc/J0glpB4HjBzA60k+esIqP6/CmVqqrfcf+6/S93jir1IHYOpHdACqAgQNnBTIbc61NnHyNLlwzKvDlHytvedqlcccWasMvHPnaEHH3sQhkd3VfO+fqDcsMN9wVyyeJErodAssAFlPAALxAE4G6LEbVCoGfBaFVBq3KWgMfIF20HrlnbSAZSOoCyKQeSB6sgKIXz/Ouuu+7lvVqs2IsKAtoM9WBw8eLFZxVF8Yqccc4Z+BTB6OR7nMPm4/AdDY5muJoEcB11fKe/54CjA4DhgKHXObiYAdYOSMuDNAw4Hh/4wghaz5Hmw130NDgbBWhGb+foa/VCG7aqqKwuUagiHjFDbI23jtJ5b6Ak4Jp1xGNVhFz/qeP0NeHI9Vf+Ttx5Txjl0aDD0B966KFBXUDECYOO3xCFQp7GUrq33HKLrFq1KnyH/sN39AGmE3T01i0x0M6b9zNHEEgGtMO3BAG1GPr5Clo5sf3LksZOiGqMWOh2xProeMiB7gOaMJEgILUEAot7lnstXTpDPvGJo2TatD65797D5JWv+p6ceuo8OfMdi6UpfXLDDfvK5z53Z3sVRSoHXFVREwRgDYKA86M/6aBBB0BWNYgpDTHiHRun9v7bPqBJQNXTHfV2KkXV3Lx58zGrVq1CsSLA7KlixV4jCFQPps2cOXOfBQsWLC+KYpbudDay68R460FblxxwEFhyYKMdHW3TMJMU8B0dHAMNlezMRVrpN2csUr9rZYFrskNCxPHxx3PTGdEwxAwE26bVDw5csn7tHLShTUVUVQQiZ4itY8gRDho6toMkQROhGEnQ/SOWlqrT1+pso/se7xsJKO8PaxV0akgTGSpHVI3YxzQh1arPeIlBjiDY8aDPp0mlJisgB1QOsH1dctDpGEmlBTohGPacVcpBqq+jfSAISPtAKcK03FT9gT3fW95ykDzvOQtk5uAi+fwX1sgfPmOrLNxvumzbMVPe9OaVMmPGvkE5wHgmMeC/+T0fBf2tb32rrSDoR0jbtQ9yBYxV6TtL7mIkwSoI/GxtTSwdS9Wh3Oczy5Yte3cvFiv2IkFgceKf9fX1fUwb7ZjxzUV/1hjHBrod7PxsUwnW8VjZi1K/Ntb8N5w2cs2ssqchH4+RqjKUuFY4Fz4PAOfH/HcSBRgGOiEaCb1OOyNwsnZer53pYK+/igjkSEJdLFJRiu4flEGJkSYJKQXBkk/b9+o4f7tNFRGNnS8WxelITZMxrVrp6EobY42pjmS1A9fHzBGJ2DFSx9VpBV6TTiugb+p9GRXa6+mUEFTtX4eM1lHDbB+sUih4PWg7yDrGIaYpopgW9qHu65yvHSEL923ItIG5sm37g+ERNV/9xjb51rdXBcKBtAVJgSUKek0ErKLJqZKwC6nUqVa4UrMZrIqAtmhyHSOKmiTaFAI/62XHq9IOJQm+A8WKGzdu3NBrxYq9RhDaxYmLFy8OxYkTpR7EnIomF9aQW3JAh0NDYPNmmhxQ3sU7BioiefvEvLpGYbzbMTKFgUDEhnfkqPE9jYgmCjonSZLAaNWmSWLphrpSblUEVrfN+hj2vGy3dsKI2Jh2sSTBKgYpMlpFWHNkVv8e25bfpYgDf2dbrYRf5dxzjj/2e4w41CUIWmGyCgKcGfoez8nI0R67bj+IbVeXbNp9OyEHsXPklAWmGCDvd0oQnvT7s+U9f7NIGkVTmlLInasH5fVvvKa9xgZmNUCR0eTAFirid66FgPtg65WoaMUIgd3WKggkC1bp0gTJEsUUQWAdlE53kkDa2Q2lfXrRzTff/F+9VqzYSwShXZy4cOHCowcHB8Ok36qora56YBmtNcSWHJAM6EHC69BRG6UwphTwzue345gYgHDGKEpiBfl4jN549uXAZyEcrh1FbJocwJjwM41BiiRohq+dgXY01iHmfuPvnZKHVFTIGg3dTxC9cQqkJQm6X8SUgE4UBNun6hwvRSDq3PeYUmDxTkX6MRUoRShiTtx+l6o9AAaYraDHIx2A7UN12twpMahy/nUUAH1/OiUHHEdUEEgQ6qYY2NaP/v2wPObEWVI0psk733WXXHvt74KTZ+rygAMOiKYZdH0LllzmYkm2YFkHRnq6tC1Y1EWLvJ8xNcH2I00QSBypEJRqwC6PP7czGnTBrUpL/eTGG298qYhsKtdE6ImVFXuJIEA94MqJnxORF0+EelCXHHDwx9YQ0E6SHVKnEagYgBzgey5AotdX79bgTfR+aAsGO9IdWHIV14iXzVsyBaGVE6skpEiCNZ6pSD9GILRB6ZQoxLCikqDn1+MeInrDO0kC+0mOBORIa44YxNoU6+cxbOy+KVIQc+4am/EQhdg57Xd0Atrpw0HBKeptdfQ4Ef08pRrw+1R/qksOcteYOr4msFxFkQShTpGiPu/rXnugvPCMfWXmrEPlKadidl/ryaGsXQFB4GOdY8WK2PYXv/hFeK4DbEAqGNIF0HT8qVkNOvVqVQTddt0vYmkGvTZG1boIut/oYsX77rvv8LvuuuvuXipW7BWCgHbib7qIzB0eHr65KIp51tjic8yQ51QGO7BjpCGVh7PkgNIXnCMJAVUDfAenC+eDSBWfu5U6c8ZovL+jvZAbcb2sftdzp3X6QefzNUmwVfLaIaRIQp3Iq4pgdNNukgRtvHAcXL+dh57qS1XEQPdT6ySqjhfr31WkqIogWFxikT63SRGE1O/6+yoFgcRE3z8oVnBY9hhaOah7T1MKQNUYyzn/un2tSn1IEd3Y/UWfQ5EixhTsBlS8Tl6vfd2QnPGChTJr1iFy6qk/Cruy3ohra2gVwdYi3HbbbeHxz1ByuFCSJtE6bWDVhVTaQe9jVTkbHGgFgf/WikBsyqP9LlZ7g2ONjIx85qabbuqpYsVeIgihOHHRokUvbzQa/7K71IMqcqAdiY2cdfGMrjFgWgEdFIVHWPwEgx6dupsXroGODA4cfzCwOD+uCTlM7dg4WLo9FwwIrhuqB0iNnhqVIgm6cJHFi0rqC5dSRQRSBl1HG7Y941UTaLi0QlTHQY/3vN3cl8m2j72fqc/4vpuUQpWTz6kGsXuc658a/5z60Ak5wLawC7APIAkY2yConQQRr33dInnBGQfIrFkHy1Of8h/hUqkKUklA+gDqgC1YxOfLLrssjHf86RkMtDsxBTVWjxVLRcRqEDjuiDmVA3yuKlaMEYXYFMiSGPBYK5YtW/bE8jHQPbGyYq8QBL1y4g+KonhSbGBXycCxSC0WzdnvbN5MT/XBtrqjshBRpxQQBWA7OHEsfMIphZ0YeewPY4G57vgDCYDDhiHB9/yMY+Mzzol3fEYUAMeOqADkpBtigsgDBYyomcDcbJIEPW1Kz3Dg4NZ46GlHWknoBAdtbHMkotPj6v4Ui3hSjiTnALq9jqm0XxVBYF8gOdAOog4GKXJQVzWI3de6fSunPlT1mVS/wTExbkEMMIb54Kw6WGCbP33dsJx+Bp7DcLA8/SnntXfj+OTMJc5o0DVGsBvLli0L45xpCK2cattHuxhTEXR9kq5FYFBlVQRLuGIqAgMMW4CoUw0pgqBTDjt27HjmihUr/qdXihV7gSDo4sTFg4ODN41XPdCsVQ/iGGHQBEEPBmyrVQOmFphO4GJE2AfSPBc96SQawL4HH3ywQBIEGcBx8G7JAUkCSQE/gxyQLOB68Blk4o477gjX0+m1IOpAblKTBJ120Iul0ODrVIta3Sycu5Pz1zWQOaNc9ziaUMZUgolQDibiGHXbs7u26/Yecj/dDzo5VkqB6pQY6P6SO383ClbqHlfde4wZrKCIP5BxjNnctbEdr3n9IXL6GUMya+aw/K+nfLt925lmoA2DigB7oAkCVtpEIMCVK21wpMkC9rOqQizFYFOz+pg2aKOKwABDz26xMxTs7AV8ji3aZtMNo6OjP7vpppte3CvFir1CELhy4pcajcYLOlUPNFu3KoP+zRKP2ADRqQUtpetoGU6ZygGcOZQDfK47yHHeE088MRAQGAgYChwHhoIkQSsH+N6SBJIBkgREBNiOizDhHavsYbW9ui9cF6Zkoi4B6wboZVtZ8ESSQCxZrMl6DEsSUucGVhPhQGPHqCML18XEbjcR19zJuSf6fHX7aCfXqA1/p/vZ6LLb/lLVLmCYa3c35CClElR9T8IEFQHqAc7LWp462L3m9YfJaWcsktmBIPx7excch+SAKgLIPouNUReFMQ2CoNUD7kcyEFMUYjMdUrMfdJqB/9Z4aOKobYVOUdo1EIxC0J7lwO9xfKU8jNxxxx3DmzdvxkIRU35lxalOEHRx4uzh4eEbiqLYzxIErQjEIj/7XUwpsN9pOczm2BgdU96i82O9AckAnDNk/U7IAZbNRYGQjh6oGOh3phUsOcBnTQ502gHfU0nANUERwDse2oMFmuq8gAWMCBdyscv/2rwlsKKKYOsRqhxHHfm2E0ev7691BhPtZGM47olz1Ll/u3ubnKPt5vx1VYEqMtgtsdC2pm7qIRbA6PNX9UVux1oE2AHYIozjOti++vWHy2kvXCyzZy6WP3jyN8c0m3I/axHwvAWQBbzuvPPOQP5hE7g4EklBiiTolEMq1aBtpyYZtNk2KOMF2zRDrPCwroqg7XW5zyeXL1/+/l5YWbEXCAJXTnxOf3//ubGBVlV7oNlpXfXAslydR8PxUlMZuc49Bjcc6Pr162vLgxiYhx9+eFtSpLRo0wpUEvAOo8HPWkEgabA1CUw3wGFrskB2fdVVV9Wy3zAGaB9zpJYkcEoVcONA12v/MwLIpRlyJKEbR5+LFvcGR743XEOVQ63VSSZgo7rEIBWR5xxqJwQz1ZyqexX7Ldf/tIPEmEFKEeOZsxpybRqY1pCB/kKkaMjmTdt3uWytIsAGgBSsW7cuqAZcKC1m/1JkQacVLGHQdpP/1sfhv6u6ilYOYtMcNUmwKV9d8Mp0RXmMZcuWLXtymWZAseKUXRNhqhMEXZz4w6Iofr+uekCjwUFalxzEOjAHlSYHejoj6w2YWkCRD5/Eho6Zey1ZsqQt68EYwMHCufMdDhifQRpwDj6Qh+/4nqsy8p3b4TO2wzvIBL7XaQcqCmgPfkceEtvkXjgnUg1oH4/NokUuqMQ8JY6lUzC2mChlZFN5Zm1EY9c5UQ52oo6Tw9J/34lAzgHWieI7OUbuHudSXan9U2pG7ny6L+DcmiTAhuFzrn1V/YlqAJ05xj0fKQ7Cj+9pO2MpVvxGddUWIMaKE2OkQasHmozodvHfug7BkgWrINiCcT09kioC3vH91q1bf2/VqlU3lirClH2A01QmCO3ixMHBwQULFy5cVRRFq/eaFRTZ4ez3+nNdgmDZs+707GQsiLGzFeh8IQtCss/NGMB1H3/88WOmKJIUwAFXkQI6fU0O4HixP66L75Y8aLJAUkAjgXcYCVQyY4XHnKHBsVBAibYCN67nrhdgIe44lp7+yfQMMdX3qhMCUGUsq4xxTp3YncTDCcFYBOo4vDrb1MG1rupUp3/UVQ+6VSpwfBJwPpqbDm48eNDGwbZhvEO9xLu2fbSpOZIQSzPESIFN02qSoP9tSUKKIOhZDXomgyYNXGdGz6BS+/385ptvPmOqPwZ6qhMEJMhmDg0NfaKvr+9P7YCsQwxsrovHsO+WNVNJYGfH77pT6uI7LiSEQQDHDPUgt0QqyQE6L/YjGWAhoiUHWiGAI8Z+VBBwLHxmm/A9rg/XjuNRebBkAcfBdjAO2B8yI0kC6hIwWyFHEvSKi/qBL5wKqfHDsWOpBq2y2HucIwB1DWXd43YS4cVITR0n1evb1L1ndbar63zrKA8xYlqXBOh7qvepQzRyZJQBCcYy651oj+pgZK+NdgrjHuoB7IWuudK2MUYQ9HdWTdC1CFVEwZIRHUhYksAgIuboiU2MMOhiRq0+lCRiw+rVq4/YtGkTHuC0FUuzlH9TanhOVYKgixNnDQ8P/0ZEDq1LEKzzT9UopJQITQ4oudVRD/RCSDnHdtxxxwWpkOSAOcaYM0dHxyDmNcBIkJFbYxTOiwVnykVn8DsNAPbDeagwkGRokgAnjxeMx0033RRWfax64XgoqiQZwf4kClyIhcZAqwgkWHrQ8zwpAxu7DrS3E6fObesY1k6Oa69tPPtOJQtVB2fd3rrbd6ME5Bwxfq973CpyiHvfyXHqXhfTdJxKXXdGkA5+ME4xLjG+qfTpIErbSq0iWFKAY9oaA2xPgpCqTeA2+ng2iNP3ATjyz9YU6FowrUhqRcEqlZpsjIyMvHXFihVfKVUErFwHkjClXlOZICCdMOOggw56bH9//8V2QE6EemAJQiy9wAFDaY9RMCvzWZjIokGu4V/Vy4466qh29TCdNiN+pgnwjoGMQYCBzClPdkGiMcZ1FE9xKwnC6GipeGB1upHQ83EcOi6SBJIPphtwPpIEvF9//fXh3FUvGBssvILnNnDqo15ECd/xfpEYcOqWZvkxJ1vHYdSNIsc78ifa6U/08cbbvvHsX+c+pY7fyb6xbVM45o5bh4imjp0jmrFgpi6+Vf3Cpje1A6Qj1edhIEHVQD9Thb9x+xg5IBFg0KSPZwMpSyi4rX5Gg1YVYimNWMCjCYKezaCdPeuatJ0mNiQWERXhhuXLlz+lLFZERWe+YKzuTdxLtpuqBIHFiTOHh4d/ICJPrqsexJw+75UmFXY7y6LZkRkNaLaqaw+QCsBnLC6CNQVyBX7I2WN6EToy9sMgseQAHRsDGS8+WVATAx2Rs21UDsJgGoWCQIIw9h1EgflGkhOcD8cnOeA72o7vr7766sqUCbaDeoIUBVaAi6kIxFMbuCoVQd+znKHvNlqbCGKxNzn58V5LDueJsnmdnie3vW13bnvdt3S0GiOo9jvthLXD4XHoZLXCFxuvKSxzhITn0U5PO0KdrtN5f4w/7aj1efhvG8nHFARNCjR5wPfWeWtSYWc6sZBZn4PHG2PT1JLLmhDw3zbty5qFmIqgr6/898imTZuOXr169boyzTDlihWnIkFgcSK07jnDw8O3iMgs26GrOjidvyYEehDECIMd2HRoVt7Sc/rhvPEHx4goG4V9VcYJjhnrHGAbHAfXRHKADo1zouOy+h+FSXpdAcu4QzupiwXhYLSdhmgRBZADRRZGWmRhBAswTRto1zDgvCQJ2I/kBI6eKRAoCVUvDHioCChYxPEsSeACSjgGzkUcyfwpl8bOgWuqcn4pzHMOs9v96jrK3PnrHmcyb1fXWafue522E+fxnCt2HhvNWqeMcc/HIlN1A+nGGOAsJu2Y6xCFWJ/J9X06S7Zfj5c6REUf36oItKVaOdDtsIoG2otZXJg+ScUSgRAKt2EjcW2oW8IftuHMiZht02RI/zvi6Ns2hXbEqgdMZdo0RbPZ/O7NN9/8OrUmwpRSEaYqQQiPdR4aGnpDX1/fx3S0r52//t4SgBQbttGD3k4zXnZYTRB0YSJTC+j8mD+MNQ+q1AMcD6kFKgZ0lPiMTktywALDME1xYJo0+hrS1+gL77y+cM2BGoRh00qcgSDgPxACpBTKGoQ2SRgdaZGF8n1kdEQafX2B3LCmwZIEnIf1C6tWraosWsS2WkWoWkCJg5cFV0wz4Puco4gZyzqOYSL3q+O0Ot1mspKJOtjXxWIij1V1zrrKEe4Jxz/HPsYL1itBX6fqplUFjGfW3qA/I2jArCA4R65aqAMXfZ2pPtDJ97ptnZANbT9tYKXtDu0ibBZsH9doWLx4cVBRY5hwfy7KhMBn7dq1wRaifgn7gWDFCiWBD1UBTYRswSJtip25YJWEiPKwfvny5ceXD3DCyopTqlhxKhIEpBemicjsxYsXX14UxRE5IhD73bJ1OyhjgwDf6RyZZa16mh7VA1QBgx3DEGh5zxooRBp40BJnN6DjanLAyB3fw3EO9PcHBz4mZwdi0Gi0yAH+L8rbD7UAPXt0rIIwOlKSAigLUA5Gynd8HoGSUJKEckVFXA9JAq6fUT8jgWuuuSZE/qkXBjlSKLFlmGkAGKFoskVFgYbAHj/mOKzx68S5jDfinKzOvK6j3pPbdXLf9HXVdfKpvlT3HrLmCOPwmGOOCc6MfZfv7Ld0hLoOB/YBUTLqc37961+31yuhM8wRhE7IgQ1+Uvexijik7KIOpNBuEAO0+7DDDtsFE10XwXOhvQwa+BRa2M1bb701KAkgCgi0SCJ4PpIvHahZJ6/TDKliRSodVn0o1dxnrVy58vJSRZhSxYpTjSAwvTA4Z86cofnz52Mhiz7doTXTtcQgx4LtYOT2dFoctHzXnZKGQi+nDJIAg4EnJWLApF7o9DAuJAcYYCQHPDeMCs63ZfNm6R8YkP4x5KBPikYhDT7qOZCEsBhEO6URrrVNEJheKOsPUI9QkoP2AGm2CAMUhUZ/f/sZDRoT/BvXhWvE4EaNxerVq5PtZESA9vKhUnptBF1HwQGrVYRcmsGeWPeLbhwNI8RuHaI9p+2b3R53KuynsaHkraXvbtpYhyimjpu6V1Xbk6xDLYAj5NokrDvSkS1tEVMK+omnUB0ouV933XVhaXOdg9d2LEcYUtvWJQdV+8fsp+3TXLgJ43p4eDhE/gyWdKGgVTJgGzD+0W78AROkGUCgYFMwpRoBFFUI2kW2S2OtCQJtBlMHth5Df7bTHnGcUom4Zvny5U+fisWKU40gQD0Iax8sXrz4y0VRnGZJQJ3POo/G7S3JiA0GnWfDfpogxNIL3D73GGXk5qEgsBPj3Pi3JiYYPA89+GBbhgzqQaMhDaQXwnvRWsgEf1ASqB5walY5HWhMoZBKKez8fqRMQ4zuLGQcGZVpgzPCuVkbgbZTQaBjx+9QEapSKRj4eAgMZnNUPcyJWOh1EfhdzGhXEYDxOHp93LpRpTZGxJX9DPdIT/HqNdKgIzXKwBob4hOLoOs69zpOlNuk+k3VvabjgONDQTGcGIpv+fh0RMC233BM0hFyuXGOAa5WiCj5tttuk1/+8pdBWWC9UVVUX0WMO8FCb2sdDrz+5QAAIABJREFUsLWr1l6ivSQHIDtoD9ImXNYdn1OY4NjEhdMsQRK4SBMwgcICNWHRokWBJHDmk76PVGhJFlJpBn5v6xB0DYlRErbeeeedSzZv3ow53VPqAU5TkSCgOBEPZoJ6sLAOIahivuycdiDZfTQ54G+aqXJaHucgY2CAASO1sGHDhmRxIgbE0Ucf3SYHuI4YOcBxBvr6pa+faQW8gxg0QqqhUYActFSENkloFyi2Ugxh4LSnN7ZUg1CPEIhCS01AIWPr3zu/CwOnOSpz5s5tb0cMNEnAoEXuEGu3p17YHmkGYIJrj62uCExohFms2E2awV5DNxFqJw4EOLEfgAihbZRE6RipMHGGil6EJgla5oe6xKXb43eyXwovjQ1l9Rg2xIe5er0cd86px64zhU1OUaraD30RZADEHn0efRmFhxjz+A33Hr9p566ldBJqTRK0Q4QDxCPXL7/88jEkoY6zT1133T5SRVhjQRTJNwsN+bwGjQnGMJw9xr2e0qzPZYkTsOF6DLCjwAQkYeXKlcJ6BtgJ/aqbZrBqQkxFoP2hjR8ZGXnfypUr/3mqPcBpKhEEtCU8mOmAAw44edq0aT/T5CDHcNkZc+qBJQzc3hIEGhhd/BJLL6A4EcYk9ULHhxRHeUtvx0gT323etEn6SRDKokQdjbKmIqoilAsjtclBOVuhVZBIotBSDEgWWkShRRLCYMEzIwqR2XPmhGvFdzwnFz/h7AZMe6xyrMgnwnkiwkgRBKooOJdeEyGVZsgZ/E4l5E6dEa4T9xkGEn80mFputtExyCTaQwxiUVsnznlv3ZbYwHFCjsdn5JfhUIET+hjut04x8Z5Tcu4WG+sYc/2EGKYcKskBxi0iZRB3koPBgx8tRaP19MNtv1sp+80dDGQh5ghDzn32Ahncd7H0g/SD3G9Y246acXw8HA2LkelljquubzzkoK5CYQMnXA8wwVjGvULfByb4Q9/XhcW4hyAJwC0WgDH9QnLAYk6u6Ii+c/vtt4cZIFAS9HGIy85AR9mukZ1F2VY10EWKMeVPBYHrli9ffkJZrDhlHuA01QgCihNnLV68+KKiKFBZOqaj1flsCYI1PJQCeSx+xjtJgnYejAzt9EZ0LAwY1B9UFe6h4plLI2vjxXPhGCjqAznox4wFqAX4g1RdphigGEBNwDuUBKQbxqgImiCUxYdBPQhFijvXQSApCEQipCRa76E+oSQJg7NaBo9sXTs9FhrdfPPNIapKvbj8MtIMdAB8Z00DjksWzzSDHtyxY+eMf+z3XGRV55h0ZogasT0iHRhMEil7rXSGaCsJD6d92qhob3X6da4LWHBcIIWGe4p7jr5RhQ37Efsmi9e6wUarfXWu2QYdeh9cD0gd3hHFoi1whCzIW/yW78vMY54Rdpm3Yblc+d4nycL5s0P0Szuix8v8539YZh7xxPDbtDsuk80XnxVsAaV1kIvvfve77fVHqqL7quvO9fFOiIXeFm0BFmg/aooOOuiggAdwISa4rn9/7GPlUfPnt6EcnT1bdsya1cYkBANFIVi4/bL775cL16+XHWXRIldzxDsIAQjIz3/+86DQ4I/TR61N1uougxyrHMQ+6xSYSTOMbty48di1a9euKddEmBLFilOFILQfzCQic8u1DwbrEALLVFOf2cE0YYiRAz1AtAxOQ8jpjZy9AGeRcjJgypjaSPVAS+CMynG+DQ8+FFILKExEzQGIQdGuQShTC+3vy7RDmWoI7VL1ByH/NjLSKr4pUwxMKewkBjuXL21911IToCIgWQEVgY6NxEnXIaDmAs+PT70w2BFJcGVFTRI41YsEQUvTLHLigLfHr+PMq5xEzFDmjknVCAVUMJIopqpSjPT5SRRwDjpFRot1ndnevB2woRSPfwMbOI4cphzX6FPEBv/GmOpWSegEp1Q/YHX+IYccEmoO0H+hhKA/hte0ubLve66TxqwFsnBmIZv/64Ny+w/+IdQXYe4/x0pYB+TYZ8mMZ7wrfDew9T7Zcd6bZEZ/0VaT4PjgEIHff/zHfwQlggpd3Wi/ijTkfqtLOIAJsEAtBu4tMdHKwX8uXSonzp7dMkXlcoTb5s6R7XPmjCEJSI/2z5ot98yaJe+78UZ5SGTMsuzEBH3hkksuCYWhwFX3CRIDnW4wjr6dztXqQax4kQRCpRl+uHLlyleVSy9jZcVJv/TyVCIIXPvgVY1G49MxcsDv9ADSikBKPbDb05hwQGv2ryOSKoIApovIH4Mn9UIkffDBB7ejeE1SmIPFgOsL0yv7W+uYh0LEwqx90FoHYWzBIshEmOvYGphhGmNJDHaU76N431l7gPQCB1Z7gKnnNlBxmDO/JRO3uEfLuekcIr5DsWLqhe1BEIBNiJ7KymVGCyQbHJg6zaALjyaaIOj7ro+dcmi4LpACkAMYRzhAzkTpxCHposXxSuqdnHd3bov7BGxQkIp/QxbOrSIaux4WKzJfDwKVi4jZL+tsFztnbD+qB+gL6Lu417Ensg6ccIbMe8UXUXUnh80dlRs+8PuyefUNwYFCIg+kcO7+MuvlX5W+GXOkrxiVxoUflpHVVwblgEuQox+wcPGHP/xhu9hP2zN97Z2QhjrkIDUW9L5UD1isCXsHTKxiSoIw2tcnH77jjhBkjBYi/fPmy6z582WgUcji6dPlFKRtEOhMmyar582Xv7nhhvYzITgugBFs68UXXxzwHBoaGqMicKzq2QtWTaANIQHQgUcszaAIxkMrVqzAtHoYdUxLm/SLJk0VgtBe+2BoaOiGRqOxf4wgWAmuSj3A/pYwxI45JrevZgcoVtme9wwDyD904tz0RkhkCxYsGJOnowFgHu7ee+4JZIDkIKQeyuLEIqQTWKhYpheYfijfQSY0QQiDIfy1lITQ+cvag0AK8F9YdXFXFWEENQlY0XFa62EuOkrQdQi4dkzXSjkEXDPajX3gRHR6gdO76Bg4YFn8qVn97iIIdRwn8MG1g+QxldSNA9SkEM4B7UO0yAK+OtdS18l1e6yq/WLkCd/xqaPAB4pS1TTf3HWhvzANpyPp3P2fSIJA9QCpBaRIQNzhGGPtn/3Kc2TaCX8k/YXIQRuvl2v+7lSRke3t/Pvgcz8o0454aiDw01f+l2y+6NPt1IJ+FgKn+wG7888/PxAGqgg5clBFAjrBpYp4gAwjlQYSiLEATGIK0Y+WLpXj58yW4qAD5ZAf/9eY2wbihBQM7vG+A/3yT4cdIvsgGJq/j/zFyltki1p1ldigT8E+XHbZZe11FnTghhOQIGhFgY7eqgVVBIHH4fuOHTv+4NZbb8XDATfjNJNdRZgKBIHFiTNmzJix38KFC1eUxYod1R9o5q1TBzFSwO9sioGfrXzFCJfkAAMH8iDWBaiKKCGRwQhQMidhobPFdTx4/wOtmQuh5qC13kFYOTGoAyQIqI9ofRfewxoJO+sVcJyQW9u+XXZs3yE7dmyXURCE9syFkgy0Qq+4ilBu20ozoFhxdnsQ6mJFEhvM5U7VIQBHGAX86ToEbRwtQdDTHTUx0dYmJ13nfk85Kr0fDREL7ZgqgRrS7fF5XrYf56gbKeec6yPxO5UVSOusZh8vNuhXnD6o0zBVx+3EEVY5XJyDqwKCIEANQbtS/RDHmvuem6WYc4DsN7OQTT98t6z7788Ee3XwU18pc5//weAQZ2y9Wzaf+2fSL62nsep8Owv0WJNw7rnntsmobVcn6kE3mKT24bLRqD1IKSrA4odLl8pxc2aJDB0kS84fSxBwbOzP9NEfLZgvrzxgPxmYNkO+uGGT/HLDhjHKCmc2IAADaUINF0hGbEaDrj3gv616kFIRbC0C1eLR0dFVK1eufFy5JgKKFSd1mmGqEAQ8mWjmQQcd9Om+vr5XcDBbuc0qBnq7btILliDwGJogoMORIDDnis4FIwaCUGVEsDgSOyjOpeV6GAuse4Bj94+pL8CUxlYRYusdUxtbRCEUK+L7/rJWoSQK+D4YuW3bwh9IAlQE5k5pZNuqgVERWipDuQwzihybTZm/z/ygEPC6dfEVBjGmacFopF4gUFARIEvGjCMJAiMA5vqJN69ZG6+cE8r9XocgtDhUK0JmdTXayftM0oXrAnnQ+VEWL6bOg225tDWipPGqCI8EOQA2iKxx/5hmI0nWBrvTewE8gQmOXRebbpxhLPLGvUVfxzUj512nlqLvqGfKzFd9U0aLPlk6b1Ru+sATZNvG+2TWWy+VRQtmyfRiRIoL3iU71t3QXnqZpEC/U0W44IILQh+zxDHVxk6/T/UVa2O5HbDgTBTMSgJpgooQu6/fX7pEjp07W2ToQDnqP3+yy6nQV0C80O4nzpsjfzF0gEwbmC6ffXCD/HbjpkAeNHnCv9EHUIcAG2LTDByjtr/pWgRLFGKzGWibTQ3DtjVr1hy6efNmlEgwzTBpScJUIAhIL4QHMy1atGhlURRzYlG/Jgf29zrqgTUMjIrxvU4zcADoTqMVBBgwbg9ptV3AZIYFBgUKFLXxpFPEQMG/MegwrxP1B23nXy6EFGYqYO2DMLui9e8WSWjNtmipEP3SN9AfVlXENYa/7dtlZHuLHGhiwEEVlmRu5RjKmQwtRWGMPDc6KnPnzQvpCAwsYs81EXD9aPuaNSj4jb8w6MH8ueyyNgBUIUg+yOa5qiIHdyzqq3I8nTolbQz1uXA9MI6IfIApHzLDKAPXh3sLZwJlAdujTXD+v/jFL5KYoL3ABftzVsMj4eTHc05iA9kZfZBrgLAP0ckBC90H9TmxlkbsBWywD2c15K5zIggCrxuEEIQH1w/Vq06tycALPiP9J71UBhpNOeiBq+SW29dI47jnyey+HbJ45Tdly6X/EvoFCQH/HZvmh0WCli9fHvqHjpZ3h3pQ55jAgVMbgRHGcQqT845YIsfMnSXNgw6U4/7zp9HbBuIDR/+uQw6SR82eLf0D0+Vtt62WHf397bGgiRNwwHorSOOijguEwQYL2m7poE47ftqSDggC7OFfrlix4mtlmgHFWE4QcoNxN/3eXvtg4cKFR06fPv2KKpUgRRzqEATdubRyQIJgK2W1wWOEwRQDDBirtlMEAZ0dT25kx2TVPhcSwYDBGgpYNDmkC9pTGMuVEhVB4PUGooD/uIBSmZJoDwjMBw6LJbX6s3aYYQC1voymGDibAUWNO0ZHQ4pBkyVGu5ymiOlOmLOceqF9qMEIUzjVEqv8N8kGcdYqDdvTTZ/rhiTYfUgKjjzyyKAksPZAX+txxx0XDBgeYoXtcY9OOeUUufTSSysvm6vnYaPJmGYgNpB+0bdZe6DHC8gD7j1zv1ZlwzMJYi+SJuwHB5EjALnfY+cgKdW/4foQHeOaufBZlTKo9x14+1Ui84dler/IVtS9FyKzNqySgS8/u/1AJ71gkiUJ+Ix2g5Bi4SRbn1LHmWu7mBszdZUHzl5AmhAkGLikMPnOEUvk6HmzpHnggXJCgiAMz5ktzz98WE4bHpIBacjNow05+861Y8gBgwiuPok+hTVX+LwHe+2WFPBzKs1gSQLtDLdXhGPTihUrDi3TDFxZMQftXvn7ZFcQcP1h7YNFixZdVhTFMUTZSl8pBUGnFriNncpoB1AsHaHTC3SuOn9FCZzLrcIwwvmlCAIGPYwo54Oj89HJYiAEBeHu3wUjGMgBnD7XOAjFkq3nLUAxCOoBl1YOz2nauQ5CqBgOsxNGg/NvvVrPerQEge3iQGoPMD4aulwLIUSBM1sFU1wREPuyGp+ryyHqSb344KYwS6Oc82wlVt4v4mwVhJiz19/FjN1EEARcB6KnY489NhhuXbVNzB71qEcFggeCgOuAhAqHj/2AGb6PRVyUT9F/4Az2xLS+ibRcLFyDgoKxoAs3db9CH+Ia/SxAzV0HxgdVmTrYdEoQcH2xfVhTAcUIql4n9SbFkqdL40++Ic0GsqQifc1t0v/1M+Th234d+gQfUkaSECMLLEy86KKLQqQ80dMd6xIIjQ3uM2YsgOxxtlbK1n37yMPlyLmzZXTffWRkzmx5uNGUbdKUHYXIaNGUJmZX3XufNLZulWLevrL84VH5zOq7d5ndRPtAogCSCNKEQAszGmJB3C62TK37ookCVUqSBK2Y0v5QIWw2m82777778AceeOCeyb4mwmQmCHrtA6QXbi+KAmRhl+JEfhcjCXXUgyqC0JLwW1F7zIGiQ3GhHCoIMF5wBBg4KYcEwwDmy87Hzk0FIUhoa9cGV95aUrlVe8Br0SpHIAq4vpIc6Pa05iXsfIVt24+C3kkSeJ12QI1h4SVBwEyGsGBSA9mfVsUw56xTQUD7cwQB0wOBEQiCHvyMothWDl69YFJKno7hbaXHnCOyv9tjkiCghkQvCKMxhIKAtkFFOf7440N/YJU3ivfgZG644YZdLoVzvbF9HSfYaVt29/aaIHClSI4bvmMdgSVLlrQKZ8sVKLEfI9Af/ehH0ctEH0HOGRI/HGWOPNUlCDlSyQJF9FekznBv6r6KmftI4y9+JaMzWgsFDfffL2v+/mQZ2fJgUEFAOliUrNUDSxjQFlTto3anU4KQwyH3O9uqt2OBIggCajKqpnN/KxCEWYEYbMVf0ZSHi6ZsK0R2FE0JD9hpFjK9WciMwTmyefHh8slrbpS7Ht7WJgnERk+FBn6/+tWv5IgjjmivM6Hvix6P6FtWUYjVGMRmNCRqEb60cuXKM9UDnCZlmmGyE4Sw9sGBBx74rL6+vm9pAqA7a0o90E5Ukwi7vSUd9jzWEGlpfTwEAQoCo0gckwOfNQi/u/vuzghChDyVyYSwHgLxgBIRBks5IyG0p1QXYupBWFVRzWJAm0EQtIKA/VhDEQosH3ooRMmpFxwhCQLwZaGiNpLMteLYOsWgJb+cM9e/o/0TqSDoRa54HuKHtiEFwRqL66+/PiweBcOKnCkM/bXXXrsLPDB6XGRrMhMERHWMuCw2uo/B+HIlPi5LXdVnIGmjb00EQciRSV4HCQKIHe4nVKO6r/5XfVfk8FOlzOrJvBmFzL/1P2XV514dDoE6HNQ2oK+TFOh/8zv0G6wtUqUg1E0P2DFRty2WIKC+hDORqkgTCMJRc2fJ1v6G/Nvtq2V7ITJSNGWkXA8B599/2jQ5Ye5sOXz6DOmbPU8GFx8q/7ZylVzxwEPtAkXYG12fgf2WLVsWVRAsKaUiwL6XSjOQtDIAsYqCqj3bsWLFikWTfU2EyUwQ2msfLFq0aG1RFC2NrnSCOYJglYMqgqCPZdMPVBC0keO/2ZlYAEgFAQYeOcuqFAM6OqMoRuA4HhwnOjEMAYq1iqaUKYZSQdAPY2I6Qa3PsAsuYTZkWcxYro0QChCRdigLFZF+CByhJAxYFwGyg14fQQ0M2TE60n5wE84XZlqUq96R3CBarlpNkQ9vAUYkCLZYSysIOD+l6G4Jgr6HdaOm2H3HdcBJwAniGnXu1UYp+O0xj3mM3HLLLeF+ol+gGAv31xIEXBPXl4dT2lMrB9Z1EHW2w3UDm0MPPTQQyBg2dHo4HqMzTRKgEMRedI510i+p+5sjiLH9uAYC7g0cYV2CMPDEN0jjOR9pFfmuXy7NGfOkMfcAOXh+n9z/zTfJfb88N4wbPFeAKoIlB/zM8cQahNh11v2uW4JAG4p33GcQBBB79OkqgoAUw1FzZ4cixUf/KF6kyGv6/bmz5KPHLJHR+QtlxwFD8uZf/SYaPKBvoe4B6gUCLa6loNtmVVH2RW3LrDqAbagikODqWgSVZkC7T1i9ejUKrSbtmgiTlSAwvTA4ODi4z4IFC5BeCG3pNPq3akAVscDxNUHQqQXupzud7jiUSuE84PwQDaHzpvJyODZnMeDY6JhUEEAS8B3yncXozpUKsU+Y2lhObwy1BkoZ0PiEf5fPaGhgNkM5/RH1CuEhTWqZ5XZEV9YqBPKA/8qCxjDFsTkqrYWSdoRrnVuurc4aBLST6RG8I/+OaZ6pVycEgYOSNQjAupMUg70G6yTqkAW9D9dAAMGDgafhsZExCeSjH/3oQA64YBCf2YDFpPQLzgC5VBheFuTVubY6jntPbQMs4EDh9ODQYwQB6gry7xov1iTA+f/0pz/dRelB34cTYOV8roDT4pYjBjr4sFjx2nhMzlqpwrSYMVdmvutGGR2YKY3mDhn9/B/K1hkHyrSXfz2MxaNmbZBr33WcjGzdGO45/liYq5UEpt9AMEkaqdTZ83dKELrpW9yHxai4JnxXVZcRihTLWQypIkXdln858hA5ab/9pdh/SF59/Y2CFRh1aoEqAhRKECYqcjooxPEsQaDNCIQtUYtAxYA2RhMIHZiU/772lltuedpkXhNhMhOEsPbB0NDQXxZF8QHr6O2AtsTBFhpWOtKyvsCmEixB0EaGnUx3KD6HgYsfwSFoA2kHNHJneGEbDHoqCPgO0SMiqYc3b2ktfNRe90CRBCoHJAnlCdptLYsbMd2xtTZCS0nQj3we+/TG1gyHFjlokQJoo1gcKQwokIRy9cV99t03SMM4ZkxBwDoIqUgQl8lH4oJE6RoEqgiMqHC9HKTd1iDkCEIdQ6vvPa4HURMcFnLIzG/SKFnjA0eJokVGXpDIkU+2kShIARwFVBXgg3402V7ACdjAgXMZ8V3SVvqR4+rfINVwNHxssm47sED9AcYUH6Vd6aC7TCfFnCbVKyoXIHAp4s9rmvP2/xHZ/5iWk7rwQ7LxZ/8Ufpr20q/KwAnPlznTCpm36sdy89kvC2NI1yLomgT8BoeIehX0o9iTHXHclLPv9PscpjwX2g+iBCxgq6oWjvpeSRDkoAPl2MQsBn3edw7tJ68YGpItC/eXT91zv/wGj7pX6QUSBKTtoFRBkYvhogkCjq/TDDkVQacWaPN0WoL7r1mzZvGWLVsgeU3KNREmK0For30wNDS0Xg8AyxI5AGKEILZfimhg2zoEIThY9fAjOi84SaYYsA2jaF3hbgcfHvNMtQDbkVigswdjMm2arFu7Tvq5nHL5rslOqzZxp5LANgcywOLG9nMaxj6boZVmGBnzxEb9RMdAgsKDmso/LJIEglA+sAnXgTYzitYKCJ7bXlW4hLwrCpygkjBi4jLLOoKyBIHpnJSCoCOHlLGrG01yf95zfsb+aDccIdQBLTva6ESrTFQUYFixr57FgPsFcoBt4IjsfPfJQhTQfqYZQIrg7LTCkjPM6DMgTnr2A7Bhnh6/gyDYlfPsfe8mOk45WrYJ94U596pxPfNZ/1emP/2vwriauWGVrPvQY3bevunzZfa7rpG+mfNkaE5D7v/O2+WuX3whOH/M0OBMIJ1ywM6Ilrmst7WB/5+9d4Gy60rrO/e9VaWSLFWVVCXJlt1+9Mt2d7tfNGmGJkkHMryZECDAQIChQ9ZMYM0MhMyDGRg6i7AgYc0MZAKEwCLJLF5pAj1AOmma8Gjodr+I+2XasaWq0sOS5Yfsti1bsuSqW7P+557/1b8+f/txzr236pZc162+dc/ZZ5999tn7+377+769d6zcqToorZ+YVQJ1gvogIAB6Y+sg/A4XSjp2U7jz3790oSTbtn/6jleEr1paDBs3HAjf/shj4dl6hpcGbkLWoE4Q6I04DsgOO0hkm/AsCbYd8jfBwMYexGIR1tbWvurUqVMf26lrIuxEQBisfTA3N3fz3Nzcg9pIPUCIWQc8GLBAoY3Tiz+IdSRVBPRbcSVF5AkhhnnwqfX5MSJC48Z1FKSMQaD/+dHz5/uBipU1QOIQ1LWwKQCxv7ritYWT6gWUBvs3XNubQYMPGY/Q7yjXtnregCuiXkURayCs99bDTL2RDFdSpHsEdYKOinoE3cesJ6hTKEMIRAKCxh9QEAwsHpg9Uc8WYbT7VgKCBx0oDzcjQlQ+y5UCBIIEFCAggWv5oz7wvlEnWPiFm/aUCvFJgwfWDZQ64jR0hoJn2tURGv3ZqBuO0lEfgEn0J/yt7oUY7LWtu9h1dCHSYhbbsXPq0CvDwR+6L2zAarfRC5f+2TvDpTObNy6bedvfDge+9ecrhXbX3OXwsf/+FaHTW69W3sQxwgHuhb9hNeHaD3Tj2XceU+Re2yitmxxgcDYP3i/B1rsfllq+B0stHzsWXmX2YrDp75idDe+/564ws9EJl2Zmw1efPTewMKplBXWCPgMrFfoN3S4WEkqtCLQCeoCg7ZPppB1fXllZua0OVsTSyztqA6edCghc++CXNjY2vjE16t88mu4/rm0kHkDYxm/Bw1okmC+tB2qy4siQayGgEUE4QqClNqmBoIMVAR8IAHR+5IXj+GYevRfXajdDf1llBh0OnquON8BvLr9cAcJUf+8Gxi5gh7nBc3OlRAECuhv6grkfyFhtDV0FM/bCGmBhfS0cqXdiRKdUCwIpHs//4IMPRvUWygM4wnPCDUHzoW7URH8symtjELSTejfJWQhy50vypBUB7/fNb35zZQlSeLG+SzVPQrlg5MWNbVAPgCUIPdTpTrUeeBYWzOTAUryc8sh3GasfpEPdABTockNbqeJxapDyrAclCrMEpGJKEWXB+0W58H4AeC91M3TC0g9/NnQX76imFq+9/0fD03/40+5t97/rt8K+N3xFuGGmE5Yeuzd86ie+qgpQZZAqLQkoD+QIBhwx90JTC0IJIOTS4DzaNGAXVh30XfztDQqwm2O1WdNNN4VX/r5vQUB+33TLsfBjR4+EKcyI2uiEf7veC/9weblqP5AHCgiI6QEcIJ6Fgyl1CWud6HtSgFc3sQVXCwXafxUmkMcTTzzxmmeeeQaW7ss1IOyYKY87ERDgXtiL4MRDhw6dtQpfG661BnhgwOsVACwMII3nXkiZHDmqVBMyAQHKnqPB2IZFvCcXlGE0vO5aR0g4tbpab+/cjyOo1kMQq0FlMZDFkap9GuiOqKwJspYDF1SqZylUKydW8Qb9wJ3+TIZ+gCIsBrqCYkXXG31wQZ5QdOpeINxwCdSYQMY1GC1xoRydukRBYAGB0xw1wvilArp/xxwA5M6XAAKR1n1eAAAgAElEQVQBkc/w9re/vQIdKH2OqGJChhHguBaClXEHSA9hh2fPCegSZbedafBu8Hyojze96U2VaZ5uFWvO1T6E90t4Qj1AOQAiGfwbG0GPAhBSdU6w4boXdDvofee+7V+EvV/47dWhA5fPhpM/8vr4KryzB8Phf7QaOlMz4cb9nfDM7/7v4dwHfrayKFI+oQ8zRoc7OXqyy5NTsWcpaVclafjceC8ABO5V4VlMud1zOHAgbOzbW01v3Oj01yeu/r34YgjPPYdgrDC1EarVYx+4cjV8zQMPVHUBWaEuF8Ai+gwGV4QHlXFWR1hAUJeg52qwVgSmj7kZNjY2/t7Kysp7ajcD1svcBYQxCR+6F25YWlq6e3Z29uP2ZXu/FQwsJKjyt0DBZ8gBg+0w1qdFF4PGIXC+NqYnxRQZ7o/gJKTlSBx50IIAnyM+MDuH9d7AijDYg0GmPOreDAOrARYyAihU8NCHiP7yi2bRp3q6I8327DQVJNRxCmuAA8xeqFcsg7CHAEe5GTvBKY5YMz5nOQH5Q/DTPWHXP7CAwABFncGw3YCAd4Pyc8VA+Nwx2sVISgMqrWDhtDkoALxrABU++LuJCXlMfXBk2WrdYCoaZi4wvkAhSuuH7glaCzAThuCpfuZcIZsoOZUDqXzVasTpfWyDM694Szj4/R8MoVrQLIRn/+8vDpfP/kWymLN/6TvD/H/981Wa185fDR//+68P+7v9AE+Un4tOAQ50B0v7bN6ztgWEJvWGtHxfsKhw0GCtCANAqGujsk/WgKAVhJEhlnH/0YfPht+A3KzXZqFlBf2F4IlZMpgNBMuKAhX/zsnsmCtQYUDB1f5twKK3srJyLIRwMYSwo5Ze3mkWBLQRzF44cOzYsY90Op07PeVvFbsqeAsItsF4MGCPWWuCR+hoSOwgFHAKCAw0hIBLBTQhHQQnBQIED/2NaIToHPh+9JHzg5UUB9MdEVdgLQfc6ZF7NdQWhE3PCEDAugfVro3yT7Z/HnSAejok3AuIP8AIByMGKHAoRs51R7mZV8q9gLqEBQL5YCSAj41QVh8sziNftSAMAGawdPRmOZyzEOTOe1I9dQ0VIQQ63ifWPUB9M2hVffA0g+IYXAqAJNQlp3E1EdA5JTkJ51E3rAc8I9wx+OYxXW2RdYN3jZEzR89cRKtJ3TRJWwoIyFOnM7MPVG2jOxVCF+u69Rl8Yw16IvfphDDdn6lSXbP+Ypie6lajYrRxBP6hPdHl5A1+PNkUO5Y6XloH+kQoD/sm14dgu9f+ModZWJmqwJAbu8RexqDEpEW7QAwK8gZgAgwwsIJspCuGbYffbQDBuhkUCqyLwboZnnzyyTd9/vOfP1W7GfAIO8KKsJMAYbC08t69e48sLi5Wy/DFAIHHxzV7wbZn3o9gwA6g5lICAucGc7Gj1Gga+XLTJjR2zmZAAwQd4xsdAcr0BUx5hLugmvZY78dAd0J/YwbZ2fHafgx9i0N/tgPInR27eka6GuBmqF0LfVdDvfZBZTnAkrgvhiNHj1a+V5QTz0RBr7MvctMbGX+AutEpjhqh7AGCHZFrLIh9VzkAyJ1vCghIjzrjQk74G88JCNJRDqwusChhjQgGuQGOuPdGG6WWU0GTcB71oe+PbQBWJO7Ch/YEWAJQs79o4GrTummavlR5UiHSaoS2imdr06Zi74buGLQLdS3ElLj3rKXHrMJv2l4oS1Af3P4ZeYy6TuBSQJ6w0KHd6LoRGqCogOBBglp/PfdCzP3lWRM0hiGE8E+Wl5f/yU5benmnAQIQ/IbDhw//1T179vxeDhCaWg6Qn7UOeBYFL412HIUEbWScgsdRERoxFDtW/EoJEIyoMZeXI3KORAEHEKCMaThz+nQVE4AZDVWcQRWIWNkQ6q2ezUJK9aZOsHm+pK5k98ZqNgOXXq6DFxGciMWUYDUAIMwvzFcdFIocig7Cm+4FlJOzL7D0acqlguvQwfGsdFMw7oAuCgsIVsHQFRKr05ywzp1vAwgVa9WzLehy4iiD9+M7YHQ6n9uzWDUV1JOe3taNtQKNum7GBQh8z4w30pk8bdqVNxChRQl9irOCUoq8FAZydZI777UxXkPTPyCBM1DY/odtm7gHLCmwrAC6EdDLesG5QbyV+dtCn8KBdTGwfVK22PihmDVB5H/v/Pnzt166dAlrIsB8ZA0hw1bDWK7fSYAwWFr55ptvfgDLlGuDjSn2EkhgQ/FgwB5r4l5Q87zGIVB4QLnjb8QQpNwMKANW5cO9kZ57HGD0gOtgQeD3mdNnQmcDI9R64SOxIDA4sf9Mui10f/2D6rjavtTNMFhFkYsi1TMY1tfDntnZQRSxjT1AeSHI8EFkcWpxJKRBnQAQuMqktRww9kBHBRydM0BxUgGBPZjtIqUEbcT1WHr/BGaqdUMhzWJaQT9M8YdRdrH7ap60JNBVos/VttzIn3DAbb/tjI0SGIg9e6pO2tSXtWiwn0JG4B8BITVgyNUVnp+zfAAIGHTR4qZuBZUXhAZP3qvMtpDgWRRsfIyCg01/+fLld5w7dw47sGE2w9pOcDPsFEAYLK184MCBW+fn5wEIQ7sXPPeD7QijAgQSJn3lEBxotFwPIbd+OxQn/GooM0fmjEWAEgYk0KIAMz6WYO6PRAECsChwpkK97wKsBvW0Rj7z4NlNkCLqmkr3WuxBf3ojYAUAgHvhGfCb0fcoF90LEGwPPPBA0lKC+oCJEM8Kywp+66JIuv6BKlALCNrJ24z224z02lyTE36758dXA20UXu4ae56QgH5A62GubcZG4WjvdDdxum9sQONZHVIWBqvIU5aANm9E64XWPs5gYTAq5Utp/qwPDJLgcgEYcKEojTtQSPDiEGwd2veTczNQrnsuBgWg+vnes7y8/H3iZpj4NRF2EiBUSyvfeOON3zw1NfWLOUDIWQ5wvQWEUbgXdJSIv+1oEY1G10OAOQx+Z/yz0b22U2NeL83rHJnjWy0JyAO/z509G7CIEVwM10Ze12IQ+osliWtBrAfs0NyciYBQNfJ6XYS19bXBinUoE2IPAAoYGUCA0dKBa0D4WCs+tw0u0gGCuJKgBwg26AhlswGKOSGcU+a5822go1Tw7abbmhrIKfs2StLLk6NQAgJn2eiome3VKmqOdNHmNd6Co2GVgSkl7w16mjxfm7pKQQrN9Vx6ngClLgevTlgftKJAznEGAy0qdM9R5tHCwuMq83SQYSGGMiAGCOpyoBWBQGgDFpkW3xcuXLjj6aefRvQ1ll6eeDfDTgGEwdLKx44dW+50OnP6QlPuhRhIWICI0bjep5TYCQb6rcEtakXg1DWY31PBisgLHQMBi1xfgJCAjkZ3Bd0N+A3XRbUfgvjeqoWUuJnTpo2c6imOtMxUOzwjLLEPOYQDWA3QARA1jPuj7gkF/EZ5AAuckolo/NTGTIQ1wBLMhLAe4J665oHOc1ZTsx2l6UgkpuhzAJA7vwsIW6PEx3mXNkovd03sPI5r/7fTWrW9qQIjIPOb7T5lDSiBgcEAQGYoxYBBg/pK30eunpiPWlUpE1W5sl5U2dNiCfkCQMA3ZzkRICwklFgR9Nl4Xzu4U1jwACFmTdDrrly58pUPP/wwll7eEW6GnQAIg6WVFxYWXnvDDTfcl7Ie8JznPtDrRu1eQOPUjm4JmEoWjYWdgZG8UIzwuefWRED54ZLA0r0aCAjIUEhg4CK+YfZ/ul5roQperGYy9F0OiDsAPFTxB1wDQXqKjsTZ+LlwD2MNkD9XSUM5ACQKB/gN60FO6eIaWA/wHJi+pcJR4UBXkKPgtcJFO3gbZZ4ra5s8S4XrbrqtqYFSJZZSxqlRcuy6AWzLfi3sZywTFZpnLcvdMwcIuBfS2CA77euEFCpaDQr2Bkkp64WtB9u32IdVPtoYIi0HLSkMWFYYsK4FWlr47bkYrB5gebU+tGy08nouBYIArUSsY4WJXq937+rq6tfLDo8T7WbYKYAA98L+G2+88b/rdrs/mQIEJXCbLgUIw7oXtGNq47INjoCgZnFuLoMFcaB4cx+MsrF6GKcSwqKgkODBAvJ86sknAxY0mqpjElhmxCJUddOvIJgMqm92DMY2kN65dCrdCoAEhQOdZYFNmVIBmLgl6h7PxN34cL8UIHCkwPJZE+UuIORa0O757QIEW/PWeqDKNqWMY0o5BgiUSbReoM+gz3G9AMY1oC9SoXEVRAYXc6SuAX+lcKCyF3/zua2F1muZtCDotyp9tTBo2QgMdlChlpiYhUQHeAQWVfhqEVLLAeW7PcbfyPfZZ5+984knnnhkJ+zwuBMAAWtoYLWQgzfddNNqp9PZOyr3wkBBcltkaZ22c+bcC7ZjUnlpg1eFS58kOio+jEWAJSEVi8D8MJ0HZn4PEgAc6Nz4Rv74xv3wzWDI5y5e7C/5u7ExsCJox0XHQXp+02KhFgOuFofRP8pBSOFKj9hNLbZpjQoWxh4gD1oPrNUgNorJ+XY9gZOzEOTOt8lzVyVPVg1sNyB49y89pjWZsxjQsslZVJALsEACDLjompr1mTdH5gyMRJqzZ89WOyTqlusqQ3NvOFfndnCno3sOCjigUDejBYfYb+ah33pPWz7GiRAQbDwCyqIzp2JuJA1WrGPQvvnMmTP/sXYzTPTSy5MOCCgf1j7YNzc396YDBw58yJJoSfyBbcSelcHraCkQ0XJo/jp61UAkKl9Cgio2BhpC0cJXjxF6iZLyIAF5EA68b/jtcJzfnHXAqZMMMEQ+nJWAbw1AJCTQnQAI4H0ZMHn69OlsTAXqBPc9fPhwBSOEI8IAYxBQv3Z6I+vTAoLWW6wOc3WbO78LCDlVMPnnc8rKe4LcNbHzpYq/NF0TQKA1AH0Ukf6IYUJf0nUaYutxsB/S348+CpmGnVifeuqpqs+zX5a+8VQd6iAsJqNj8QSeFcEDBearVgSFDy0f5TetCWoV0GPqUmB901LjuRk2NjbuX1lZ+bKdsMPjTgCEaufGm2666Yc7nc4PWsWsL9RrVJ4it36nUbkXSOsWBrSM6o8ifXKqDzowOrKupJfreDDL091AZY+Oi3wIAejY+K3fUO44T/cELQCwFBAG7LdaDJhO3RvMD9MsvU1Z7LOg3jFFCasJYrEouCxwTHdms2ZCCggLWlbIqTXE3jcHALnzu4CQa5WTfz6n7K8HQKBCQx+FhRJ9DR/GCFGxWeBQOYr+RtciLH2Ia8K/U6dOBSx65q3kmHr7uXqPyWZV7LQiqDtBAcG6JGwshxeLoHCi5bexCNbNYIHAWhE8VwOOPfXUU2+sl17mbIaJXHp50gEB7oXZffv2LS4sLJzqdDrVkt1sZCXWAw8orEUhBwhe47FgovexjcprcBokBGWKzoqOiE6MkTQIPee7Z77osJgCCSVvIQGdWuFAoYAQQTigRYDfgABcTwuCPW/hAIsgIY7CWk5iwhZlwaJIqAsEaKLedPVACwc6vYsdk5ClU6R4v10LwuQr6u0qYU5R7XRAQNvHwAN9FBY69GPsgsmdMDHbCTEICgPeCF6teRggAC4gbyCn0Nc/+clPjgQSOLiyZfCAQWHBQoIXd2DhQa+PPb/KEJXnnptBrQWUQ9aCoG6GOo/vWV1dfe+k7/A4yYAwcC8sLi5+0ezs7B+oEiZFxuiXaS0MxExXXj48VgII1kqgQS5WUbGR4bhaEfA3Oh86IawI6Mwl8QgoJxQrtjdFObitMC0JalGwlgPPgqABhx4UMD+ko3vk3LlzlZIv/SAPuEgACZjWiGfXzs2/ubWxjgrUeqBTxmw97wJC6dt4+aW7ngGB8Iy+C8sB+hgsdIQD+tSh8AHolatgYTq84YfuqZdlnwqr/2olPL/y3KZgYQYpKiTAlXj//fcPIKGkJXl1r9bXHLQQGhgn4f1uY0XwdAqO6awKtQDn3Ayp2QwhhJPLy8tfVLsZJnaHx0kGhMHOjTfddNNPdTqdv+NZA1LmMZteG4CCQ8oaEAMRhQcLLgoHOOf91shYBhBx2iNNgYAEmN1LRuQsD0YFEApQ3lyXgDECGiugSl4tCAoHTM/zej3hAGVGlDODLUsEBAQNAizhUgFUwELhwYGdtkTBYa0HBIZdQCip/d00tr+W1kgOKmLnYwrR3rc0nZV59jfkCfoq+g8gHJY9BP+iH1tZgnvCRXnbu24PR7/7WDWJabYzG6787gth+ZePb1rNlFuu0+UAlyVk1b333ltZPCETcM+STwoSUlYEhQe6CrwZDWo1wDU65ZHX4bj+bQePfA6VL/zbC1y061vobw0E5QDx0qVLX3j+/PmHZNGkiXMzTCog6M6Nhw8ePAj3QvW+UordNqwSQBi1e0GBgFTsWRNs4ItCAsoEJQ/XAyABir4JJOC+AAWYFum6UGVvLQv2N90S3I1RYQJlwnmMSCB4cqsjWmEB4QIwQNkwooHgYgfWEYGFA3Zk5OeZ9Lz62bUglIjql2eanLL3aiV3zSQAAsoNWAd033HHHYN+mpMhb3/fO8Lh24/0d3XtdMLhZw+Hj73rw1FA4BbbcFVAHvzWb/3WYKnjXD3FAI3Xod+WWhFUTiBfHWgQALz4BIUDlS0eJBAKKNubuhkYh2DdDBsbG9+/srLyK5O8w+MkAwJ3bnznzMzM79pG1ST+wEJFDDJ4D2tRsA3envcsCCpgvJgE5KENjYBQT4Op3ARQpOjYXBGxCSTw/gANkD4DINGxuVeCtSzob8KBTl3kTmyIkSgJQvTgACMOjGq4tTHSKBjYv9m52XHVLaOuml1AeHkq+rZPXaLESkb4qdE8z5VaBkrTpe4J+QFLAbc7Rl8FxKdclbOv3xvu+s03hoW1+bD3mb1hen46LM4cDKs/fjw889lnBvuhqAWB0x8hH7DbLIIWP/OZz1SyBulynxRMWUCgjFD5THmgroQcEJRaEawesPJbrb/eQE8DFfG3Lq+t50IIZ5eXl78whPBsCOHqJC69PKmAwJ0bsTjS/9Ptdr89ZT2wDce+YDZGG/CiFgftzNp4LYhYGLB5eKNWDxB4P+tqICigUXHVQihmLFecGwWkOiWeA8qZ/kOk5dREQgN/02KAayhcYDHILQWdur9aDpAPgxK1g1urgQYg6ehCN3hR/6C9/64FISemX77nr0dAYGAi5AXWOgAcwMqXc//d8u7bw9LX3xhuCDeEx37ybLjrH7whzExNh6mPhvDgz39uAAi6iqFuHIUYB/x7z3veU+2NAPlRUr85IIoN7DTmwEKBtSLoAMNzWVp3g9Uz7CEeJFg3gzd4ibkZ6Ca9ePHiOx5//PG/qNdEwN4ME+VmmERAUPfC0YWFBSyOVL2n1Mjfmom8F+1FxFrKb2I9sCCC31RKqtB4nA2K12mjU7LUyHwQOhQ7lCogITcaaCLy0WG4bzrqhqNwzqqIKdgm90A94B6wZGBKJp4D/krcywskQno7LUnrkkSu0xptjId2aq+suefKnW+TZ5M62007/hrwrICpu3JUm0qTGhXb63LK0cql2H01H/QNxh5gVI/g35JBxd3vf0uYOTgbZh6YCp/8no+EL/7tLw3zR+fDkXA4/Pn33humev2pjrphFPo0IQFAADD4yEc+Ut0TsOANrNrUgQ7AVH4TDKwlIWVFsPKGOsODBNUflN8WEqjkNS7BxiGovFKLp8xi+19PnTr1S/VsBlgRdgEh0/05e+GGxcXFr5yZmXmPBYQm7gVV4jEijQmLmIUhBhWqWCwg4BoFBE2rQTAa+UprAjogTIY4B0jAQkr4u40iG7/ovXYHvCeUHWBAd4nCQSq4yAYPsY7srAXWQcxy01SZt63Tttdt5ft4Od/LKmSvb3tKoaTO7KCgjSK0924DCJAJAIKbb765ij2AlS5nPZj78kPh9h+9M3TWO+Gpnzwfzn3gdLjp+24Lr/umN4bF2YXw+L88Gy589InKimAtCGpF4OqtH/jAB6pYhBI3Q8kzN7UiMEgy5qqMQQLBAmVKwQ0HUfy26yJ4gYrqZnCmOz62urr6ltrNgNkME7XD4yRaEOheOHDkyJFfmJqa+ibbkEoAIWZ18KwQwwCCXusBAukzRqG4PmZJICCggaHDYRSO9FCyMB1ipN8mLqFE6A2ThlYACArMVoAVBFADocWRmK6PThiwwGDrVteO0DrTOtZyt3ExtFX0ba8bpp53r03XgCcDYgOGXF0qBKjFSv9mX94uQIA8ACDccsstVdwS+lxOPtz+03eFA286FA6s7Q+f+rYPh6tPXQmzr90XXvdzbwtHu0vhwMm94XP/56eTgABQQB/HYOC3f/u3q5gEWBhKPjlLSmxwqJYDa0VQeeIBgT1mrRExeFQZroDANkDlTwswLQwqtywg4PelS5f+2qOPPvqp2oowUW6GSQOEgXthdnb22MGDB0/EFL02Pr5QfbGphmUpMQYIHoh497UKymv02lE5GrbXqSVBGxsJFOXBSBwdEn5GgAK+J8magDIydgIzKfDhKomsdzXtxf7Wd6nWAzXTWSuMFUi7gFAioq+vNLEBgJUR+js2kmXN2HbkmZo1rbVqefLAu2dOWXpvitfgngQErEwKUz/3XYm94c6+brj7vW8L3c5U6Hx8PfzFu/98kPTVv/imsHj7UnjNntvDJ//Hj4XuWn99FWtJABTQsgDXwnvf+94KEErjEGJ178lk+86slZGKP2VFiFktFTKsfrCDDvv+HavASwITdbCnwen4e319/d2nTp36WdnhcWLcDJMICNi58YalpaWvn56e/tcxRc+XFuvoVlDkgME2VI8ibQe2SkzL5CkrFTRecF2s4dFsxZUVMTKHzw95wJIABQzfIxvqdoh8dE4ID5QNYMBlngExEFyoK29pVKV36xMkQNkORdhKuRcsfNlOHqujtpaAttdtx7u63u7p9XWVC7FAND3u9V0PQLXNaR/Wv62FIaqg69iqlNyIwYW9BveEDIAFAS499LvcRmmHv/vmcON33BY6V7vh8X94Mjz+ifODoh7+27eEo991a7h15qZw5Xcuhkd+/+FkHAIgAW4GAgL6f67spc8dk+UWEFTGxKwIKUDw8ovJcX3HpW4GLz6hlm1Pra6uvmES3QyTBggD98LRo0d/sdvtfoNtRCXuBSr7FCRYYGgDCCyLVQ62Y6RGIFbZUbHFrAlsjFDGtCbAzwhQgElxq0EBdQDhAIGA8mD0gDJijQOUB39rp1RSVziwf7MOa8IebD0dAyuvI7eBgDaKvs0115uS3o7n8fo3R5FsT/zNUaFnSdCye0otZ0Fgm1T/dImlyxtw2HrMKVm1ICAAGIDAnWFz8Qev+dU3htkb94eFF+bDR//WH4aNK73B7fe8al94zc+9OezZOx1e89ht4dM/8olNFgTIHwYq6pTH3/u936tkQGmgopW73ruw1gTK3RgE0n3Jd27XRii1IniDRORpZZAXfEirL90MlGOEBMp3Hr9y5cqXnTt37r5JczNMGiBgGa59s7OzN3nuBb5w24hyVgRtUDYP2/gUSGLnmAb5esohBgg4ruRpRx12lMu0bIDWl4X06IiY5YC8IRComCEsvM1YRiHISeocNUAgwHKAD8yaWPwIZVEYiJkDFeaYRsvIZ7ajNVtXpYCQU+a58179tblmFO/h5ZqHCm7rolL/sged7IOah6eEU32Y9e65Gjxrl4KDWiDGBQiQBxgwpPZymbl9T7jrV94SNl7shvmT+8OFDz/Wj5/Hv24IL2xcDjd83cEwc3Q63LbnlnDyB/9zWH9yfQAJ6mogKMCt8P73v78xIMQgwZO/VtbHrAh6vA0gWPjEe2Pb4SBOB3cxN4MHCDroEevDj62urv7TSXMzTBIgoCyVe2FxcfEbZ2ZmfllfkgcHOirQRha7jsctMNgG6pGjJ0Q8QEiNQCwgKAB4SkYFkEICGx0bF/KFeQ9uB3QGpIWixpRIgAKtCkjPxt1EubA+IBTwD4IA9wMUABJQHtwHYIB7UTCznq3rQAW3AoKtd2s90PrYBYQmb/D6SKv9WttUbNXNHAR4bSgFC1Y5KSiwX2mfVrjVUSZhVxVOiZKMvUXmg76Hfl8CCDf/H7eHxa++KWxc7YRwJYSNF0PYWKunk3dD6MxshLAnhM7sRti/b1+44f+bDmd+4+RLrAiMS+DKin/0R39UAQKCFq21N9UKvXovlek6EOHfnhVBA6NLrQjUMZ4VSQGBMpmWAc+dwGNeu+j1ehPpZpgkQIB7YRZbOx89evSfd7vdv8UGZRW7HveEgKU/m8YCRBtAyDVoKzyYXkcQ/NuarEirntBhWq+RIT2Ut0YRIz19k/jGyF6jbLWR23pDJ8I/mhPR6WGxYOfCtYAQuBLUYqAAoJ1XIU+tBfb9qHtFBavWxy4gXB9Kv+QpbLvUYDT8HVs3w+at1jtvROiVxbZNO2L1ZEfM8kfgZZtWWKcsSAFKDhAQ60NAwBTHlAXh7j98c5hZ2Bt6z/XC2tPrIax1wgYn2AEQpvqQMH14JnT2boQ7nn5FuP/vfPIlFgS1JOA9YF8GAkJMRqaew57TPDggs6AWs05a61ITQKAMi4EbZRTLG7McqdWXabyVFWs5/aVnz579ZL1o0tokrIkwSYBQuRf27t17dH5+fsUb5ZfEH1jlb/OJjSq0IdqRbJNOa9Paju8BgjVVUnDoCINggHOeOYvn+Y3nhjLHSB90z7zU5MUVCVVwsmMQDDSwkPeGEOKyy7if+n2188b+ZqeLvQt9Fn1urbtdQChRrTs/jW1Dai62YKDC3MKACnRrifKsd3YQQrhV4I39bQcHav2zI0tbriayxg6gCAiIQWBwsNcC9v2V/eG1v/CGsHE1hM//s8fD2X95KtpQXvWrrwsH3jQXDu87FE5/z0roPbzZzUCrIiwJkAP33XffYIBin0V/e3WeG3RZuayy3bNWevEoHiR406sthHhlU9lkLUQKA9aqYKdrU56vr6//o5MnT/7MJLkZJgUQ1L3wzTMzM79oFb1tHDoa9RQNr6mWcgoAACAASURBVI/FH8Qar3ef0k4bgwMKLu0UOVDANWhkCgkWJCwUsKHpCJwjJZoA+c1O4UkGtWwAIiB4YH3QFRZzIKAwZ60FKsjte1ZrSmqktQsIO1/5p55A24XGFdCqpULd5mPbkLVIxfpezIKgQJuLeVCgZh/R/qRmZqsoYqASU5wWEDAyBbhDWaO/xpZGf/Wv3RUOfOF8mFnfEx76G/eHi8vYCsD/HPqGw+HWn3hlmN2zJ+z9wEw4/Y9XN+3NQEDAN9ZeAJjQ9ag5xp7BPnNO1o7aiuBBhMo2lWOefFcLrIUEz3pg48gUHjY2Ni6srKy8cZJmM0wKIAzcC0eOHPm5TqfzLVZxxOIGNF0KFDwijDXGFPnaTpnqBDHrAa7xRsN21KONzxuVKDB4QtGeJ3ToM2gH4XkFD30+fQe23tlxU2ksGNh6Tj2Dff5dQLh+AUHhXt0JhAM1Kdu+ZK1Pavplf7BWqZhlypMtOBYzXdPdoaNULSv7M10NuqQ6FYfXzkvkEfsuZzLAHQj330ugoxvCG+//gtDdNxXmVvaHD3/5B5MNaeoV0+GeP3lr6EyHcMvzN4c//7KPDtyMCgf4+/7776/gAFZLrkWgfT51IysrbVr7LnheBx8xVwOuVaC0fyvU5ayhHHAp9Fk567kbrOWIbgZcq+7iq1evTpSbYVIAge6Fw3Nzcyc9amsCCJ71QUcB9m+r5LVD5og2BgjaMdUKoALN/s28VFFac6gHCszHCkBrvrQA4oGKljVmTdGRkZr22HnsdZregzgKN2v50PKOGhBUmFiFw/ahpmFVKlZ4xUZ+168KH8+TWSVARQvlo+4EVTopILCC2rYvvHcoM8bVqKJg26Pwxsic+xp4VgQtK86jzAQGKihtVzpyhLKIxQV5CjY1GudWz3guzGiycQhL33ck3Pq/3R5CL4Rz330mPPEnj2df5it/47Vh4UsWwsLUQjj9P5wMa5+4Wr0PdUPiPufOnasAwS6SlLOAaN+OpbVtw8oaHQB6EMdjfCd8h3wOXu8Bgqd7rKy2Msy2PWtN0OmOJp7sJ06ePPl/TYqbYRIAYeBeOHTo0LfMzMz8C6vgUfn2JXlEmUqjeYwDEGzDLgGEmGJRKPD+ViVuRz86SrEKVi0SnvJVYIhBUgq+VJixjDHIUKnkWUIUemzaEgVt69a2F6/9xI7Z4+jQDPiMQV5W6u4m2FQDWsdqNVA40DZJBauAoILWC+KF8oJ/nu+PLjOO6C0EUqmo8oeLDgoQx7BAGcBBlY4qTfs3n0vbDO6pgKCKIyYfUgoXeTEoma4GzefuD90T9t6xN+zv7A+f/iv3hedPPpdtiQe//lC442dfHaY70+HAx/aHz33vZwd1wGc8efJkBVp2H4ZSOIjJHhbOyiOvP1tIUCggpNl3qm1NIYHpqDc8OaYySuGT7UimMFZtzoMEx9pwfnV19a0hhIuhml+yvXszTAIgDNwLhw8f/ulut/sdVgk1sR5YJaUwEFNu2ghtg/YaeO5YCRzkFIuO/lXpk1QVErSHWwjwSNcqX08Q5Z7R1qWWwYMLLS/PW+uINf16deSV1TvGvFRoxNqC1y5KYIHPzOllWUm7m8CtAQsHOjq1LjC1kqlit75dCl5M+cP0X5jeocwJBSq8S1+LKhfO7GEgMGbyYMSuZSfcUInytyoftVRYUNA2bGVKrMxIRysC7sspzkx/y8/cGjoznbDv/L5w4scfKnr07o1T4eYfvaVKO//sfFh+9/FqtUY+K6dU03rgWYCLblS7XmNQYfskrQjqZtD+rpYeujzYnhTq1NJjocKDDitvvAFOzM2gbTbmZnjhhRf+8iOPPHL/JMxmmARAoHthcW5ubrXb7eJ39WGDaAMIpULfKrYcIOQar1VqVpHbEb/XcTSNtSAQEGKAoY1XrQTWYlBSDlu2kmfX98YOzGO2bBZUFG5Kno/l02dBp1Pa179ZHgswpTDgCR+9FuWH3xdKaPdTVgMeHKhi1XelypSC1oIBfx87dqwamXN1UW5sFhuVl5V2cyoqE25WBBDB34899thLQEH99WrWhmxTawghgS4H9gntD7F+yNLhGgAR/hESRvncuM+RI0eqvJEvplTSVWN3ccyVNSb/vOty/dZT5jhmZykoJFhgQHlicQgKPrbc1i1cAgg7wc2w3YAwcC8sLS39zampqX9lFTtfmCoeT/lPqntBG5KnIEsAwUKBVfxWUXrK1aPeVDrbQVXZe2UmCKUgIgYsLJsKw1JAwLXsaJ6iVwjxhKQChNfG7DGam2MBcywDQAE+691PvAb0fbE+OdrWUSHbv8aEeLMBcB5gAMUIMMC3Df4b1/vgKBTBgQAFWBYACoxH4HoBCgo8x75DUFBI4EZsCsElShfXcZE03AdWhVFCAp4TFgMsjoa/AQiAI6vE29Z3TN7E+rhnReAxgpzGmGhMS8zNoNdb+LB16QECZZO6HErcDBsbGw+trKy8U9wMWAN7WzZw2m5A0NkLP9XpdN5llb9nrvJGiB40qHCPAQQbsFUUeq028hzZasNhx7cKPNVR7cje/o65ENTSYDtlyf1iIMPnTT2XpkkJrxggqBKPlcODIHQ2rjfvtQn1T2u92TLmhJoVShTs3MVOfcsqSPC8MDvHppu1FZ7Xw3X6vmJwoOBoLQY6wsa5w4cPD/YAAZilFgkad/0BAgAIWDAIf2PqH9oI24uFBVVuHiRYd0gO1vl86Btoe9wsbZS7vhKIuKoq10HIycrSus8BAvKxuiFmQRilFcHTEzqAU5mjliGFWwu6am3gVPXnn3/+7Y8++ih8QBhlbNuiSdsJCNzaeV8I4eDRo0eXO50OVlKsPhTKbdwLdtTnKQ/bUEsAITU69hSYAkIb6wEVp6dAU6NxPWchpUQBe89pOyyfR9PGOrVCjpYtB04e2PB6VboqGPTda6AarrvjjjuqESZHD56wigEgjz/66KNhZWWlap9cdhqBa/RxekIKghlmWJRn93Otb6OuqGg4sqay5HtOWQ1Qn7gOu4diJAurTW6Doq2sfyhNjLIRB4HysbwWFDjyVoWH5+aqpwpDrJcUiLMPIA9aEuj2ogIaph607QOE0P4983uujG3LYIGd+ShosTxqBVBXA6HBuhvUyqBgoUDiPau2V9t2aUlQi4J1jem5us3rbIYXsSxO2/oa5rrtBoRq74VDhw591fT09G94o3xtDAoPtpFYCPAggcdySkCvzRGxVZCxl1ECCDnrgT2vCjalhGMWhJgCtvUTgwFbTzGIsGVT8EkBi1c+zh7woE/bBIUjvqFE3va2t1WjOhVm+pz2mb3fFB4Qun/8x39cCXzkBxMrhbwHCHxGbmQ1TIfd6dfqO/LgQNu0DeiybgVYDfAuuN25dVFNQl3hGdFGMHsC7RCbKOnyxAoLVFaEejyvF5MQ68+erCJocMEzxuhwpNukjti2UWZYDtjuPYUZk6FN7hdLq32zxIpASND65bGYq4FAQIj1+rV9D7QY4FprvVQ3g7ZrtYwpJGxsbNy3srLytdvtZthOQBhs7Xz48OGf7Ha7f9fCQInSz6VR8osBQgxCbAONgYUKNYUYDwpSnXsYQOB91ZRuFbEtjzfi1zR83pJjMdjQMsQAx6s/r+ych27fo3ZerQdGCb/lLW+p4IAby+hIQwVZ6v1SUDAIC6PVP/uzP6vyhKCEwIz5LLW8KNOFCxcqAfJy/PBdEQ5szIGOvjjKsgsKIc3Ro0erUTn3AZn0ukQ7QWwCrAnW5aCQQHcL27+FBHUTpGSJHbjQHadTO1nXOeBg20fZuLUz2jv6gtdnVAaO673YASLvY60IKhuaAIK9LgX+Kr+0TmOQQLlk3WbqasDfL7zwwlvPnTu3up1bQG8XINC9sDeEsHDkyJEHut3ugm1Y43AveGSrkBFr3LGO4ClR2ylKrAcUCKWQoPfQ/K3iiUFKTijE8mf9WWjwaNoDkpjASAEGhBtG31aZWyGh74iCFfm+4x3vGNwWbYr3ilkQYtYEjgYZvY2d6/A3hKVuYmWFiQICzuEdQUnAGvJy+mi92DUCOGrmKMxaC/g+8Q6WlpYqlw3aRFu3Dd4XpuotLCwMFvxRwFMFzVE4YATLCbeNKcEzI5gPLhFYPfCs3CqZkIBvdYFxVAmlQpcDFQ+VkdeGPHlFq5paJTQvhXIP5CzIpODAk7OjbOsxQPAUOQGH32pRwLGYFQH1a90SNn8rt7Q+bTwC3Ts2UJHvhe+a371eT/dm2BY3w3YCwjR2bjx06NCXTE9Pv09fuDdCVMXtKQYei0GFzdPLL0W+owIEpU1PCQ8LCCkYSYGElss+a0p5554ndl6FUSoPCDPOBlCQ8/5WWNMpRF/yJV9SCWMLNd77jkED2w995fj9wQ9+sLIaEBA4osoBAu8LJQdLxMvhY+FA1wtg3ebiDXANlCvgSq1JpfWH0TssDxjJU0moQPf6OI/pPHoG/2HlQFgxmnxwX1icADm4Fvfn/iiqgLkSI9stLQC4t8bWsB+VKmvNz5q6ec6DAwKdvsfcc+fKlLte+6eVQZp3iZvBgwTretB4hBgYqIUiBmFqRSDwWmtC4WyGP1lZWfm27XQzbBcgDNwLS0tLP9btdr+3BBC8NBYIvDiGEhhIKYYYDatCsso+di6nGFWRxWDBAwvmq6PjmJUgNfIogYHcM9iyeILAszjYdNxwxhsttAEEWldsO/Ler5cG6XSxmz/90z+tFA0EPEaGTQCB+WMk2VTJlArWSUpnlY6ukIhyKhyo6ZWWA6SHH//JJ5+sRvCxtu09M6DgxhtvrN4PPrQ6aP/y8rODDsoWKgnkh7KgTGfPni2ubuRLSMAsF9ybcKAWBSop9idaERQSVKmnChBT1p41Qp/bus1UluYeeFSAELuPlQuoCwUBe95aDujm4jUKCJ47Qt+/ygx9TgKBBwk8x8GLBWLrYuj1er1nn3329RcuXDi/XW6G7QAE3BOLIWHGwvzS0tJHut3uHVYgt3EvWKXhvUTbaPWaWOOPNfQUBDCvEoVbajXI5eXBhfdMKf937h4eHHhAkBPgOUDgHG77DlOwoO9DLQhwMQxrQVChCWGOD2IQcJxTvZoCAvMEICB47Xr9sI/hmyNRrSsrOK17AbIA7gAoYlgOcm2L9YjFfAAGeF8079oYHfxGuWJ58pxVDoQNKnHkc+bMmSq+pOSDfOHmgCUBkIgP4YAWBVoRWH/WimDXSGgKCCkFrue8dCXKvyRNSV1RBqSsCFb2a5vTv2PuBbZNDxZ4vYWl2PNpG7NuBg+E7TEFhbW1tf/l9OnTvxxCwJrYmO64pcFL2wUIQPkb5ubm3jA7O3uvNRGhQYwDEDw4UAVk/87RsgcIpNiUItVOYeHAKlvtFCmlWmJtUGjRcnrlsWlTabxnzQnx1LNwLXkLjZ4Q4DvTc8jbAwQFI5u3B5Pe+6eCw7kPfehDIwEElAWAQEVRKjR3QjornDX2gOW3FgMFBKSBoiccpOCW+UGxvvrVr64UMNsCIQRpLCR4bdFTkFbpEA74DRCBReDEiRNF0y2RHyxPjKmAzGMQIGGBlhY+m0ICgzfbWhFKFX9pOtsexw0Its/q/Ww8CRW/KnumUXdCGyuClaUeIKhlQV076i7y/t7Y2Hjf6urq99RuBizRuqVzpbcDEOBewBDswOLi4o9MTU39QE4ReMKbL1zPtYk/aAsIHhxQUcbOpRRpqRUhpqj1+pRytiNp26mHsSDkICIHIjiPKGsvIFFBIPa31nsMELQzpyAh1i7GBQi4H5QgAuGup48KZIUD1r3CAYO11D8LOOBshRI4QIzC7bffPnBZ8Bo1pWs/1H6DMrF98Lg3qLDQo6ZqjvpPnz5draSY++Bazm5ATIoCAiDBrg/BOtI1EvhsuXvFBkh6XRMYyAFA7nyuvB5wpKwIbWIRqEdSkKBwYd1MbDMqLyhj9dtaEjw3A/sCoba+5oUnn3zy7qeffvqpetEkAMKWraq41YCgsxfmDh8+/B86nc5braD2LAqaRjtoChDsKCDWQbzRQmmnySnjnNK0Cjum6EdtPfA6Z+xZUvdmPiVpcoCAERFGYB4wDgMIb3zjG6sFazwLggefKWhUQPjwhz88MgsC6wZKpW2UfFOBuxXpVQBroBuVNM2pdiojBChmGOAblpWSlRFvvvnmyqWg08jUcuBBuEKBgoNtA9rO2T5j5mpCAtwN2OUw90F6BFACCACIXGeAsKAzG/g8Nh4hB/7e85TCQEzR5wAgdz5XL00BgXqB18WsCKrk21gRVP/wb0/+WVBQSCixIkjf+LunT59+b70FNGYzXNeAAPfCvv3799++b9++z26Xe8EqHDaqEsrmtSnTZGokbkcpo7QeWCHnKeVSEIjl1dbKkAIEKALAAX3CnuJWAeD9zXdHAqffGQvqQHkgViCm/C2UxNLRDIzzowYElAFlfuSRR1pP32sqdMeZnu+II2z1qeO+KTiAUsRSxVCyuc2vcJ9XvOIVlameew5Yi0HM+mCFva0PbzSo/V+fkc/JaXNcGGl5eTkbNwE4QDvlMtFoqxqToMGxVC469dEGXnrvtUS2lUJDDKD0vqMGhJjctYNHleV2MKlQR92j0xwJtNbVwOP8ZllUf1n5FgMEQp61Iig0aFzCxsbGb6+urn5vHYeAudFbFoew1RYEuhcwvfEHp6enf9gb5adGkKrYNV2J1cFrvPb+HrXGjrUFBOaXsxZYcLDXWQWeG0XE8vPybXKsBBg8wavHYEbmKDH1/j1hYIWABwhQHDA9Q+jG8o9BiZZTLQj33nvvSC0ILBdiMM6fR+Dyzv5QmHJKo87vVwFogxJxDjMPSoIScY/bbrttYG1gvmyTBE5COWuUioLuDBXmyJPXs22x7NYiwbR2JMq9CaDY0baPHz+ehATkw6BFTOPUZbx1jQSWh3WGdk13Q67/Xy+AYOWep0Pse2a94TiVP/7m9FW+3xwgeIGKMRDy3FsKrjE3g/aNOo+nzp079+bLly8jkvmFOg5hS6wIWwkIdC9gGDe3tLT0691u98s8YZ0DBL4kFeg2/iDVaBQycsQbI+q2cDAu6wE7Tc46EDtvO904AcGWAaMmxB3k3rt2cu9vXu8BAkah6JB33nnnYPETbT85OGDeakEYFyDgXvBH7+SZDXw/1nrAdqWxBxYQYG7HMTx/Lu7glltuqWY4eIpeoYDvD4pAg/s0CBACilK3Ura9XvV7o7cR1nvr1T2mEEhYQyYFOSHBwgTBCAoesLO6ikXx4h/UFaZy0tXA2QxqSaByYxtXQLBWk9jAhsdjsi13Xer6nDwdBfIqwNmyqFxQOe8BAmHAQoF9j6xzTc80+m2fzQMEQpyFgJjLQaxsX3f69Ol76+mOW+Zm2GpAwPTGG/bu3Xv4wIEDD3W73f7E5CE3Z7LKwgr7WEfIEXWMDL0GqsIoNaIeJSDY+6SEac56MEpASEGIvQ99zJ4wz8Gjntc2EAMEgAgEMEacORiJAQOEBae4feQjHxmLBYHtCwvxTNLmQ02EuwpdNY/z/VOh29gDXAdXwRNPPJFdaRIBibfeemuluGl9osUA33hXaAs6oIB1Bop7BmsiYLOoTid0ujBsbv4MAGFjI/R6WGSrF3rrvdDb6IX19V4InVDFChA4+M44UGEbYRp8lwQuwrWAwEzEXSBPwAGOMR6BbhrWI54b8It2Yq0nJYo+JwObwsR2AwLub83+NhZB3QxMry4FCwwWEHQwqvEM1kpFeazWKWtBiLkV+C4FJH7t5MmTP1C7GTCbYUvcDFsJCOpe+Japqal/vl3xB1Y5qDIoaeApQNgqOPAUegwQtEzDWhBSz8e6awIIML/qls0xxayjgdjffK8pQIAywRQ4jFJjkJAqg7oYxgkIKAOUGeIRdtqHsGZ98uw3nnuBoABrAEAO7SLVjqA0YQ2igKXpH/dQOGB0+otXr4YeljaemQndqSl3QZ1NfQpgQCtCDQkDBdxbr+/bC1Mz05UCJ6AQSJAXIYEbhOH7/vvvH8zS8d4ryo+2iaBa1IGd1aABiyyPbsSkyiiWf07GxQZUJcCRy3tUbdmTwXbAwHtZQFAoUKuAhQSci8Un8F5e3lYOxgBB5ZRnUTBt+6GVlZUvCyFg0QzEIWzJbIatBARYD/bU7oVf6nQ6fyM3QowJamvWKXUvpGi5Saewgou/vUarQmeU1oNRA0JMGMeeVTt6SRovPUY+uVkLtg14QsC2hxwgoNO/4Q1v2LRFcwoK9JwCwkc/+tGxWRB4T2wvvdOWY9YRGM3sCm8WEAgHSINAPex3kApMRH+/6667qveHdLgO4IfjhAPUH/3Lly9dqtwCLMtgRNiv5JduOFQvy11ZDvBfr9ffna8Ha0LfitBb70NCZVXohEqhqxUD90I7BBTgQ0jAsc985jNJ1wkgALMx4GJBWelioCXBWhHoZmhjRWgi93YKIBAAKG9VPljFrgpeAYE6JRXAaOWOV5cW2Aiy/E5ZEHRdBKS/dOnSF54/f365djNg0aSxxyFsFSBw9cR99eqJmL2wyAanL80eswqBL4UC1P5WYe6lsfmX/tZ0nkJUARhTnt5InsfstwcAKUsAG6LtxKXKezsAAQIQnSA2ks8BpNc2WG+6DgKUDhQJRqac2XDs2LFw0003Ze9twWGrAQFCHyv07ZSPCk1VyHxXnvWA7wouA1hNuJFR7JnxPvH+CAdQzIQD3BP3gJKthWqlYKv3BstBtztwOWyKZVJpW1sPIH77rgXAQO1mqGFh8BwVJKxX9zowP19ZwwgsCgk4RkiAVSgVhIq0sCJgESVYETQWgWsjaNAk6o9uBm33Xv2lBkkxWWhlqubrKcVUPqNqxzF56w0gCAxsm7TyKMjynIUETaOuCaZj3rFn9gBB4SBmOfCOb2xs/Mzq6uqP126GLdm8aSsBAYsj3TA/P//FMzMz/2Gr3QupjlFK0V7jnhTrwU4DBCgCLgq0HYCAe77+9a/fNKvBwoD3WwHhYx/72NgtCCgD/PE7Zb8GFbQKCAS3GCDgOEbNsB6kdrnE6BnWH6YBHDAOAOcIB7jfpeef78cJTE9v3rGvjjuohH+n07ciEBBgPagCE3v95blhNQAkVBaE/rdaE9br3xV4ho0wNz9fKWvINxxDmdSSwG3BP/vZzyatJEjHmRzIQ2MR7LbluI8GKxKCPei/XgCBfdM+owWEYa0IpYCg9ap/W0BAuRmHoHEGai2IQcPGxsbHVlZWvqFeVRGzGRCHMFYrwlYBAuIPMHsBqyf+XLfb/WZboSlLQGykyJfnWQ3UeuARcOyF5ig6NiJHfqnROhuqKvIm1gO1KMTu4wmEYSwIJfnlLB0xqKL1oEQpe6MC2170N8qdsyDgvggGQxR8DFBsG8JvAgKu2SpA2ElWBBWoOnVMAYHCUGcvwEQPpYrZG5zT77UdQATiFPBBvXhwgHyefeaZgeXgGqjAgtDpT3MTSBjIghoOwkviDzbDwcC1UMUmABjW+64GfHc61ZRLLHaF++JZaM2guwHTGWFBSG3whDLiOVE2WL5oRaCbQeELZWCwIt01VEK2DksAIScvJ8GCoGVUOeXJdR6z8QJsq/qdAwJ7XoMUY/Vi34UCAq0J2icovxQg6r97Fy5cuPOZZ555ol5Vcexuhq0ABLoX9tbuhT/udDp3eUI5N5LcZBKsfYelwj0FBLbTeB1kWOuBXh8DA8/NwOty7oVSRV3qSvDyKz0WuwefBSMsRmlvJyDg3hiNcvMlhYxYudSC8PGPf3xLLAgoCxQKl6D22uIkHGP94VtjD9i/FNx0FgOEH2AN0JiKt0CeiD3AB21I4QD5cY0L5DGFMsBygH+1W+ElQWg1KMCCUL3v0BnEHNCK0Ff8ajlgDEIvwHoQ6lkN/biE/rHu9FS1fDJnTLBseH4u1gX3wX333ZecpQJo4vbWGoegbga6MehmACDoSpI5QIjJulKZ6KUrBYhRtFlvYGYHFBycKSDYY6lYhBQ0aJsnLDBvld1WfpdaETRQsbYM/cDq6uqvyKqKY53NsFWAgOmM+7F64t69ez+dci/EBLO+CKaxo0h7rYUHvrAULJTCgSpLr5HaBqFpUlaEEiXswULb0b4HIE2OlVooNE+Yy+k/3k5AQNkRh9AkFkEB4ROf+MSWAQKUTZMthUchfJvmwf5IRcwZBGz71nRKCwLdCwjITE3rhLKExYejcyhCmN9VAeP3xWefHWzLXVkx8E8i0jsdxCH0pzcOXAw1JFTtedOshX4w4oaCwkb9e2BBgDuiP/2xEui9XrjhwP4KYPA8KBPKii2ecR7fqBPEIqT2awC4om1iDQW6GWhJUDcD3hPy5WwGtZ55cqHEirCTAMHKzJgVQXWI6oZB0KoMOi1M5n5r3qxzBWMrs2k54DdBwLEaDGbq1FDxhysrK99Ruxk4m6FpVy1OvxWAwOmNc4uLiz/U6XT+wfUQf5AbJcesATvFelACKl6aknqBwFPKzlmO7IhAAdEDDByjqRV/e0GKLDva4j333POS3UNj1gR1MSggwGysCtG73gKt99wcrdjrUV4stJOr3+KeP4aECggx94IKQioyjKahANEucD72ed3rXtdfrGhqqhqdQ1kCNDEqx3XIB/EamMrYv/9UZT3oQwKDE/G7O4CDTZAAh241g6H2E2NxJM5UqKc2ci2EfjxCPcMBdodqjYS+y6FykXQ7Yf+BA9WjoIwoKyEB90B7gUJHLELs47kZdJ8GrtaIeud9ca9RuBl2CiCw/9t+EZMpbawIKQuCuhiYzg4eCXA6SOIgkZYEjUFgDIl+D2JfNjaeXF5efmsIAasqXh73dMdxA8KmzZkWFxf/bbfb/csxwZgaTfJFqODUY3ptTIHwBY3CgqCUmBq9x0bYnhWhRCl71oNSRR1TLqXHS6wUOQUGf6oXnJgCBn1vnlVI6Z11wQ6F3xh5QhhDqbDTaZ1hsR36e1NtEPchIKDt0cUA5cb56RZmbFuLDsy7nwAAIABJREFUlV/bLBcWwrc+GxQofPST+lFBqrDEulYhSDM4jgHg0CYw5TXWfjDqfuUrXzlQuKhvwgHywHm83xcuX65mK0xNTVdQULkXagsCgGEACgCHTg0KsCZUFgS6GKDor8UVVJYBTmtkkGIVuFivtsiYBQGEdcxqmDswCFRE+wMkoKyAA3zDDZFaFwFlQhrENHg7PWpbRL15bobr3YKQAwScR1+lfLGyQqFW4SEHBfY878P8cpZVgkGpBUEtC1evXv2KM2fO/Ket2LxpKwChWj0Rcnppael4t9vtTwx2Vk+MCefYS41RIl+WhQYPIqyw9chZlZdSYExQb7X1wAJCqcLPPUuukZeCidYTBJ3dcyFWj/ZdxMDOU7paNmz6w41tNGCIz4eR52te85qBMrbtU/OHUKYPGAslsa3Z+Bh9phQU2HSEEI4UeS8ch0Kc1CmPfMaYe4GC0AtQhBkdmzIBHmMfrICJDZmQhnCgo3JchxgGwAH+AQoqOAAE8G+6FaqYBEBEbVXodvvvvg4Jr8q63l9auYorWF/rByHit4BBtZDSpn99aLhmReiG+YX5QZlpQcA32hyuhVsl5WYA+CA+A3DIPRkYqEgoZRwC3Qzcm0Eh2WuPtp2n0niyNHV9ybnoy25xAu+vrRVBpy+qrsm5FfQ85YAOYPUxbNksINj+oe4459zvrK6u/rdbsXnTuAFBV0/8ym63i/0XqnpTYe8d04puCgj22ljD92DAO2bba26UvBWAkFLekwwIMAF7HxK5J4hK3okHD6wHRpFrp7Rwg1X56BvWMljlrlPOYEEYFdzwnhwJok9AAWK0SfcF0qysrLQQn+O/RPuodS+wrj04wDkoQCjJVPwBrAeoe/xDDAKUJNLjnXE0/tj589X5Phz0AaFDK0INAWpFqP6uZjX0LQsKCOtrfSgAHKyvwdXQh4XKtYAYhGpdhHohJV1YSa0IvV6YW+iv2EmXCMoMOECZ8Y1gXez2GPtw0SSANepVV1ZUQMD1aN92h0cCTFNAaNIPU/2zpO+OonWmAMH2Z0+fNIUEyisbv+DpMj6fymUFy6Zuhl6v97mVlZWvCCE8O+7Nm8YNCLAeVJszLS4u/lq32/3rniCPuQpUOFulH4MKNobYqDI2Co0Rb8p64DVKrxFoOgsPMZiwCiw3mk/l4zXQFN3ae6euz5VL7wMh6c3nh+DD+vscLWs0sFdOW8e2fOx8nBtOv6yXjscw5xxT6Gybs+0CZVM/MM2XLJPXvry2aNPxN+oCAgPWCY44Ec0ORYh7YcRJF80oBOuo8mD/tKMutiUdBSkoQKFjUSCsf5Ca3siVE2FBABzgnaJOUEeoH7gnrr6AfRYQY4CZC3Ab1O6F2oXQBwIc61sWKteDxChUzwBFC3M9ZgO8iBkBL/YtBwxSHGzi1I9VwP+xvXFp5ur6egGlvTfsqyaqo80AbFhmQgJcCCnQRPnQLjEzA+3CbuCkQbMoB6c7agCoN2Cwirt0sFSaLgUko2pz9h6p57R9UC1+yEfdC/bvmCXBQoLNxz5nDhBygYrqZnj66afvvnDhwmO1m2Fs0x3HCQibVk9cXFz8aKfTudW+KKv4Le1ppavyj8GDJd8SUIjBAYWbdgp9yd7xrbAeeAp8OwAhZ0mx5YQQ9xbBARwgLwh+9bvH4KMUECAkdUQVgzOUE4KXU+i8Nqptj5CgQWK2DaWgINYmVRCh7B/60IeqUSMUIBQJ6gaKYhL3Z2gLCHD/4FpscRwLUEQ933333dWz4z2hDUHRAhJQN7gOI+zpTjdMTWPGQj+2oApG5IwFLIpEi0EFB303QxWnUMUs9N0S+FSCGtsoV5DwYuhVFoT+DIUKCPoN+5p7oVqOuf+bgYoU9hvd/roIBBuUHXAAeEXZcc2DDz5YwYP3QZtgfAymuaoFwca+0PrkBSp6ij2nxEthoE3eWwUJsX7I9qr6R60IqncYT6PWAk1rrQhWp7EMKn/UgkB4VoiOzWaQ4+9eXV39+Xo2w9hWVRw3IFSrJ+7fv/+O2dnZT3FkqErcO+Yp/xgQ6IsuhQObLgYI3qjQAwRPOXtKLKagYoo2Bxss9zBw4MFG6bEcINjz3iI4UHz4x2mPMRjTMpUCgu14ufrCJk4w56cg1o4SOIrwwFafJQYd9jpOX0N6uBNgMUCZoEjpcz916tQ45OtQeSog2OmNVLrqV+UIFwGKUJpoG7H2BIWK6Y3qXkB7wXF8wwKBdSKqtQ8kELFyMVRT1+ppjdU34KFeLInWg+qaqTANuOhOVe4EgMGLV+pdEusARdsGKwdDPeuBAr96xsrKsB7W4JIIG9VsBtwXEIB3ybIDXtH2H3jggej6Dyg/4i/wrKgjroeguzvSpcP2TkBgICiOt1Hi1xMgqIznc6kVQduvnmcaDxLY9z03g9ff2UZYFnV58t0pGDCg2ju2vr7+8dXV1b857lUVxwkIg9UTDx48+FNTU1Pf7dFcG/eCR2gxUiyFAS+d7VhWgHlkaIUI0uTAwBOMMSXoKe9hACEHJ6o1bNqmgMDpjZonZhhwRAXBVvLcJYBg6ykFbCwPfOEw56aUfUzRl7S/EmBAf+DeATC7Y2ojLCtQghg14zkmMQ7BAwQFMutnJSDAtQPLUmopaYy077jjjmqhKNQFgIKKFgoWeT/5xIUwTfdBbSno4Lue2z4wGwMO6lUU+5YGWdQJyyOv1YGIdCvUcDDoY9UGDf31batj1sVQuyDWsS5ClddGOLh4qCo7p2Wy7LR+YH2L1OwUvHtYITRQkaDAGS82UJELJlHJjBMQYjI2NvAaikRbXBzrm6pHqIeo7PlMKfeCBQTNw+ooOzihfFKwJCTobB8FBz3e6/Uurqys3FPv7vj8uKY7jgsQNq2eeOjQofd1u923pkZmMcGrAMFK17SlIzNtV7HOoscpELxj2iE85ewp0hwk2HafU4Ke4k4p7CYgkIKQFDDkngGR6gpV+BuAQAsCAEHNzDEgydVN7p3EgAoKGFaEUQBCk3apbYzuCxyDQjh58mSlFGFBgGLB+RMnTkzceggUlvjmaMsDBCgu1D8BAUCGQD1AQuwD5Qh4owVB3Qsw1aNuHnn47MBNMIg/YByCLIADIIBFob8FQ9/CQHjAaJ8KlcqfK93HAJMCfiDoa0BAIONaNROiH6hICwLjJwDFtCAA+FKAgOdDP0H/oYVJAUF3d+RMBruiYhtA8BR/iey07zF37xY6P3qJDshigKJ6xNMpsXiENlYEtAu1ktt2pO3HC1ZMuRrW1ta+6tSpU5+QOISRr6o4bkCopjceOnTo+NTU1EumN3qUZQWrZwaygOCNzNi4vcZZcswCglVWquhUoary0cbaBBBKRtFWUafgwFP4HtGmlL+Xf5N7QmBBCE4yIOB5EIegSy83gQWvzcVAwWuz7A+MbcCMj9OnT1cjT4wiCQgPP/xwckrgKAVuaV6qaFXAso2oe0H/5rbGqcBLKMjbbrvtJRYEThdEGR9/9NH+zIU68JALIBEIYM6s/sZ/XFqZ33A71MGJdBsMlEt1Rf/j9eE4IGyENcyAWF8PS0eOVC4EwIG6GWBBwHm4kaD8Yx+kQ5wO2gOnOuq3BQSNu9GpjjlFXSIXPWiIHdPnyd27tJ21TWf7G39b/YL8PUBIxRwoOLAPe3rLymHbdvC7IPZgkGZ9ff0PVldXv1NWVdwxgDCY3riwsPDXp6enf9N7QbGXFgMAj/Y8yPCEeq6xalksHHgK1pKqJzwsIORGtp7STsGCJ7RiHaiJBaEUBpoAAhdImnRAuPnmm6vRWhMwyEFA7HzsHhD+uAZKA+seWECAopi0BZM8QND2HJvKhTUQ8CwpQIAFAbEKOhMA1iZYnmBBADw9fPq0DwhqPahnKVTvo/pfvQcD3IB9BBhsjTdQIHWaQd91XAubRoEDC8I1QJhbWHAtCCg7ngFupNT7tIDAqba0JhAQUGY71XEXEPqtMAXkCgtM2xQSYgGMA9Cs26FnQaAcZx9RgI5BQ23pOrG8vPyl9XTHsayqOC4LAgABmzPNHTp06De73e5f9YRkTrB68Qk2qLEpIMRINgUI16v1wAOf0mM5OLD5QAEAEiYdEKBssCBPCbzazu8JophgikEs2jcFfgwQsCAQ4hMm5WNHYzp6ssLPLilbAghQorAgcFdDwAGsKZziiHs8fv7Regpjvf4Bd2wcAELtUhBlYeUP982tghir1Rf7rgjMYqggoN4GGvdDbEEFFDJ7oRLm9RoJWIkR7gXMflg60l8pkjMwNAYB9YFZKZjFEfsoIHDmgmdBsICgUx1t2/Tu5cnG0mO5/GNydxxtGO8hV27VG9aNjTJZQPB+67FRWRE8kMbzeMsu93q93uOPP37Xs88+C/PTJWxwOurtn8cBCDq9cWFxcfHD3W73dhWmbExNACFnPUhRojbCXMNRxabKzMsj5Taw1gPN17MkMP+YxSBlAcgp6ybWg1EBgr0nfMwwr046IEDwvva1rx287lwbHdV57RO0ICAGwbMgQNlM0lTHYQDh2LFj1eg5FYMABYl03INBYxAACXBBnH344Wrp5Gokx3UOqmBEiTmo3Qv2nQ3qfhDkiOmS09VUyf4aCOt9EMAqiQFTHeu9GqoARWzU1Hc/6AyGaiRf7c/QCwfm5qqyA3C4JDQDcwE/x48fTz4/ng9THQGFHiDQrYJnVwsCAYEWjpySLpGNKRBI5Z+79zhAweapsseLbSMYaF9U1wKu19927xW+BwUMb0DrWRE2WaFk99Ccy2F9ff3vr66u/mq9quJVsOso63JcgIDpjfv37Nlz7MCBA3/RxXJl9ccqem1w2nFzQFCaT6yRxKBBX14KEFJwoHmXprOK2SrYmJKPzR33ymDrohQcSl0OqXsiEE13cCTlT1KQIp8TgYrcOtgDzxgUxMDXHo+1eQoWrgWBUaUHCFA0iEOYlI/Wh40C1/Zv4xCgwGBBwAwG/Iu1R/ju8U5oQfDWEqgCYDc2+tMcq6WUMVuB0xz7cQeDUWPtatjkZqjXTehikaWZ/hbRcEJUezLUGzZhFUXYEQbT07iaIqc21hYELqpUWUvCRlhcWqosCDYGAXAAwEEgamyba5SZsxgYg6CQwNUlB4GW9WJJcF80BYSY8h8WHFJQsdVtmAM3qz9yVgSFAQsJaLe6eihBIhY/18TNkJv22Ov1PrW8vPw145ruOA5AGExvXFhY+P7p6ekf1gYWU+ye0B106NosmPutENK2sfPlDWM92CpAIHXmOlkpCDCfEjhparWAWRxCa9ItCKgDKC3MPR+VdSCXjwIE0tLFAAsCQMDGIMASM0l7MlhA0H6qbQrCzroYMM0RzwMYirUpCF8utcxlljUGATEKWAeh9+JaLahrOBisg9Cf2gh/QVU242aojtWbOlULLTHQkYGL3KCpAoJ6k6bqu289qNwK9ZoHhAm4FrCeApTE7N691Tu1FgRaPz71qU8N9ifxBjSAaFhRuO1zDBB4rQ1SVDmRG8kPAwNt8s7JrrbnOQBJDRC9ASkh3X4jrYUEhWH+7cUuWL1ly8RBHt+TuhkGlqm67/C3rJFw4cSJE28b13THUQMCd2/cV8cf/EGn07knpvxViaspRl8Or7V+TRufYE05+hJSDVfPedYDq+xJoDhuSTB3zEufgomYwubxYawHtqype+VgwMvLXgMLwk4BBIzYEKyo7dNCrir1VDrb9u119lqkp4sBStMDBCiaSQIEfSYVkLZtW3MphBwDQmEBSLVnzC7htsmABDXRIx/c98LjT/Q3aKr/VUq/mr1QT2tUF4OAQlVmuhfqbaIro2c9y6G/tTP3Yai3eK5hoXI7DOIO+i4FbhGN5Zr37r+hshxwDQedxQALAn5jJcXYB2XDDAYoJ/QhWgwYg6AWhBggaL1aWZhT6to+S2Rqqaxtq/hLr8sBAs/HBp06kMXfgzZl3Ax63Kbjbw9EPCsCj9k4BIUEC9n4ffny5S8+d+7cQ+PY3XEcgDAdQgAgHDx06NBnu93uAl+qragYIKRemgojbYzjBgS1LKjZVJVjbOQdS+/BQYmy3YmAABPyTnExQKBjYR5P8eesAaM4z2mOGDFiER1rQYCymSQXg+2TFubZpj1AgKKHosRmTdzl01MCsDTAD68WBF1LAH3ssfOPVhaCa5BQr6JYWw76FoT+7IU+NEDwc6VFgYQaGHTzpn4wIkHBWhL6v7kcM6wJ2ORprdcLh48cGQQoAuwQoIhngEUAz4tjqZUxAQaYCop0cK0oIPBvuzkW92PgmhMvR0Bgm4tZRBQQ2H5jcQmq+FPBijZeQQEhZUVQCw9hwEKBtRyYRZN+ZWVl5X8ax3THcQAC1jvYPzc397rp6WkEKA76u1KZQoNWngcA9jovH2tRKKFdVQAl1oOcQk9ZFFLWg5RJPzZ610aVourU9d51XvqcBSFVfnZU+GAh4Nhh2UEnMQYBZcT2z16b8tqqtlk74vKg2IKHBV21IHiAgIC+SQpS9ADB61tewBWeFVMY4SIAQMY+gAgoSgYq6kwAKEK6GdavvngtSJGWAeOiJBxsAgTs20DLQ+1yqN7LYPbCNUtBFZhYb+tMl0M/QBFbQgMi+ltFh253sBOn7sWgq0BikaTUKpKAQwZy4jlzgIB+ZfcfGRYQbJu2A75SWRvLJyW/hjmXsiLogC+lX/RczI1gwcCzNqQAgTKSMp3f2l9wLDKTAdatleXl5XfWbgZMd0SgIiflDFOFgzVAhspELtbpjf+00+l8qwq/UkCIuQ+Ylz2fq3yPImNw4DXiJtYDNspSKwMbB+swp2yZrsS9YPOOAU7qeA4OvHt4z4BR706Y5si6wFRHjFCtMh/3b7RVBYRz5869xIKAqP9JmuZoAcFClLZZHQmhDXOEjOdBG4l9kA5uBrtkMdcSQF5QvGfPnOnv1EhXgyj7CggYh8DZDXVAY3+/hv7SywOAqDeA1mWVeyYOge4HWA/6f8v6B/Pzgw22oOjtXgwQ+JjBkNrmGm0Q1hO6YHTtA8YiqEKiCRp5AhS8HTKtPIzJx5ziz8lV712W3GtUykjlts0T5VArggV5DxosIFgw0KmOuJ+mt33ElidmRfD2Y3AscZeWl5ffEEJ4etS7O47SgqDLKy8cOnTozzqdzqtSgGAVPivNAwQ7ylJBnXIveAqf99HRbKozpEbVHgiw8aUsCiVAkFLOJYCQur7UUjAqQID1AFaEnWBBwLvBqFYXTFIBYtuPPRcD1lJrAgEBIOABAlbegz96kj4qUEsAgUIOz4CgUDwP/qXaG+JCEB9i3Qxcbhl5os7WrlzdJJxZnoE7QaGBsx0GYFBDQhWvUEmPwfJJ1SyGajojpzfKynf1lEbOHMDFaD9c/8ALUERaLJsd+6DcsIwgYBYuGMg5WhDUkkBFRFi3QYqecswp/9w1JXJ1JwACFbk+j7Ua8JwCQcnf19rd5tk0vKc3kFIrAmMRUjMZxNXw1SsrK38u0x0nzoKA7lTt3lgvr/y5TqezzxOKVqB6bghLXB7hWaCINdoU6XoCSdO3hQN2Vu9bO44HETF44PESOND72o4aE8Kl0JDLz2v4aMiYybBTAAFzz2HS9pS/FSaj/E0lgPtC2cGVYGMQ4LP2ts3eTmDQeoq5+2g9sCMgbmeMaXzeiJfPBb89YEL3ZOC2ydzXAHk/+sj5auy/ee18iUcYxB/UMLDJyiDH6hv3t3eGtwGTFkNtKSAs1N/Vokh91wL2YMDeEYADwB6sHlj/QC0IaF+Ag9QKkig/8kHdou/gtwICf+v8ezw/AYHKI6fsS0b1XpqUXE21xZL7jaItqxxK3dOzFljgpVJPBSvimpS7ITZwUHmvA07rYvBieOTYHywvL/839aqK2Dt8JOshjNqCMBtCODA/P/9F09PT79OX4r0EhQBWUuplWWgoAYRcI7bKzKbfLkAY1nqwVYBQ4hJhGgTdeYAAYQlBDwGq8BPLOwZVnjXHgy2bzkuDQMVbb721OuW1Y+94DBTs9TadnldAgFKwgIC0k7pZk9c/LWx7oyK4BjDaRhxCCnyQF2JDoACheLmrIyEBChGxCojReObzfRitlKcIbrgPsJlT0I2aKndDvaAS/+4/zCY9VY3udGpj7VLoxx5cgwPuMAllrrMXdIEntPXce0QbRPwBLCtIr0GJ+rfd7ll3cvQGE02UvVZAk+tyCnkUAFCSB/t6rjzeQEAVPtu2BYQYEBCSm7gZKLOtFUH7jAlO1L0bzp04ceK/kDiE9VHEIYwSEBh/MH/w4MFf73a7X9oGELYy/iBnPfCUbEwJ5ZRZbnReomi1AeU6RwowcmXxFGbsfrly63mMiLX+0D6gGGA2hlCDENRI9lyd2vczSkBAO8Tc+5jS945b4PWETkl+7ANQDPDN2+2el5eXc69/y8/rs+pIic8bGxkxDgGWAQAklHuq7cKK4C27rJAA4IQ14vLzz/cXTqpXVtQNnLjVM78JCKHa0KmGQgUEWWoZyyxfczf0ZzZUroVer1Li3K6b8RJo17qCIto43EQAwNgH5cFzwNUF9wLqxFoQuF6GAkJlwVhbG8QfUNlYBZn77ZVrVIBg4XqcjbUEEGJgawerMesBQRT52NUULUDYPL1nJ9R5Fjcco4w0sPDi6dOnX3flypUnR7ns8qgAQZdXxvTGj3U6nZtzgGAFCSqrKSAME3+QA4Sm1gN92Sll5SngnKLlNTvRvcCyQ+FZEzIEPoQgPjSN5kb4TSwI1kynUJGr89tvv70S+DGlzs7vKUQ+cxNIsAIY8Qc0TwOiAApQhKlpceMUtrm8rfDzFAoVln0vaAM4B8Wemu6IPPFeoHA5MwCzH3RdBFyP+qpmRlx+oQ8I1QqLnNLIhZSu/Ya1QGVPVXYBhKqtVCslIv6gXk2xXkER6x0ADnA92jOuRdlg5dDYA5QZZQNAfO5zn0uCENod3AtQOAAn5K2AwL95HPdEuQgIuVUUX26AkIMSbbuoR20Ltl2wzqmvbDyCygW1IOg9+HdMx2g/saDgBS7Wx779xIkT/3GUyy6PEhCq5ZVDCEuHDh36z51OZ9qOKqyg9QSrNxJJ5dMWEEoI2Y52PcXkKbPUsWHggI0mJ6hVCdq0sdFZCoZS98spWT2P5WQ9EzLMqBCaKeUdO5eDOCgiKBD8o6kuByB8XoxqoXgs6HKkACGtq6tZIeRd5x3zhBdGnQABtG+UAaNJKBxMicOIchI/qX6q7X6gYGtFC+EGxYpYBIysU7MZkA9cEghY1FgEDxJQZ8jvCiCBK+EhKHGwwmJ/SWbMYOjv2VBvBT1YirlvTejHIPTBoCp7ZUEAJPStBig/ysK2QsuBF3vAvRdKnpHBm4AMtjXrWtA1EDi65OwFDQTNAYEHcyUyMqZ4c/nlzo+qfat8yN3Ti4XLWREsHCC9dSsoxFlIQPm0XCwvB4J8hylIEEvCJ0+cOPF1EocAN8NQn1EBAtwLkPBz8/Pz/+XU1NSvx5S/BwA62ioBBK3QcQFCTIl4iiqmJJvk4YGDvtlRwEEMHMYFB/Z+EFzenG+8QygHCP5UJy4BL+/9oJNB4SokeHVh6wHuD7vkMsunAWIp4Wv7Qayt8zjqCCAFxYbyAAqgPPEPygELJEFhTOLHAwSrQNiOrcDjdEcE7WEFyZylDICAETnqBNBJ/761JEAhI7/nL16sF0bidMZ+bEK1c2OnW1kL+ssx92MP+hMYronHqm2oBQH7LNQjdlh28A/PTzigdYPuBbQ9vENMV8ytYcH+gLLDooJ7ExC03Smg4hrUGac3qmLRNqftJgcNwwBCDBxS9x9Hm7Z92j6zVdAeJBAC+EwWADQYloCgAweFBuShFgavf1A2sa+UTHWs3/eF48ePf0Edh4A5w0PHIYwKEKbq7Z3nFxYW3tftdr/AjpRUUFoqY8No6l6IQcgoGmET5e4Bgh5LjbJzI3AFB0+Re50qlq7pcZt3rqy588gPftfcc5QIrpxS1rLDfA0lAqFNK0IJIECgM4pchQPvrcsd58rcpLy8F4QMFB/KgW+UfRLjD6wC8vqlhV215lCZYUofRv1wDUCxpj6QFdjASQMWLSSg3iBcAQ3ID20P7oBKwNdWg0EMQr09dP+e9RTH2mxfHRI4QPwBLAf4oLyMo1C3AjdmYpm4giI2ZkrN1ECeuAZWNcASYjI4AlUrAv+mskKdx+IPhgGE3Kg7BQLDXDsqWGgCCKlBredmUOsB3gc+m2fO1DBaW6YUDAgNFlBULhEQYlYExr7w/Pr6+vqZM2ded+XKFWz//Pwotn8eBSAw/gDTGw8ePHjwP3U6nSNbAQge7dmGlSNGVcBMa5U7jltg8H6n0lkBqfeNndPjuRFVLL9c3jllnco3BwTeeQg9+pi1vihovA7jCZomCheAgBEcBDhpvAQQGEWuQpAmXbwPXe7YtndPKMfS2LRUCHC7QLFAYeDYpG3S5Alxz4rg9UEVfrQmwBrA3R0R0JpTpEiPrblRL5zVYCEB9Yd3heP4oA08d/FidUxdDX3lcC04sbIhVP4F7N/Y33eF5aQSxwif5v+Y5UB3ngQcpFaLpIJh4C4CVNFX1HpgIUEVDZ5JAxRtG28KsSnln5OzMSgpvW47AIHPq/VklTohIudaQDq1IhDkcA+91pN3fG9sc2x3FhTsyop1f/mu48eP/34dh3Bl2OmOowIExh8cPnjwIOIPpmwla2MrsSAozTGvmIXBe7FeA6XCykGDVf6jBIRSy4JV7MMo8iZKPtYxvfu3AQQISPpfcyOMlEKN0b4KRZavLSBAAd1yyy2b3B44ho6PvE+fPl1Vl/oYrVD12rGXRtswzcgAFCg+ChqMrFPL8o5KqA6TjwcI9nn5XjwrAlw6jB2A8s21eyh+zDbRraAZzAk4gMLkN9IiP5xHerhyYJKvYMFsB72pz8C9UAt8WCX4/qH88Tf3SACoAOrwG/cgHKAMWDI7tqWzyiqUFZAEkEZQr8KBtSTk4g9yo2dppaokAAAgAElEQVQPAHIQEWsbsb6c6+NNIKRNu/Taj5bJ6gQrVzx3AKHMQoJac9QNoektIKSeyYNo9hk73VFg4S9OnDjxlbWbAWa4oeIQRgEIjD+Ae+FLu93uv/FgIAcIVpBaGEgBQwoQeC4GB1QobDQpBW6VjwUJq4hzSjWnYJUkSzpHSpjGzuUEcAwuSstuQQe/uWKeKhNN5x23x7z2oB1fF4lpCwjID2sh6L0hlKG08cGIEOfwm1PbrIK0kOMpUHuMgh8wou0ytepeSfvYijQxQFAlqP1GR0f4G88OBQllm5vRwDzhQsDMBoUEWhLwDQjAN9oEFDeELN4X7od3BwUOZY50FLQU8HgHtD4gPQAX5/CtcIDruZyy3hv5lYId7oW2iudR64EHBmwjlJMoW279g7ZAUKLkU4o+d33u/DDttikgUIFre6Wssd8WCDz3ggKGpte8rOyzeiXlYtDZQLXMe/r48eNvrpddRrDS2jDrIYwCEBh/sFDHH7zVE4p6zCp/VfBMF7MWxASQJb9S0rXgEFP6Fg68300AoUTBjhsQSuFAn7UtMOi9YEHQnR095W+B0kJgDhB0Hfq2gIAyY869lo9R5CgPZhngHJQORn5U6F7nt8di5bdCiPWN0SemPe6ETw4S9Bk4ItJvTFFE0CqUJHzwJe411D8gQUfxUNhoB3g/nF4IIYrjyBNwQCjBN2SOHSDgWXAtv5EGIKFwgLZsXRyc0oiAxNRqiawL5AvLCfZdgHsFz00I0HgDewzlImSxzRNycNwq36a/U4rftsWYoi8BgJI0bdp+TMYpeNtntPIo5WbwXA2xOATPzWB1padDLEQrFEj8AdfjWJf1EBCHgB3QWi+7PCwg4Hpu73zo4MGDn+p0OodSMBAjpxwQpCwKlvpSDck2RAUEz3qgnczCA37rMXZWT6HaYyWAkIIV+4wpZR87VwoIXrpc+VPnIcAgAJuAQQ4QVOHi3joPfBhAQLAY90ZAGQgIuJ8CAkZ9HiBYZekpz1w9EEZy/us2AnQc1zQFBJRBAQHXIzgU9Y4pnSWuBr4bBC5CgeNdUHHjN2EB32gbyBv3RDrCgdYF+z3SoDy4hpAABYC87T0AIjgOWIFFAUGsJe8M+QIoYDmBkse6BywTlYrnaqBMRLlpPVDl4Sl3TxG3gYZYuynJv8m1w7bPHCCoXLb9kPVn3QwKBZQ76lKwfyONvcbm6b0rlf86k4HyLeZu6PV633b8+PE/HsX2z6MAhGp75xDCYh1/MFj/QBV3TFAqQasS8ChOK1E7R1tA0Majyt1T8B4caDoKlJRS9wAkBhM8PowStzTaBCqssGzyO1V/zAejKgah5RRkTKnG2tQoAYEmX7Y9xgfg3ohBwDcUwzgBAQpSAyKHFZpbcX1sIOC1QYK2jpSgMLEXBqxNmBpYomiZ96te9arBMssKCXQnEA4YS0DLAb/ZrggHCgm4hgCCb+SlAIJyw9qDtlHadwEt6lqgG0MVjWdFoAzU4ETWoQ58bJ23AQJP8XvtKJau5PqSNE3b7igAQduy/m1dBur2IRRYNwTfmR5XvcY6UD2i7zQBBYMVPXu93qePHz/+taOIQxgWEBB/gP0X5ubm5t4+PT397ywJxUb+2hhY6TFAsOctEOj5VAOyDdB2ohLl7oFC0xF2bvRtwSPXKVKCKHauVHiVKPsmz8Nn4Xx/r3OkgCEFC9q5RmVBwNQ7mLyZt7oYMELcCkCY5LUPYm3Te0+xtB4g4BjqHq4GmNyrXRrX4E4t++DapaWlSoFztE/FzoWN8E1I4ABB2xCPQYYhLb9xDadX8ptWCbiBmgSSoj1h1gL+Yb0GTmu0o1Auq4zjGh2P2uD0RnUt2MGP1loOEKwM937n3nsTeEiVrextx1Ol5JxVxlYnWX3kgYJ1MeTcCylA8PQTy+/FIdj1ERh3tb6+/tzx48fvCSF8HhN3holDGBYQBvEHBw8e/LVOp/PXrMC3wt4Cg74E74XEYCAGGG0BwRvdx6wCKWsChYotR6n1IJYuJVxTzzwsIDSFnxKgYBqMDunfLQWFrQYETGXTxZLUxbAVgLATrQdsjypQtY2yX/GYAgL/5qgdgMC9FaB4c1MfbV+ATx/KF+0MsofTBgkHVPy2TGyjCgUEC4UDui4Q+4CZCk0+UCaAT5QRYABAoLyz1gOCgR5n37TuBVuGHBB4I/fSY01AoNRCUJqupK6bAEJKBhEE+H7YtqnPrPWAoKAzTdSqoNdbHWn7ivYJdcURCHBe4ACWq7UHH3zw7hoQhopDGAYQdP0DxB/c3+l05kYBCBYiYlYIVqR1N8Qajja8EsXZBBDUGpEaUbc91wYQSp4x18ly1oFhAAKNHa6GlMUg1Z4sLIzDggB/MkaiLIfOYsDIftwWBMQ5NDGv597nVp5va0VQgYi+jXgEuHAQjwBF2hQS8MxQwlyuGpYElI1rIRBGFBK076MMmhZWCQIG4gXgAmn6QTsCfCLuABCIPHRtBlUsGphofdd0L6iyyAGC9imFudx1pYo7lW4UeZTWdQoO9Llj1hZPvlgwsBYEa/nR38MAAsqr8SUKBRqoyONra2tfuby8/Olh4xCGBQTEH2CBpMWFhQWsfzCjDaDEvcDGyoonoWkjbgMIOQLOjehjijFlPdAy5/JnA7X52eOpzlDSAbzrS5Q6ritJlwMILx+9RndwLAGFrbYgIL4A/mHeV10MGDGOExCgDDFFbid/YlaEWLu01gTONoCCx7sYBhJwT7w/5MVZJxpn4JUJ5UeZoKSZFpYMgAFAo80HeXHGAuCP0zlzykahgQqDrjQ1QedkX1tA8K5rcqxpXZXCRCzfEvnI9+uBUgoQqOwVGDw4wHm1JvA66jm1TMSeN2ZBsFMcFRo2Njb+3UMPPfT3ho1DGAYQBusf7Nu371Wzs7MftY2lBBAUDKww8X4rUPClehaEVCeJKW9VZm0BgeXzFL+XZ9tRfknjHwYOcoo9BjJtgAFBXTp6S4HCVgMCRotQKPyoi2GcgADBv7q6Whzo1lT4blX6lBVB37m2JxWIVIR4DwhaVEhoEpMQe17d64JrWdBigHfAJbph6WoLBHpvtB/AAZ4FcICpnMhXLQOeQlHlw/w8OGD/s/Iv97tU0ZfAh6ds27a3tpBQKh8tINh6sANX1Un6zqj4FeJi1gSFCgWG1LMqAOLZUnBQW5NeOH78+F31egit92UYBhB0/4Uf6XQ637cVgKAvrA0gpBRYbDRPZZmzHmjHyAEChWCpErfpSjtAyXUlloJxAgMEPSwJKTCwYJgCS5I0g3iGmebIESfLpi4GBKTh+DhmMZTOn28reLfyOgv6em8LCdpvKAgtJGCmAEzyWHALyrVtX9jqOgCMMHgS4MHFkFTRqBXBUzZsh1AQGohL33RKOecgoVT5D5OuTZ23gYRh2oTeT2WSF4dg3x1jRaj4rYtBA0z1Xavu5D3tQFbjD7y1ENgm6nNrDz30EOIQENjSel+GtoCwaf+FhYWFBzudzr4cIFiLQkzoe8Jf09oGYy0IpdYDq/Q8AFDCLAUEpfjSa6zQTHWkto2/FATGCQOxMkBglkx73GoLAjo0LAi8r7oYoMTHAQhwLWA3x+vl470zPps34iU88xwEHiEB9c+YBO78CLhkmkmsM8gnQA33WODUTVoOVFFQseDbAoIqDgsIXp8dFxCUAoLVB8O+m1JQaCsfY3ClgKt/WwVPOODxlCUI91J4QJk9/egBswcKjEFRSLh48eIXPPLII4icvVgvmNTvSA0+wwAC9184VANCtf5sTICzQjxSspSmaVT5eyMRhYkcPTe1HnB0Y1+SdsaU0rUEWAoBqQbetvHHriuFhlTdWWFf+tsKNQp6bQ+pNmXbmgrQUU1zRJ4IJGM5dB2EcQACF9hp0Id3RNJRQgLeAWY3YAYA3jN8+HBTwRLVtn+MoxKp5BGMCCsW4AbxC5iyyXgGHWlSllnTtMo9wpO6F2LPnAMET4GXKv9h0g1b1ylQGMX79+rN6h4LdfoeU7EIPKfv2uat99fn8aY6WkuCzmbodDo/9uCDD/5CCOHZEEKrfRnaAgLjDw6EEI4sLCw8YBW1R0NeTAIbKSvFponFMbCRNYk/iCk5T5Hn0lrLgKcUY4DQFgCGafylIOCNREquHUUa5IGI7kkCBNQHAIFlUgsCAghxfFQuBjw/Zi20idIfVuiO+/oUIGibs8KRChFp1JKAdFS8AAa4G/APkDkJ9YcywWoAlwL+oewIbIR1SGVeTGF4Coh1YOe/cyBj32GJEi9JMwxIeNeOsq3poGDU+bJeVYGrniIU8Ji1GNiZKARGL3ZB9ad9J5StajnAMRuHoLMZakvCCydOnLizDlRsFYcwDCBg/9SF+fn5L+90Ov9vDhAsJcVGhuMCBNt4cso7BQgxOIhZFkpG37FRd+54SacoUd6p+5SUv00aD0bQsDGKtu3DgqTtUPobZRmVBQH3RUAZ81cLwqgBAdMm+ewl73WnpRkFJBAY+A04gzUBuyyi7WAtAbgeEAC4HaCA9oFgR8ALygV5BpcCyoV3S6WCd+f5r+3Ikmn4vDQh23qIKWJvNJwDibbQkIIBL89Jbr8orwUEvjM+p8Idz3nWg1hcgl6T6huqb3JxCGpB6PV6G8ePH3/tMHEIbQCB8QeIOQAgfKDb7b7eNo7YyF8bSkrIW6CIVWCpBaEEEKziZwPxjnvKLQcd3jVarraWhVRHi+VZerwELkaVhs+BRh7bzMlrB7atjBoQ4POG4MdHLQiIE8C9R2FBQMAjrCfX+6ctJKBeaEGwVgVaE6CQuUYBrAlwO0Apj9v1gPujXQAMACqwGOA3YgzgTtDNmiivUnBgR6xUVjpiVEBgm2mr2Ed5XSmoTHo7Z517UKCDFQIBj+maFYTBmMtBz5f2C896xGMGDqr+cvLkyTdcvXr18RDCcyEEjLwabdzUFhCwQRP2X0D8wUqnfjptaJMECNYE5yny2DFtKAoKKaUYA4W2gJACh1xHK1HezKMk7ajSxOqC+aNxc1pZCgq0szLdqAGBigf5qwVhVIAASwRGmS+Xjx0YpOBd+59CggcMXJkQK19y3QLUKxQ0XA9oT1Syw9Y1hT6ABK4EWAywmBOOQ1A//fTTmxZ1smblmKXAwgHLaX3NMZlQouxHlaYpDHj3HfY9bMX13juxLiCCBK0FPO8FKuZmMnj1xPetgIBjXgyCBiy++OKLX7e6unqfxCE0ClRsCwhYIEnjD6p8UoDgxSRYQWFHgrHz2ihKLAhNAMFaC6zyzJ23is925NKRew4mSjrGsPcaFQy0LQchYbsBAdHnGB3ig5EhOjieCcFxw1gQkB/g4OVgOdD2qu8zpmRy1jQP1jmq5kJECGKEdYfAiHrGP1oVYFmgydbr17bdQdbQgoT2gMWWAAUU+MgXMQa62qPKNCoNKhOreBQitL6sIkjVTYny9+p8lNfF3mnqeIk82640HiBw9M9vBYSYm4EDDLU62BgU2zes/iEgeHBgpjlyB9J/8+CDD/7PdRwC92Uorso2gIAARcQfzO3bt+/2PXv2fNzr8PZYzKLAkmpF81pV/hYeeJ0FBNvQ2Zl4vIn1gEpaRzE5QBiV9WAYq0EKLtoq61ieJQBUAhq2I+hvmog9YKTQ0XOeBQF5QDnovPlc2XkeJmOMElUI4G8EnaH9QVk03c0ReWMWxE5dRrlYwkQSetBnk+b6gE5tJBxo/8S7wXuD2R//MNrHh4IUbQL1j2+NWVGZBOVPqxGuxz+akZEO7QlWCrgzdLqltseY9cAqHk/GaeQ6lYLKJa96S5T9qNI0hQHvvsO2pXFfXwoIBAD7rdYGtTBQnljI8OqU7ToWg0CZp4GKtSVh/cSJE4hDwMZNWA8BO54VuxnaAMJgg6a5ubnv6nQ6P6mdgQ+tD5kS7J6At4AQEyb2vqmKjQGCKn9VghQ49lhOUbYBhJwg9DpA7pphQCD3jDFlXnpdk3RM662RYNuFvmMbpIj6gDDX9Rb0HXtlYh1iJApFo8IN52BGRodnDIKaDq2w198oA9wT2xFEN25h2iR/r1+nQN72bxWa2ia9PsjgQYz68S7xzmAN0Dy9PmPLA5jA+wMMADgBGBTaOYC1FoIYILAt6ihRj2k5SxR9TInba0vyKkmjgFUKMDbdVoCEfd/ePZGmCSDQIkBZoNYE7xjhINUXrA5Sq5daDby1EHDszJkzr7t69eoTdRzC1XECwqYNmubn5+HbWCoFBK0ECxAeWJRYHVKN3HYkT3AoIOjoIwUGqZGnzSOlTEvOxQRuChCGhYOUstTy5EbgTUCgpMyq0D1hrG0BHYOWB7gI2JYodL37xZ4Ho08oFBXSUAwIQON0Niie2EiRbR3lQ/AcrssBXhNFu5PTDgMJtj97/dvrj2w7XBWTbiN9f2xram0AYKqJV9+rKkUPXGPAaPNQILHWA68/DaOwS69tAxI7ARJygKDnVRdZYFCXAc7RwhRzNahbQf+OtQV97woHlGUKBhYYcO6RRx75S5cuXTrTZuOmphYEpOcCSYfn5+ePW6XvKXqvc1hASAl8T4h4gBEbDWiniynlmHCJQYOnKL08chDQRlGMCg6GUeBNFKxVYCXXpuoNnSAHCEijrgm4Caw7Kgc4PA/lD0BgO4KiQPwBzsPkrOet8OA1KA+WB365xRuUwMswkGDbcKq/pvpnSTlTMkeVaAoGcoMehVCrDGJlbKvo9Xk077ZA4JUjdo/U8VRZSt9TSbomgOC9U3Ud6Hm6EXBMXQrW1eBdr/rT02ceIHixB3oshPCuEydOfKDNgkltAAFDKQQo3jw/P/+ZSQSEnNJNKaiYgPFGIjHhlDpeoixTjXsS4MADi1KlX2Ip8ODLqzdvpMZOhftoEBqOQ5lbSPDq2gIlR5hIS781RwqIP4DJmv5tDxBgNcAKeuozLxFgL6c0Vo7Y37H+p0rJA74cFORkRUxZKaAyTZuBkNeu1XqhwNBEAZemHTdc5EAgVk5bL6XpSvtM7L3H2lMM+jwlr1aB3LRHQoQ34PGehVYDthF866qaTgwCsvmjEydOvKvNgklNAYEBivN79+69a8+ePR8cNSCkRhO2U3r3LmkgMWGjio8vwB6LKfhxWw9ygmwUincYJZ8bjbPeSu/hQUgMHDzfLtIaih6Y9XMjpNR5tkHcE+AAywIgwTNBwlrADYVK2uXLPU0pJHhtIwUKuT7cpt5TAj32HLiPtSBov1Ch78mflLIdt6IfJv9Jg4SULB0GEPicNtYgtqIi4SAWm1IKCGot9dZCWF9f31hZWXlNvWAS5lNjn/KiQMWmgIConmqBpLm5ue/sdDo/4XWG2DFP+bNSU6a31HUlpIkGwTxKFHnOiuApu5J8Y3CRE1CjhoOY8i1R3iVpmuSfAoEm0GP9gHjfSts0zbGuVRDE/raCTWkfFgMAAq0S2kYRwIapbi/XGQq59pw63wQScqDQBDJjaUtgMdWmvLblKdvYdEvbB7xrYwp4mLTDAEGT+3p1l2s/sfxz1+Xag9ajV+9635h7wSr9XDyCpte6UADNQWQBIISHH374jVevXsUOcI0WTGoCCEgLQLgBCyTNz8//SQjhDvsglqwtNccEgAUENQWPAxBSis4DhJL0XgNsouRixJhq+G3yH6WSb3L/0vvmOnIKmDQwSOtNR2QqCHIKyaZl/oADhRLkj6lusBrADbH7aV8DVql6SjZnsUopkRxweyWPKcwUQHiA6Skhz3JAwC0tSxNIGKXybwoDqffSVPE3TV/y3pmnl1Z1ko76eVyPeVYE5D3sTAavrXgzGXR1Rfz9+OOPv+PixYurdRwCVlQsWjCpKSBgtRisoLiEAEU2Sq9DW6WeE8QlgGD9xyUNnS/adjiFAD03SdaDXINOnR+H4i5V8KXpUiDQ5tmUtKm8dc66JXTbfj0QtcDL38gfHZNT3q7nPRTaq/rhrszJDNt+vDbTVInkSuzBShPlbAHBCnw+UxtF2kRZl8hO77lKr4vVSep47lzq3YwKCFOA4MkChQKct5YFDVJMwQGviw1eVC8xloltJxakaMDhW0+ePHmvLJi0nmvrVVlKEtVpkBYBinMzMzO37Nu371NbAQj64kcFCCpIYiORGCioEvIUXCpvrethlH9KsTZVuqUgUar0S/NrWk5b76l2a8ugVgU1+TUFBAYDYRYD/zXoP7tJW9SAp5AtOOT6IW87DCyklG8TxaxlVRlj5U1OWY5DUZfmOUy6kncxzHtq0cSKL0kNFpCJBicqKCgkeGkUHGz9aF2wjai7FMdKAKHT6fzrEydOvDuE8HQIgSsqZuMQmgACAxQX9u7deycCFCcRELRj5ZRVUyuCp+BLYMO2wGFGx6OEg1hew8BA6bVbCQieBPA6qn2/JHSCQbEk2U040hpIQUKT/l6inLTgOUUVsyaUwKsHBLbvTKoVIQYvpeBQ8h5ydT/SBlaYmbUwqjWRgEArAgezpbMYvEBFrSerZ9SKUAII6+vrl0+ePHmPrKhYFKjYBBAGAYoHDhz42m63+wseIMSCDT1zoWcd4DEv2rfEgpATGJ5CL7Ui8IXFoGBY60HOqrAT4aAJhLR9Pg/cCvv8IFlJ3TfNczf9aGugFBRy7YjnS5RQLo0976UvtUZ6tTUqSGhi5ShR9CVpRgECufofbQtL52Z1mFoJFBAICfy2sxisdUGhIgedakVgOy4BBKQ5e/bsPVevXn2sSaBiKSBogOLB+fn5XwwhfIUHCKQqrzJVeccqm69oWEDwlDXuGeusOJ463wQOUgKqyQi7VPE1tUjkLCu5+zZ5hmHTevWe6sZtFX3b67ZSQO3e61oNjBIW2tRrqSC3sqBNO2ui3FXG2udqkk8pAAyTrgQgmqRp8x7tNXw/ubpSCNBBrReTYHd0tLEIFhBSbcu6Gehu4PRGnI+trPjEE080DlRsAghcQXFpbm7uhL44VfZW8SsweOcUMrRitgMQPMUYsy6kOn4ThV0iMHJpmtwvBi/DKvJhr09BVe5cU4jwBEmujkchfHbzGG0NNIGEEqi0SiGnLEqexg5IbFstGSGn0uQUmZZx2LTDwkCb59hKQEi9b1t21Wt2FoPObtJgaVyjMVAeGFhXgwKftiW7oqLdh0FBgecuXrz4X124cOGTdaDiCyGEbKBiE0DgCorH5ubmPssXp2Z/rTR9sNRxDxA84EA662JI0XJKaXidFsdiVoQcOKQgwru2VOGVpBsXHGwlSJQo+BIFXpJmFw5K1NrOShMbcTVRiE2e2MoJyqESSLZpthIQUvJyGOU/zLUlANM0TZN36cnn2PPwvVudZWHBAwQNlNa/CQ0ecMTaBsqhgMDVE+23XTRpY2Pjh06dOvXrsqJidj52KSAMVlCcnp5+1b59+zBdovpMGiDoS7RKLgYAOcofJSA0UWK5tLHzTY4Pm7bJ9SngaQo6o1T0uXpuK3B2r9vaGvBGeeNULtpueO8SSLC1MgmQ0ASmhgGC3LPmzrPuStOVtsAcuOF+MUCgHqRFgMpeYw3UreBZEew1/G3Lz4GsfjMGgeCgyy2b+IR7T58+/Z1Ntn4uBQRs8VytoDg7O/vmPXv2/PtJBgSP6GMdV4/HQMEb4TaBClzfZB3+EoU1TsXcJO8mArFJvh6UpTp7SZ3Frh/m2lIBtJtua2ugicJrWzIPEDxZkcu/RNml0jQ916RuhoEByuGmQFRSH6MEBa//5+qI5z33ggcIhAW7siKhQl0L6l5XMFGdQ0DQGIQCQAinT5++s15yGSsqZrd+LgUExB8AEA7u37//G7vd7k83AYTYzAZ9yUpMrHxLUTkXg+2wMeXPStcRbQ4OvLTeiNg2tpJ8myjDNiPtJop5XGm9uioRpqXKuzSdR+Q5Ab57fufXQBOlsx1PW1K+piAQU9BNj48DElJlaKP8S+qvSd8vqWsqdz6LWgyou/DtLZDkHUM+NsgxVmYLCOpe0FUU7QyHCxcuvOX5558/X6+oCEBIrqhYAgjc4rlaYnlubu5nQwhfYwFBK9QCgSUi2zi0MvWcBQTP7ML7lirOnAJPnVew8JQbX5onYHIKLHc+pWDbKN9hR/5NQKJN+UrgoUmamNAvqfftUBi799yaGhilYmmTVxNlmMs/N+q1Ndok/U6ABH2+2LM16e9Wt+jAlXpKj+naKoQHayGIBSl6sx94D08n8ZhnQfAAAelx/Mknn3znc889h0kGz4QQsORyMlCxFBCwxDK2eF6cm5urllhuCghe5cZggGk9i0HMiuBVon3BOppPWRH0+awFwLNK5BRVrlHmzl+vcND2uWJU3VSllNR70zx307+8ayCnxFO1U3JtycjWu0epgleZXAIU48q35N7jbml2QJjSYRYIUDZaCWJWBOt2+P/bOxcgW7ayvnf33nvO497r4wKXyxtFAigaQZGAPIIaX0iUoEYNoCZRYsWYipJoJSaxkrI0WomSqiRlTAoVVCQ+eJQYbwgBTeShQQU0Eo2Al8s5w7kzZ8699zzuzN7dqf+m/+N31lmr1+rH7umZ85+qqZnZvbp79X/19Pfr7/vWt+yLsu9l2NoZvozyJ6HA5iPYJEUCwgMPPPDinZ2d3zEVFXsDAhIUAQiflGXZHbfddtv7LfWGqMr93BdmGAoQQgbDHeCQu7/N5yFASPVg+OCj6UaPGbEh3uSHOEaTsW97/BhwtdUwpG9M200/gHT8k6dAipEPXXXqvl0goY23QJDwiRHqCwg+jwI+s4WT3BkNPkjAc8qOnwsHNP42zOD7DMCQZdnf+8hHPvLmGhC49HPwHzHFg4AERUxx/OT5fP74M2fO/NaUAMEVzxqqJi+Bz+MQAg0fQKTsHzKaqYYp1q6t4fW1H+IYRwUHTedNMT0xfVOOoTZSwCqQauT7QELsHGPDQAgo2vajCUyG1LjrHeu+9PI4vgRDCwd2e1OIwU14bNLDrYPgTnEMAUJVVa/5sz/7sx9ILbmcCgicwfA5W1tbb/trZWIAACAASURBVNkkINibyudmid107ht+U5iBBsYlRWt4UjwGqd6DVIMUa5d6PvuPMCU4SDHsMQ1SjtH0IEg5ftcHifa7uRWIGfAmdVL37eJFaDI4sedqioEeItyQCglt2nW5G30vnimAYD0ATR4EhiRiHgTfdYY8CPg8VBPBJCvee/fddz87dSZDCiBgBgMSFD/5lltu+cKiKFBoYf1lDbgVz/e5G2Lw7e8CgQ8QYrQaMug+o+96Blw3TgooNBkqn+ehr9FqCwdT9BC0vYaQZn2MfJ99uzxwtM/No0CqkQ8pkrp/F0hoAwL2Oe/2dQgY6NJ/n2apeqXcge5zwT22DxJcKMB5XMOPz5qmOIaSFK2944ssAYG2h1CQCAjZ9vY21mS4kDKTIRUQbsEMhrNnz760KIp/4QKC763fFdIHCG6RJQrrA5AYwbpegKY3Ztdw27ah46SAh+2jHcQuN6Zvn6kZ+7b9aYIpXm+q4U5t10bHlHFSGymQokBfo5Wyf6xNWxhoa7A3DQmhl8G+YNXmhSMECOyb78WY3gHrJSBEuKEH5iTY7RY4fHbPruSI7W7uQZMXAdt2dna+4MqVK3fXgNA4kyEGCJzieFs9xfFVVVUdTnH0XYj7GQUkIdkLHhIQXJdQ6O29CQ6ajFTseK7xSzVgKe26vHG3Nd5DtW+CgL7X2hYi2jwIUh76aiMFUhWIGe/YcVL3b2vU7cuXrw9tjzc1SIhdX9sXBh8g0NbQ1llYcA09bVzqjAZChYUjtw/WFvFFNNWLgHa7u7tfcvny5T+qpzpebZrqmAIISFAEINx+6623Yg0GzGg4zKp0RcI21/CHiCgFEEIU6RONn/ne9jmoMUAI7RsyTm0Na1sjN0U46AoBXa6l7T907MGbAimxY2i7FEhRINXIh46Vun9box4zokN4HoY4hqtLqh4pY5Papg0g0Fb5Cib5khZtGMJNdLSeCdcGuiEGG1qwv4c8Cffdd9/XX7p06d1mJkNwTYYYIGCKIwABUxwfduutt143xZEi+6YwxsDBBxLuZ5bMmm6WmJG2UIB+hbwB1vD5QME1jF0MXqqB6nLsLoY7pl0bA921z039ds+fql/oAdB3/9QHi9pJgb4GLXX/WLsuADGEgW97jNDLoL2TYtc69F3XdA3WiLu/u5Bg/3a9CsxNoP3zeSbsdbkeBGxr40FYLpevOHfu3F01IFzOsuwgCKkRQTHF8TQAYbFYPObUqVOgjvWXFa4vINhjWXGaAIHb3Ac+PQU+Y+9r6xM+BRTaGuM2hqmroW1r7Nu2b3vN1DZ27bHtoTFq+zBoc562x1Z7KeBToK9BS90/1m5IY932WEO1PypQcD3TLgy49svCAI1+aEZDyLPQZBNdQKDXwP0Z8iBkWfaDd99996vrqY5YkwGAUHnv3wRAWM9gmM/nf+H06dP/fUhAIAzEACGFLK3x8nkJmrwGriEb0nvQxijF2rY16G3bNwHAcYeD2LXJvEmBTSgQM9wp50w9RhdPQdOztcvxhoSBlOtOaZOicZs2fQHBhQabn2BDDXZs7Isznuv85nONdRFSEhazLHvT3Xff/coaEO5vWrQpFmI4nOK4tbX1+YvF4pesOLyA0Gfu5zbnwO7bBRBo/Fy6o2Du5zFA8EFBCBRixjJm6N2bMda+i0dBcHC9yjGN2zwg1FYKtFGgrxFrs38Xoz5lSEh9OWzTrs3YWY+0+3JsjbYLDbbokS+84Ms/cD0PPrvqs2P4jKWW6UXwAYMJQ+x89KMffU5dCwGAgJkM3kWbUgBhPcXx9OnTz5nNZj/TBxCsoHZAfcmKLjTY9vZhHwIEexM0wYHdZj0PLgQ0wYJt28YQpbQ9qXDQ9o0+Raumf/y++7d5qKitFHAVaGPkfeql7h9rNxZADOlJaGv8Yxqk3J0+G+MDBN9bPu0cf1oYYHt3NUe0dfMW3Bdw3zOTngQLBIQE/rTrNBAS7rnnns/Jsoy1EK51AQROccQiTZ965syZFxZF8SqfkfdBAy4mlJvgCh0DBLd9qiEg/YUAIURjIePVxguR2sdQuy5g0GR0xzxeivFvY7DbtPXp2Xf/lAeK2kiBJgWGMFqpx4i1myokpIBA7Nr6wFXoOeGeM/TyasGA1+J6D3zQ4IMDnsO1ob4XVVt22QcKPkC4ePHi51+5cgXLPmNVRwCCd9GmJg8CtmFK47oGwi233PLtWZa9MuYFsOJ1AQQfNdlBdweLgrmehCbPAI/nGvyQl8C9cUI3UswQxba7/Wpj7IYGgK6wMTU4SOmPTJsUGEOBLsat6dnXB0iOMySkgMSQ4+kDBD5vrY2zL8oWBEIA0JSg6Hoh3Ouxz/smQOCKjvQm0IOws7PzvGvXrn2oBgQs2tQaEDjFcV0D4ezZsz+S5/mLugKC62Wwgxw6pu8mtp+lGGoXFEJwYA1JCBS6Gs1NgkHMAKZo1HTztdkW60vKdnu+VN2aHgZDHGPIh42OdfMq0BcQ2hrG2PmOGhKarifWd95Fqe363nWu3fHBQOgzggD60AQF7kwH6mPto+9llYCA9qHcAxcQ7r///q+87777/qAGBEx19NZCaPIgABAwxRGA8JAzZ868Ic/zJ6YCgs/dYi/YJeOQ28Y3sK63IGTEfIa+ydPgwoPPoLU1uCkGqk+bLp6DLvv4tGkLDwKEvo8p7X/cFehr0NrsH2vbdXsXsAjt07UPYwJCCA5cA94ECD6PQiiR0ec9COnkruqIZ7sLAyzNTO8BvAqXL19GsaTfjtVCaAKEwxoIWZY99OzZs7+L9SZIQe4AhYAgFmawx2kDCbE3zZgXAOfytYntF3pAueGKlAdZDAy6GvKx90sx/LFrdcZzv6qq7aqqLmZZBvfXPuC4qipk2nrn66borTZSYCIKFPknHnaYJXYqz3O8hD0sz/PbU/sXM6xtDGgXg0/jGOpvWyCIXU9se5vrTdW4qZ0PBvCM801TdEHA9RTgWL7PXJvq649dl8HCgQsJ2Nes6JhduXLlW/f29n4jtuxzDBDWyzxnWXbH2bNn38sOhpIKrXfBJ6C9qdwBdz0Tls5Cb68hb0ATPDQBgGvofO4cd5A4KG1uuhRjObaR73q+vnBQVdXlqqr+T1mWu1VV7ZRlad1dPhgQILS52dR2agr4nrn8DD8BDJ9SFMXtRVE8Js/zT/NdQKrBjBnyvtu7wEWXfVL66erURqPQTcLnos9eWRuFdjT09nNr5H0Ji+7MBQsTOI59wbZ9sS+k/D2Ui2A9CMxJePDBB//uzs4OqiniJQxTHb3FkmKAsC6SlGXZI8+ePXtYRbEPIPgMfxM4NN0YKV4An0EPgUATEPQxoCHA8d2UXc/Tdb+YgY/BTGx76PhlWX6wLMsPrFare+spNjD89BDgd/69PoQ8B1Ozc+pPTwUsFOB3fiO0a/8+NZvNnlAUxTPyPMfz+PCrjQGMte2zvYvB77IPLzzW16Zxie0bep6FAMG1XRYI7Euvm3vg1jywngeCRlcPgvUe8Hf0E3DAGQ0HBwffd+HChV+payGgmiJqIdzw8tUECPMsy3BDfsp8Pn/s1tbWb9oBct/4KWAopGAFtt4F94YPDaDvc1KbNUKphtIXEugSXuhqIEPgEiPZIaHiKOCgqqqrq9XqravVCsuNAgiQPev7aWGBRTzkPehplbT7ZBSwEIDfAQb4RhjX9/PUYrF4Tp7nT74ZIKHpxXAIUOhyF/gggTbIBwauF92th+CGFSwk+GZHuJpY7zV/JxCEfhIQVqvVD29vb/90rFhSEyCwiuKnzufzJ2xtbb21DyC4pOW7AULg4BOmjSENeQZCQJASWuD5Q4CQAg4xAx3bHjtHKiwNDR0hbcqyfN/BwcG7zLxbuLWQPcuf+B3AwG+AgetV6PK/rX2kwNQUsB4DCwd4MQMk4Ce+8RzG9/rz2Wz2qKIoXoAwRBdDGXuD7rO9q1eg635drr/PTdD08up6C1xb5gsluJ/5whFNNtEXZkgFhKqqfvLcuXM/nmXZTh1i8BZLigHCuoribDZ7yqlTp361KyDQwPsu1kdlsZvUDrIvLuPb7jOWfQGhDxzEjHsfOIgde1Pg4NO9/uze5XL5ttVqtV3DAJIO8Q23Fr/xt4UFCwn43XoP5Eno86TTvkelgH3eWq8BPQYEAv7ESrqoRYOf/B1/b83n82cWRfH0lDdt92Jjz9c+27sa+z7nHAsU2Edrc6xtc73o2GZzChg64OehxEQ33OB7ubb2wXoPYp4EUzTpTefPn/8nWZYhxHtf/dJ2Q7nlECAwwxaAcPtsNnvqqVOn3uDejCm5CD4BfeEGexO74Qsrht031RA2hQ5cQ9zFexDrh/sPGmvfZ/tR7RuCg7Is31t7DQgFINWr9ewEzFDA7/gMoABPAr8tILj5CEf1gNd5pUBfBdzcA8IBvAb4pseAUIBEcXwj3MvfsW1RFMVDZ7PZX8nzHDMgWvUr1r7P9qOEhC7A1Eo409gNIfhehG2owA0hEBh8bZpm//G8dgYD7VgqIFRV9Y5z5859l1Nu+YZiSTFAQJllAMLTTp069fo+gGBpyj1Ok+vGN3ho38YQWlcMj+f7LGbI28CDr9+xPruwEuvPkNtjfYttd3UFmR4cHNxVliUIFUafYICEGPsNSHABweYkKMTQ9Qmm/aasgJuYSEBgaAGeAtShARTgRQ3PYn7jb2xbg8J8Pn92URRPixl1V4xY+z7bj2rftteYcoO4HgPuY6/RfVm24QL3d99sBut9IDj4AIS207Vf/NvOWCAscHaDU1XxfefPn3957UFAuWW8qLUCBNyga0DY2tp65nw+f00bQLBtQ6RlB8d3Q/k+Cw1WyLj6vAd9QwsxQ26vq4Nh9d6zmwwLxPoY2+6Brvft7+8jqZVhBAAApi9iOg3cWfjG7/iMHgTmITBp0c0/ODxNyj+12kiBiSrgvpQx1MCfBIV1KKEGAXgP8Cz+pPobdRPwjc/XoYeiKBAKflFRFIe5CSnXHzPk7jO/jQGOHburp8FnoFOuNbXvTc87t8/WtlErHxxgW0phJHd2g92vyXtuAcHnRcBnFhBWq9U929vbL6o9CHtdAWFdZnmxWDx7sVi82r1ZbCggJFQKVDTdhDyub9BCglm6cvdPhYMYBMSMZmy7a1RDN3jsOH22x/aNaeCCUFVVV5bL5ZvLskSuAeAAYAAPATwGgAKQKgEBnzXBAac2Kt+gy9NP+xwXBehJWNsC8209CQwxABDwTMbUc8ICvAnYvgaFxWLxJUVRPKnNxccM+VFBQuy8Q4FCH62sdtYe+vIIfPkI3MdtH4IMn/fc2jsLB/jd1kawgFBV1d65c+e+2ACCdz2GUIgBNyoXanpIDQj/eQhAsCL6jtdmsLh/zOhbr0OsbYrhDhnWFIObcvwUwxw7V9/tKX2wbaqq+vD+/j4SWek1gPEHBNBrADgAqeJvwgHzDpCc2BRKECS0/cdQ++OigJu4uH6smamOAAU8iwkJAATAASCBoEBvAsIOW7PZ7HHz+fwr6v2SdNgkJKQY+tj5Y9tTzpEkRKRRqB/uy7I7TdEXZmhKYHSPZ//Gsz0ECm5Ywf7NUss1ONx3/vz5L3IA4Yb1GJoAAUS6XodhsVg8d7FY/IRvEOyFu0Tn8zCsMbkAf/z5l0thqQNpjaAVLAUCQtAQM4wUPLWPtl3MaMfOPcb2lHM4kFOuVqt3LJfL95tcA9AoPQUEAzeswFkLDCmsT91FV+0jBU6YAjaREQ9LzmpgTgLDDYQEggI+P/QmbG1tfXWe549K1WYIIxw7xqa3h+xKqgaxdq5htp5z93f+HfMONE13DNlQ1664Ns8u2oS2dslnehbOnz//DAMI3gWbUgDhoYvF4nnz+fw/DAUIrhfBHjd0A5GaQgbXbvcBQggarEF0wxGOIVz/mWLkfTdZyn6xNrHtsf713d9zU+6tVqvXl2XJ9RLoNWA4AR4DhhXgNUA7eA0ABwQDVUmMPZW0/WZVwIICZzgwLwEwQG8C8g4IC9d5E+bz+fOKovjs2iMR1TFmwH02wD1o0zE2fXzfBaacMypM/ex3j2X/9hU38nkO3M/wd2jKowsIITvo2jfXk+ADhO3t7WdmWfbxutwyns3IA7vuqwkQuJIjAOG5BAT3BmnyIKCtbyokjxEaOOwTMmYh14o15j5Dn+JVGMLAhgCm6QYcwnDHjhHbHrt257oqhBQODg4YUmCuAcIHAAJ8o8Y3vQaAA7QBGOAmZF0DeQxSnkxqc7MrYIsqERTg4UWSog05EBQQgjj0JhRF8fD5fP41dcJjVMsUgxprs+ntKaDSdKGx/oWeh779Qp6DEAg0fe5OeXRtqA8Q3L4SDugpwE8PIKy2t7e/0AACPAitAQE32kOLonj21tbWT1ghKH7IxWK3W1F9xNWG+lyBmgx/G1CwgBG6sYY0sqkGOXbO2PaU86Qcw+izKsvyN+qQArwB8Brg5qLXAGAAzwH+9nkNOJVGcBB9VKuBFLjhhQ6wEPImwIvwqSiPb2Y7ACLWuQmLxeJr8zx/eIqmKQY01qbv9lQIiJ0n5XrbtAl5EVz7GKqBQEBIyUGwMOE+p30vy7gOWx+BeQc25FADw6WPf/zjX14Dwm79DO8GCLPZ7FmLxeI/pgKCO7AhLwLbhQbYfu6KMyQo9IWDNgY2xWAP1SalXylt2B/MUlitVq8ry5KVtwAH9BoACviN7ZzCKK9Bm6eP2kqBZgXo9XWnQ2I2A70JhASGHVg3YT3LIc/zp9SJkI1nSjG8sTZ9t7svorGbI3a+2P4p232AQHvk8ybgM1/Sols4ifbQnepISEjpm/Ue2DCDCwhlWV7c3t5+YZZlmHHWCRCQ7LJep3w2mz1jsVgczmJI8Qi4bUL7xCjRN+BNRi01lOCKnXrMVOPtG8wUYzy1NuZ6z+3v7/9SHSZgJUTrNWBIgXBgcw3kNUj571YbKZCuAMMO1puAZzYTGAkJDDvgWb5OYJzNZk+czWZfWic/9oaE2DN8iO1TAgX3xTXkRXdDCT4AcNsQJkL7xm4PFxA8YMCpjx/Z3t7+xhoQ8OzGCx1e5q77aspBsIDwtMVigZWf1tMrUgDBvSl8FNQEDbaXbOfzItgbJxUOfEa4DSDEBsluTzH4baAjdrzY9jbnqtsi3+ADBwcH/6NOMLSJiPAY4Oay+QbYzumLyjVoc7OorRRop4Cbm8AERngMOBUSoEBYOExgLIri7Hw+f2ldpTF61pQ381ib2PYUkEhtc4Oha1mKOiqIaeB7GbYG3tpNFwDcMIMLBr4KjaG+EQ74jLfTGm0+Qg0N79ve3v47ToihMyA8dbFY/Bw71jRNsUs4wRKYe/HW4IVAwRo9tAmBQsg4xoxqbLtvwFL3GbJdyrFS2hidVqvV6tdXq9Ufm6JHDCkQDGy+ARMR3boGbf7f1FYKSIF2ClhvAiswMuSAMAO8CAQFgAOLK21tbW19bZZlj0g53RAGfohj2JfClH6H2qT0xWczfPv5QgsWZnyeAXf6YyhnwT2OD5JcOECbCCC8fXt7+x/38SAgsWWdpDibzZ60WCx+0Q5M6O2/ycOA/V246Et6Ia+CCwpjwEGq8Q31pStopJw3pQ3PX7d9cLlcvqYsSwABSyUjfGC9Bix8BPcU2nCGAlcFUyJinyeY9pUC6QpYbwLqJmCWgxtyICQAGhCKWJdqXiwWWD76qWPlJfgMnO8yUw14art0KeMt3XO6gGBzEmgTm+ohxGol+CDB7SWf8Tb3wP2dIYcsy37x/Pnz/3qoJMVPXywWb7QdavIUNHkYeKFNg+puc41bSsjB9Ty0DSukGPE2RtcxvvE7MLHmQkofUtrY662qCgstvc4TUqDXAEktnMLIGgiavpg0qmokBTamAEPGLK7EpaKZlwBPwu21R4EzHdYrRM5ms6dgZcihICEFAlINe2q7lHMOpXwIEFxD7oYMLCywbaxQUggOfHbQQoKbf2DDDKvV6j9duHABeYWog9ApSfGwDkKWZY89ffr0W0KA4BuYFEiwx7OCk75Cg0kRUkAhxdDHzpNqYJtuvjbHSGk7VBsXXKqq+pODgwOMNfIIYPztLAXcSIAE1DmwtQ0QUlAi4lBPHx1HCvRTwE1ghDfB5iUQEuBRgDdhPcuhKIqHzOfzl40JCalGvQ0kULou+6TKHjq29aCH4KAJGpr2iV2XCwe0fT5Q2N/f/9Hd3V0knWMWAzzBresgsNTyQ7Mse9Tp06fvcsWLQUDfksoxTwIFcOHC9rOL56APVMTOPQREDAkH9lhlWb5ruVy+2+Qb2JAC4ID5BgwpuBURU/+/1E4KSIHNKuCGHFimmYs9AQ4ICgw5nCmK4pbZbPbyPM8Rfoh+pRjhodqkwoSv0yl9iF6saeCGsN2QuwWFlHUZ0D4UZuB1N3kt7HPcegoYYrCfARj29/e//+LFi7DpF7pWUuRiTQCEO0+dOvU2XwddYWIQYQe5z6B1NZJd92tz86ScowtIpBw3pQ3PbduuVqs3rlarP/XkGwAM8M0KiSyXrJBCm5tCbaXA+Ar4aiYwL4FFlQAJ9CRwKuQZVF4siuLRKV1OeY6ntGkDAKnHa+p/22O4YWv32DxeyItgDb0Fglj+gXu82EumLZQUAoQrV6688v77739Hn7UYAAiIXT0EWa6nTp36yTzPPyMGADGICIkauxFD4QTsl2oUU9qltHH72mWfofvd5nhO26pORry3roqI0AEXWLJwgFAD4UCzFGI3rLZLgekoQG8CF30CJHCWAwDBQgJnOZyez+cvqNdxiF5JqrE9qnbRC+jQIPRG7zPovtCBCwbogpuP4EIFu+nT0cIAn/FuVUV6Eu6///7vuHLlym/XOQjwDGN6evJqjrihLCDcubW19T15nv9Vn4Fvcn3YC+xDc6G8hJQQgusOCvUj1dCnthvrPG3647iirpRl+bNlWQIIbFVEgoHNN8B2rsCoWQodHijaRQocoQKhvAR4DZi8aEMO66mQ8/n88/I8f05Kv4/a+KeeP+VaUtqkAILPwHedzWD7ZL0VTph43YyfMf/A9STcd999L7t27dof1B4EPP/x8sc8ssNThQol4fNF7UHATXNnXcf77/sGwRJTiHBioQgKaUUIGb4mg58CDD6hraju7yk3S6xNGyPe5vxtjuvAwbnlcvkrdXIKl2fmFEabjMiSyQgpgDC1+mJssLVdCkxTAd9USC74REhwp0KeyfP8ifP5/KtSLynVUKe289mGWF/aHDt2rND2ECDwZdbaxaZ1GXB8X02EkCfCZ78IANZ2WChwAWFvb+8l+/v7CCkjB4EviJ0AATcMVgPDsqE/FBLeV98g5lnwCR8b2FAcKGQoUw1oaru2N1Pb46a2T23ng42qqv5ouVy+taZGLrTEKYw7dTIiqdLWNxActL0B1F4KTEuBUF4CPQl43iOszLyEdb2EoigeOZvNviH1UmLP8dCLZNPxU48ZegFM7Xtqu6b+uMbdF2LwgQHa+UIPPliw/XRe/tabfIDA4km7u7svXK1WH82yDKFlJKPDQ5wMCDg+PAhwM8GDcEdRFF8wn89f1URzoSJIKd4Dd1Bc8dsYRB4rdZ/Udqk3Tpfjpe6T2i6kQVVV71kul+8ycMB8A4CBnalgkxERUhAcpN4AaicFpq8AQAH1ErCWA0s0c7EnPPMJCfAsrJMXi6JA0TyUZ0YuQ/SrjUHfVNuYXYleREMDnyfbuv7d3y0k0I7az0L5B25bH1xZD4KFA/5uQw1YbO/ChQtfl2XZx7Isw3MfNgAvggwdH151KMRAQID7CSR5R11I46eaAIFE1CS6Lxzha083TdOxfMaSg5JqSFPbxW6krsdps1/ftlVVvX25XP6eAwfwHFg4YDIi8w1U3yA2+NouBY6nAm6JZkxtZ1ElJi8ygXG9jkNRFJ9cFMU35nmOv5O+Uo1/ajt70i77hDodOlbTczfkJfe98RMAcDxfHoLvMwsHIfvq9s8NN7jhhaqq7rpw4cKPZFl2vvYgsFpuK0AAJQIQQJB3ZFn2uK2trevKLYeEjpVTjkFGjPqaBiwUgghBSNId7mnUxli7u7fdd4j2y+XyLQgtmJkKzDcgHIAicaO4yYgql9z1JtF+UmD6CjQVVbLhBvzOGQ63zefzF+d5fmfq5bUx5G3a8vxd9knte+yFNwQsPo+BNfjcnlL/wD0Wj+ODA2zj5x44yJbL5Y/v7u6+Kcuyc/XLIWauoTBeK0CA6wmAgPmyD0OxpK2trTfULqm1JqFBsa6VNuL2HbBUQ+pzDQ0NEH2hwA5yqi6h618ul79cVdWHzEwFwAHCCYADzlQgRdJzoJBCqvBqJwWOtwK+okp49gMI8IKIcIOdConQMwoqfXlRFDdMfQ9J0daIt21/FLAQ8iBYEKA33JeH4H4WK6rkXiOPbZ/9Fg5oR/AZ8w+uXLnyfZcvX35n7UGADQAg4Ll/w8tgU4gBgID5susFm7Ise+RisfjePM//coiYmkiqKyg0hRF4zFQw6GJ0+/7ft+lbl+uJXFO1Wq1+vixLkCKSEQEBgAN6DXxlk7VEc99B1/5S4PgpYJMX4T1GXoKFBJuXcLjYE5LX8zz/3DaX29bwt20/JiiEAMFCgYUFG3poSkZEuxAsWDthzx+CBNeLsLe39+0HBwd/WAMCbAAAAbPUWgECEljsegyPmM/nX1oUxT90b4aYJ8F383Qd9DY34hBv8V3O1wUKusJLw7mWq9UKqzECBuxMBXoOAApcUwHuJVVG7DLY2kcKnCwFmLxoIcGtlQBYsJDwrDzPn9lGhi7P/y77pLzMtul3k+3js9h60F1vesxDEPIy4LwpoXv3JZNwYJMUd3d3v3G1WsGjjIWaAAjedRjWYNMgDgCB5ZbhYkK86XO3trZ+rI3BbzOoqW1TvApjw0FXKNgAGOCQV2s4AABg8N2ZClyNETMVOI1RMxX6PCm0rxQ4OQq4MxzgSfZBAmc4oOriM/I8f25bCVKf+Zsw9F3Oo2+V/QAAIABJREFUbftBL0ETNLjJij4AcD0MMYhwQcTtk4UE6z2owwy7995779/MsuweU0URduCGKooxQLDVFEGMD8+y7DMWi8Wrm4T1bWs7EKH2qUbY3T91v7Y3d9/jdtk/tk9VVfeXZfnasiwRToDrCHNcOVPBrXEAz4FWYmw78GovBU6+Au4MB7uGA8MNeHGEJ2E9w2E2mz2tKIoXtJWmrX3g8bvu17Z/sfYpeQguBLieBYYUXICg58CeI/W6mXdgcxJWq9XP7ezs/Gw9xRE1EFhm+YYaCCmAwFoI66mOWZY9erFY/AK8HSmdbBIuJjoFjRnE2HGaaCu2ryWx1LYp7bpeU2y/qqruXS6Xr6u9BlxTgWWTCQcABtY4wE2haYwpg6Y2UuDmU8Cd4YCQM6ZBwnPAGQ6ABHoSAAlPLYriy7pIlWJTfMftul+XPqac3zXmPhjwAUMovGC9ENzP/nT7RDth12FAG/x9+fLl76/XYGANBNgDeJFbAwKOCUAAOXKq46Pm8/l35Xn+RU0dDAnvXmjowuznXQc/ZkyHujlSj9OnPyn7VlX1seVyiWmoMP4IK9iZCiyd7NY4YFgh9TLUTgpIgZtLAR8kYBYDPAf0JHCGAxLaz9almW9YtydVtq7P/C42KbVPTe2avOY+mxcDAR6PSYw+KPB5FNwkRYYXsD9/39vb+46Dg4MP1lMcYRdgE7xTHNfnjQjEmQy4GTCT4VGoqDibzf459+symF32SR38FGM6xE2Reow+/UndtyzLD61WK8xrBRxYzwFcSKyOSDjgmgqCg9RBVDspcHMrYKdB4qXRLagELwIrLyLccEue54+fz+cvSbAxQWW72ok+tqnLMKeE1a0XwQICzueu00Bb59vHtYOhcLoNK1hA2N3dfelqtfpIlmXbtW0ITnFMAQR3JsMjsyx74mKx+HdDvOX3uQFCwnQZ4CH3STXqTedsc4yqqj64XC5/zSmAhHCCncqIm8AWQFKNgyEHXceSAidfAXcaJMIN8CTAa2BzEmxBpTvn8zmqLuJFs/NXHzsxhJ2Kddxni1LCDNa74EtMdOHBtg9p4oKBhYOyLN+zs7ODCopYg4EzGPBS6Z3imAoI1y37nGXZY+bz+c9YMuwzgH32jQ3c2NvbGPZQ31oe4w+Wy+VdBg6QjMhpjMw5sHCgGgdj3xQ6nxQ4OQoQEvDiiGmQgAQW0wMYwMvsFlS6fTabvTzPc3geOn8NbSc2cTz77G4DCK5HIeRtCOUiWFGbAOHatWs/+MADD7y7nsHAVRyDMxhSAIHLPoMU16s6Iswwm81ekef5lwxFZ10GyzWkXY7R+W6td2xpzBtP1+FY718ul/+tAQ5YOhkJKKiSJTjoO+DaXwpIAXc1SIQb6EmwiYv4Hblr63L9s9nsW/I8x8tmr69NP+djxw89p939QoCwNrp5ft239RT4trueg9C5bM4BRbaf7e7ufmdZln9iZjA0JiimAgJI0SYqIszwmbPZ7Id4MexMTNzYnRHbv4MRDZaDjvXF3d7l3LFz9Djm7y2Xy7fVOQesjgjPgc05QKIiwgoqgBQbCG2XAlKgrQJuQaUQJLCg0ifNZrNvhi2JPedTOjLEMVLOk9rG1x/rCbC2kp/bsIIFAwsMPphwj2thwPbXSVJ8cGdn59vq8EJ0DYZDm54gwA0ll7Mse+xsNvsJd99QxxPOcV0TK3YPI9r2tKO173FNyB343eVy+XYDBwwrAA64dCfggAWQ5DkYbWR1IilwUyngq7po12/gGg7wJNxSFMVteZ5/S+1VGOzlbQqw0AQIrvEPgUNTaWUfTITuNHc2A9otl8vX7u3tvbkOL2AVR1ZQ9K7B0AYQEG+CGwnZqayoiNkM/wzTWXyd7AMKoTjOSfi36wEGuHzAwf9eLpfvcODAJiSydLKqI56EG0bXIAWmr4BbdRGeBFZd5OwG5CUAEm4tigIzHAAJqKcwGCQMfay2srcBhEPjW4caLECEPAZumCHWPxcSLl68+EoTXkCCIqbBM/8guGJvbJrjuu91yeXr8hDqMMMPNHV0KLIb6jgxUTexvScUsEsYwHcvl8v/VQ+qWx0R4QULB6iOqNLJmxhQHVMKSAFXAU6D5PoNXOQPUIDERetJABigoBLCDfA2rL+GfsYPfbyUIY/lIdhj+MIMFg5caLB/h/qC/X32pqqq1c7Ozitq7wHCC0hQhA1BCNpbIOlwXBIuHIOPgbdLPyMP4TGz2ey66Y6+Yw05UEMeK+G6OzcZCAp4/rKqqneuVqt3GThgdUTmHHDNBXgOVDq588hpRykgBToq4IME60ngDIe1J6GGhJfXnoXDU27iGb+JY6baOmu0fV4AFwpC0x1DXvmma6MdKsvy9RcvXkSdHFRPRHgBdgOz24IFktoAAtoiDwFTWrj08yMwm2E+n393VVVPjd1QmxigTRwzdh1N2weGAgsHv7larX7HWZERYQUMsrtcs0on9xlE7SsFpEAfBSwksAovIMHObuA0SEDCmdls9rJ6auRGIcG9qE3YDx6zy3RH12NggcCCBds1XY9riy5evPg9ZVmiOBIAwa7g2Jh/sD5X4t3AlR0xqFy46VG1FwGFF5K+NjEoh6STp15KUlejjTYEBIfnraqqLMvyHVVVvdfAga1xwLACExIFB9FRUwMpIAU2rIBbmhmeZzcnges3rD0JRVG8NM9zfHbd1ybtRUiD1HP6nv8peQjWwPvCDNjuJiTib5zP9SKk9LWqqsu7u7vf7YQX4HFGeAHe5mD+QRtAYD2E9ZzWeuEmhBkeOZvN/m3tYUi+71IuLPlgkYZ9z7VpEHC7X58PcPB2Bw64IiM9B0wy4UIbnK0wlHQ6jhSQAlKgiwI+SAAMhDwJQUiwBrVLR8bcJwYIvBafoXfDDyEYsOcIhR14zbAlV69e/VdXr179QwMIXH8huECT1Sz1tRvtfGGGRxZF8dw8z7+1y0D0Nd5dzjnFfRwIARy8raqq30vwHCCGRM9BIwlO8brVJykgBU6sAi4kIHHRl5MAaFiHG2pPAnIVgl9TtxkxSPCFC0K5Ca63oW0eQlVV1cWLF/9BHVpAeIHrL8DrHA0vtPEgrD0fZpEOhhngRXjEbDb70bZehOsoZeTwwFT+JT3eCcQV7qqq6v0eOGBCIrJPMcCAAztbYSqXpX5IASkgBWhf+HJpcxJQPAkhBc5w4HLRgIS/kef5w2LyTRUUUgDBNfyuZyHmabD7++yoSU5866VLl15fr9wIQGB55aTwQltA4GwGTHfk9BXkITyiKIpvy/P86bFBjW2f6qDH+t1me0PIAnDw61VVfaAGAMSJmHNgExIxd1Vw0EZ0tZUCUuCoFPB5EuAxgA1hnQS7EmQyJIQM5VFdaMxws19NHgOf18BNWEx8uS4vXrz4vfWshXtq7wGS27k2D6bBR79SQwyECXgR6CoC/a3XZkBOwmw2++HayxA9aazBSQSFSC4D4OAtVVUhVgTvALwEPjiga0ieg9hNpO1SQApMRQELCSzd70tcZLgBOQnflOf5HW0uYAp2I9QHN3eAf7vJh24IoqkccxMoVFX1p3t7e/+m9h6g9kGr2QuHMNNmAGoAwIIbtmgSwgx3zmYzxDo+reXxGptPYcD7XE9qgmNZlm+uquqPjOcACYksnQxQYFgBcSPBQZ9B0b5SQAochQI+SLCeBNZJQPiaOQmABLyEdvo6CvuRCgihWQmhBEbXs2D/9ohT7u3tfX/tNWDtA7c4UlLOWhsPAr0IJEDEkTCoqIkASHhYURT/sk8uQuwuOIoBj/XJbk8FArtPWZYoYPHBhrCC4KDNIKitFJACU1UgFRLgSYCH4Wye59+Q5/mdfS9oTNuRci5fsiKNfkrSog8YjEYfvnTp0qvq8IJNTkwqjnSdZ6Kl8BxgFE2yNREACA8viuJvZVkWLZzU8pze5imDMMR5mo7RBQgcOHhjlmX/V3Cw6ZHS8aWAFJiIAjFIYF4CIQFrN3x9nud4ER30a1M2BMd1bYN7Lp+nwAKCCwBuiOI6I26S/PM8X126dAlLIGDGAkILqJyI8AJrH2B13yTvwboPHRR3ayK4XoR/Wq/d0OHQ/XbZ1ICjV31hwL2ysiwFB/2GW3tLASlwPBVoCwm35nn+tXme40V01C+fTYnZgtQwg4WAEBCEEhRDsyVWq9V7Ll++/AsmvABQYHIiah9wjZ4kHbsCApIV4UWAG8hOebwjz/MvzvP8hUlnP4JGXQZ86G6WZfmGLMv+2PEcMOcA+Qd2KiPqHLQa1KH7q+NJASkgBQZWgJAAW8IpkL7ZDZjtgBL/gISX5HmOpPhJf6UAAoHA5xmIhR/sxdv9q6q69sADD/xgPZ0RngMuzMSiekm1D647fkelOaisrAgvwjpZEXkJRVH8I7tSV8dznMjdInDAKlescyA4OJF3gS5KCkiB2oPN5aJdSMCLp62TQEj4a3meP3rK6rUBhDZeBB9UUAec8+Dg4LXXrl37XRNecL0HravtdvEgrPtZJyOeqr0IiBsh2xRxIvx8fFEU39kxhDHlse/Vt7IsfyXLsj8JeA44W4F1DgQHvdTWzlJAChwDBUKeBF8xJUDCbXmef02e54+Z8rW1gYSQF8HCQ1ObWod7H3jggR+vZ7/Be2BzD/DCidyDpNoHQ3gQcAzXi4DqV/Ag0Ivw9VmW/cUpD+KYfWuAAxZBQlhBcDDmoOhcUkAKTEGBtpCAcAMg4bFT6LyvD20AIcWLEGpTf75/5cqVHyvLEh4DfAMOensP6AnoqrHrRWAuAgABXoTbi6L4rizLQII39VdZlr+cZdn/qz0HiAexzoEPDrjCVnKm6U0tri5eCkiBk6CACwmcKceKi264AZ6Er54qJDQlzPtmNIRmKfimPF73hp/n2XK5fPODDz74Tsd7wLLKeOns5D3oCwiuFwHuHwwiAQEehU8viuJvD1Vh8Tj+F3jgwK2QaD0HgoPjOMjqsxSQAkMoEIMEOwWSOQmAhMcNcfIhj9EWECIegsOlnt12VVV97OrVqz9ZV96l9wDTGmFnWPegde4Bteiag2D3xyqPyEVgdUWUxwQk4OdD8jz/ojzPnz+k+MflWAYOMFC+tRUEB8dlMNVPKSAFxlCgCyRMMtzQFhKaaiUEZt9d3t/f//dlWcITDShgiAF/w95gWmNn78EQHgR6EWx9bSYsIswASPiUPM+/Ocuyx2yyTsEYd26bcwgO2qiltlJACkiBQwW6QMLkPAltASHmRXDuj/Lg4OA1q9UKSe8WEAAKCGNzJlyvKfJ9PQiEDCQsYo0GO+0RgIDvdY3tPM9RZRHVsa5zl5zEf4qyLH8py7I/rV088hycxEHWNUkBKbBJBdpCAiouAhIev8lOtTl2G0CwdtHNR2BhJls0qSzLu/b3999VhxKQb8BZCwwt0HvQK5dtCEAgJMCLgFADil0ABOA9ACAgFwEJjI/O8/xl9WqQf46KpkxkG/En3Pa/lGX5YQ8cYBCRnHi/ma2gnIMJD6S6JgWkwJEqEIIEdwokyzLfWhTFi5D7dqS9NidvAwlu+WUXDAgRVVX9/v7+/q/WngJ4DxBagOeAoYWrJrQwGUBgCWYuB41QA+CAkIBs1Cfmef51WZYBJq77Ognhh7IsX5dl2d2Cg6n8e6ofUkAKHHMF2kICPAkvzPP8iVO47jaAYPsbmtVQVdWHDw4OUEoZ+WsooczcA86Is1Ple8EB3/yH0pEVsRhqIOXRkwBgwGefCVdQ08yG4wgLZVn+bJZlWDnLJiRi0Dhw8hwMdafpOFJACtxMCrSFBKwC+ZVZlj3pqG1J7PzYHlrYyQMJH9vf3//5OgER3mh4pQEI1juN0AI8062LIvluqKFCDDw2jsdQA2Y1wGuAHARAAr4RasD0lM+uBzDp/DGRj/I/pfrE12vqGBASQ5hz4MIBtqEWtsIKRzlgOrcUkALHUYEYJOAFFLaGazcgH+7L8zx/SujNfAwRArMPGr3nPu9BVVUfXy6XP1d7DlhHh3DAKryDhRasQR9SJw4iIIGFLhAfQqiB34wXfVYNCUhwbP11FNDgWcWrrKrqp2uCAwAge9StcwDPgeCg9QhrBykgBaTA9ba0Lt/PKr60MfRWExJgY5ALB0j4sjzPPyum49D2xNqK2LF9220+QlVV28vlkmEF2BiEFug9wO+cLo8X0M41D8bwIDBs4a7QxYU34EUg5WEAn1xDwg05CbEBdbfHBqHt8dA+sqznQQ0HzBq1ngMMGldlRExInoMuA6B9pIAUkALXK5DiSQAo8EUUkIAVhjuX/W+yLbGln9cGMSERPwQJVVV9dLVaYVYcQ9c2tAA7w5UaHzTe6cHumSQXf4ezsQwzV+hCWIGQAE8CIAHUB0h4fJ7nX+XObuhwzjF3ebCqqp+qwwkYOOs5EByMORI6lxSQAjebAhYSWIOHIW3YGVZcxO+31Z6E5+d5/vSjWkAwBgmBUMQHy7L8tdoDDU80XkYRuob3gHDAaokbCV1vChDoScDgIWkRMxssJLCuNiHhYXXi4rpOwsS/LteeAwyMCwcYPMCCdflsZOAmrpG6JwWkgBTYpAK0Xajka0PaNtwAULCQ8Kw8z//SUUBCDBAolGn37tVq9VtZliGvAPYEdoV5bbQzsD82KbH3rIUbPPMbHEFSHksxAxIweIAAAMK6gFL9GegP3y+ER2GDfep7aLh3XlvXMWjyHGBQFVboq7b2lwJSQAqEFfBBgvUkuAs8Idzw+VmWPXfs9YFaAAK803dVVYUKiQhPw3NAOIDXwIUDllIeHA74lr/JG9AmLXL6Iz0J1g0EcMDAIukEA/issQcwQQRUqkKiCIityXMgOEgQU02kgBSQAgMoEIMEhrbxYgrbA0j4bOQlZFmGl9fRvhIgYaeqqjfX4QPYEdgZvJQCDPgNWMDn2A7v9KBJiWN6EA69JrVLh9MfGW7AgFlIwOABErAdxZW+op6yMtoANpzoQ1mWvdEDB6A5xoJY5wBEp7DCFEZNfZACUuBmUCAECXjxtDkJhATYmU/Lsgy5b3hxHeWrARDw9v/+qqrekWUZkg3hOeBLKMEA+QeEA5ZR3igcjOFBiEEC5qxyADF4zEmAJwFlm5+XZRmmqHSaCjnQqP9hlmV31cQWCisADjgHVXAwkPA6jBSQAlIgUQELCfAMwIYABJogASGIb6jbJp6mXzMPJOxVVfVf63LJhAOGFThlHl4EzJJjzgFeQgEH+NpIaMEa7n5XnL63G25gSWZAAuAAoEBIQOYptoPuMMCor43tY36hEtV7six7ZwMcgOis54BEt9FBG1MEnUsKSAEpcEwUCEECw9puuIG5b980lrfaAAKM/HurqvqdOl8NXgHmHAAIGFpg0jtq6YzmOTgKQKDHgtUWYfxtoQvAAb/pSUC8CJ4ETJd8XJZlL6inRm76fsXgwWvwQQMHGDASnXX3YFBJdAADwcGmR0fHlwJSQAqEFeA0e3oSYEeYIG891ng5pY15cZZljx1B1CrP83uqqsJiS/AYIJmdeW30HNDW2BdQzlbYeFjBarDJaY4hre3sBtZJAMnBa0BvAn5iQPEZkxcBFMhjwCIcz64/38R4wuCj3jUGB2ED192DmBDdPQwryHOwiZHQMaWAFJAC3RSwkICXTIAAPAk2940ea9gYtHl+lmWfu6FpkHhxhO14g/EEAA5gb+AdwFRGeg5ge2hjWGhvo7MVmox1N/n77eVWw8LgYJBQOAlgAEBwIQEhB3oTQIaPrjNRsd9QX1iJEQPoxoIwsPAa4NvCgc0iledgqFHQcaSAFJAC/RXgAoKsx0NIgG1hgryFBNiYJ2ANh9pr3b8Hn/AuI5kdsxOYwE6vAZMRYVPwDTCg14AzFVg+GSHv0W3MUXgQKLqbecqCSvQmEBToSWBtbYQl6E1gjQW4h+BtgEeiyxcM/f/Msuz3a5cPiY4VEgkHoDxsc6eYjD5wXS5S+0gBKSAFbjIFCAm2Hg88CfRWsywz/oaNgX3B91+vIaKrXLAR76rD1PAw4xvGHt+cwggIYBEkAAJ+t6v+HvmMuKMEBAsKmKWAAYSBx+CA9DBYGEh8W0jgVEh4Eywo4BiIL2F6JEgwZX0HGHbQHWpdI8bDRBHSHMGA6yowUYTLaSrnoOu/j/aTAlJACoyjgIUEvojihZJ5CS4kwP6g3ZPrvLdUWwKD/oEsy5B4CCDAWz9sBT53vQaEAwsGfPlEWxtSOLIX0CkAAm4Rm5dgyzMTFDCYAAX8ZF4CtnE6JMAC34AM3gz4+0l14SX8znPgJwYO7p1frl07GAxQnRsLYjIiSydzQQy6e45s4Mb5v9JZpIAUkAInQgE7i465b3wJ5Qw6Vvbl+g14CYU9ekaWZZ9XT7fHcfDcpw3Yrme6IQzNz+kxIBgwZM2QArwE9BZwtV9sQzt6DXB8fB2pjZkKIBAS8BOeAAwKBtGGHRh6ICBgcOlNYNjBggKOw297fL71k+5CiSLwGjAeBHjA4HHgj3zgTsS/rC5CCkgBKTCeAm6CPGslMHmR0+3pseZLKF8+YU+szbS2BPbEBwb0SuPlE14DAAF/0mOANizNP6mE9ykBgg05WC8ABgckx9ADkxkJCBhEfDOJEVCBfQAZ+CYk8ObAoGIQ4Pqx8SDGgggG7kwFG1YY75bWmaSAFJACUmAoBVxvNRPkOYuOuQkuJMCu0ENtvQgEA9gH2hQbToBngJ4DgAGgwAUDTpOfhNfACj1FQHC9CVyty3oUAAOAAha6ICAAIlhgyYICjsFqjAQEO/8UcMC8A/yk24fJiKqOONS/p44jBaSAFDhaBewsOrsEAGfRMUGeYW16EvjCSQ8yvdAWDOBpht2AVwAgwGmMBAXmutFjMOl8tqkCgvUmMOzgggLzDwAEBAb+zpADY0h0EXFgGRti5SoAAr9BeYwHaRrj0f4j6+xSQApIgU0oQNtnQ9qwHwxlM0EengXObqAXAf2h5wC2BN8AA3wDAAAIsCH4SVjA5yyMRG/D5HPZpg4IIVDgjAcMGL4BAvwmOPBvehLoHoIHgQNqk0ZIe3ZNhckP4Cb+c3RMKSAFpMBNooBNXqQ3gWFrwgFz3VxAYEIh4YCAYH9yaiPbuqHqI01CjI3xcQEEHyhwaiQTGjn7gUBAeOB2Cwg2/8BSHmcpcIoKPQ4xHbVdCkgBKSAFjqcCbsiB0+2tRxovntYTbacw0iPN6Yn8SShg8uKxe+E8boDgggKTGQkL9CwwHMFERfxNQMAg4ZuuIZfwjt0gHs//SfVaCkgBKTAZBWzIgfaDL5nWC82ZDG5yIsMGDEtbKJhc8mGq6scVEOz18RosLBAYOIPB1kdw56raAaW7Z9Jun9TBVTspIAWkgBRopYD1JjA/gS+YtCP0LBMS7E++gHIK5LG2JScBEEKwYAsjER5syICeAlvj+lgPZqt/AzWWAlJACkiBkALWftBrwM9oR2wdBFtV98TYkZMGCL7Bjl3jiRlM/a9LASkgBaTA4Ao02ZATbT9ixnNwpXVAKSAFpIAUkAJSYPoKCBCmP0bqoRSQAlJACkiB0RUQIIwuuU4oBaSAFJACUmD6CggQpj9G6qEUkAJSQApIgdEVECCMLrlOKAWkgBSQAlJg+goIEKY/RuqhFJACUkAKSIHRFRAgjC65TigFpIAUkAJSYPoKCBCmP0bqoRSQAlJACkiB0RUQIIwuuU4oBaSAFJACUmD6CggQpj9G6qEUkAJSQApIgdEVECCMLrlOKAWkgBSQAlJg+goIEKY/RuqhFJACUkAKSIHRFRAgjC65TigFpIAUkAJSYPoKCBCmP0bqoRSQAlJACkiB0RUQIIwuuU4oBaSAFJACUmD6CggQpj9G6qEUkAJSQApIgdEVECCMLrlOKAWkgBSQAlJg+goIEKY/RuqhFJACUkAKSIHRFRAgjC65TigFpIAUkAJSYPoKCBCmP0bqoRSQAlJACkiB0RUQIIwuuU4oBaSAFJACUmD6CggQpj9G6qEUkAJSQApIgdEVECCMLrlOKAWkgBSQAlJg+goIEKY/RuqhFJACUkAKSIHRFRAgjC65TigFpIAUkAJSYPoKCBCmP0bqoRSQAlJACkiB0RUQIIwuuU4oBaSAFJACUmD6CggQpj9G6qEUkAJSQApIgdEVECCMLrlOKAWkgBSQAlJg+goIEKY/RuqhFJACUkAKSIHRFRAgjC65TigFpIAUkAJSYPoKCBCmP0bqoRSQAlJACkiB0RUQIIwuuU4oBaSAFJACUmD6CggQpj9G6qEUkAJSQApIgdEVECCMLrlOKAWkgBSQAlJg+goIEKY/RuqhFJACUkAKSIHRFRAgjC65TigFpIAUkAJSYPoKCBCmP0bqoRSQAlJACkiB0RUQIIwuuU4oBaSAFJACUmD6CggQpj9G6qEUkAJSQApIgdEVECCMLrlOKAWkgBSQAlJg+goIEKY/RuqhFJACUkAKSIHRFRAgjC65TigFpIAUkAJSYPoKCBCmP0bqoRSQAlJACkiB0RUQIIwuuU4oBaSAFJACUmD6CggQpj9G6qEUkAJSQApIgdEVECCMLrlOKAWkgBSQAlJg+goIEKY/RuqhFJACUkAKSIHRFRAgjC65TigFpIAUkAJSYPoKCBCmP0bqoRSQAlJACkiB0RUQIIwuuU4oBaSAFJACUmD6CggQpj9G6qEUkAJSQApIgdEVECCMLrlOKAWkgBSQAlJg+goIEKY/RuqhFJACUkAKSIHRFRAgjC65TigFpIAUkAJSYPoKCBCmP0bqoRSQAlJACkiB0RUQIIwuuU4oBaSAFJACUmD6CggQpj9G6qEUkAJSQApIgdEVECCMLrlOKAWkgBSQAlJg+goIEKY/RuqhFJACUkAKSIHRFRAgjC65TigFpIAUkAJSYPoKCBCmP0bqoRSQAlJACkiB0RUQIIwuuU4oBaSAFJACUmD6CggQpj9G6qEUkAJSQApIgdEVECCMLrlOKAWkgBSQAlJg+gq4w4cQAAAAfUlEQVQIEKY/RuqhFJACUkAKSIHRFRAgjC65TigFpIAUkAJSYPoKCBCmP0bqoRSQAlJACkiB0RUQIIwuuU4oBaSAFJACUmD6CggQpj9G6qEUkAJSQApIgdEVECCMLrlOKAWkgBSQAlJg+goIEKY/RuqhFJACUkAKSIHRFfj/A3OxnqyZdWEAAAAASUVORK5CYII=;" parent="1" vertex="1">
                    <mxGeometry x="160" y="250" width="100" height="100" as="geometry"/>
                </mxCell>
            </root>
        </mxGraphModel>
    </diagram>
</mxfile>